<svg width="16" height="17" viewBox="0 0 16 17" fill="none" xmlns="http://www.w3.org/2000/svg">
<g clip-path="url(#clip0_437_29)">
<path d="M7.88733 16.5C7.79959 16.5005 7.71262 16.4837 7.63139 16.4506C7.55017 16.4174 7.47629 16.3685 7.414 16.3067C7.35151 16.2447 7.30191 16.171 7.26807 16.0898C7.23422 16.0085 7.2168 15.9214 7.2168 15.8334C7.2168 15.7454 7.23422 15.6582 7.26807 15.577C7.30191 15.4958 7.35151 15.422 7.414 15.36L12.8607 9.91338C13.2352 9.53837 13.4456 9.03004 13.4456 8.50004C13.4456 7.97004 13.2352 7.46171 12.8607 7.08671L7.414 1.64004C7.35184 1.57788 7.30253 1.50409 7.26889 1.42288C7.23525 1.34166 7.21793 1.25462 7.21793 1.16671C7.21793 0.989174 7.28846 0.818911 7.414 0.693376C7.53953 0.56784 7.70979 0.497314 7.88733 0.497314C8.06486 0.497314 8.23513 0.56784 8.36066 0.693376L13.8073 6.14004C14.1178 6.44968 14.364 6.81752 14.5321 7.22248C14.7001 7.62745 14.7866 8.06159 14.7866 8.50004C14.7866 8.93849 14.7001 9.37263 14.5321 9.7776C14.364 10.1826 14.1178 10.5504 13.8073 10.86L8.36066 16.3067C8.29837 16.3685 8.22449 16.4174 8.14327 16.4506C8.06204 16.4837 7.97507 16.5005 7.88733 16.5Z" fill="#545454"/>
<path d="M1.22131 16.5C1.13358 16.5005 1.0466 16.4837 0.965376 16.4506C0.884151 16.4174 0.810273 16.3685 0.74798 16.3067C0.685494 16.2447 0.635898 16.171 0.602053 16.0898C0.568207 16.0085 0.550781 15.9214 0.550781 15.8334C0.550781 15.7454 0.568207 15.6582 0.602053 15.577C0.635898 15.4958 0.685494 15.422 0.74798 15.36L7.14131 8.97338C7.2038 8.9114 7.2534 8.83767 7.28724 8.75643C7.32109 8.67519 7.33851 8.58805 7.33851 8.50004C7.33851 8.41203 7.32109 8.3249 7.28724 8.24366C7.2534 8.16242 7.2038 8.08868 7.14131 8.02671L0.74798 1.64004C0.622444 1.51451 0.551919 1.34424 0.551919 1.16671C0.551919 0.989174 0.622444 0.818911 0.74798 0.693376C0.873516 0.56784 1.04378 0.497314 1.22131 0.497314C1.39885 0.497314 1.56911 0.56784 1.69465 0.693376L8.08131 7.08671C8.45585 7.46171 8.66622 7.97004 8.66622 8.50004C8.66622 9.03004 8.45585 9.53837 8.08131 9.91338L1.69465 16.3067C1.63235 16.3685 1.55848 16.4174 1.47725 16.4506C1.39603 16.4837 1.30905 16.5005 1.22131 16.5Z" fill="#545454"/>
</g>
<defs>
<clipPath id="clip0_437_29">
<rect width="16" height="16" fill="white" transform="translate(0 0.5)"/>
</clipPath>
</defs>
</svg>
