<svg width="760" height="465" viewBox="0 0 760 465" fill="none" xmlns="http://www.w3.org/2000/svg">
<mask id="mask0_251_19989" style="mask-type:alpha" maskUnits="userSpaceOnUse" x="0" y="0" width="760" height="465">
<path d="M408.747 245.924C419.475 270.363 430.203 294.294 440.421 318.733C441.953 321.788 440.421 327.389 438.888 330.444C402.106 407.836 340.802 451.623 255.998 462.316C223.813 466.389 191.118 465.371 159.955 455.697C72.086 429.22 22.0211 368.121 4.65166 279.019C-2.50047 241.85 -1.47874 203.664 8.22772 167.004C30.7058 81.9748 109.379 14.2569 196.737 3.05543C255.998 -4.58193 310.661 4.07374 359.193 41.2422C383.714 60.0811 399.551 85.539 411.301 113.543C446.551 197.554 481.801 281.565 517.05 365.066C518.583 368.631 520.626 372.704 523.181 378.305C525.735 373.722 527.268 371.176 528.8 368.631C570.691 271.381 613.093 174.132 654.984 77.3924C659.071 68.2276 662.647 58.5536 665.202 48.8796C670.31 28.0042 666.223 24.4401 656.517 15.2752C650.897 10.1836 626.376 1.52796 617.691 0.000488281C675.419 0.000488281 716.799 0.000488281 759.712 0.000488281C755.625 2.03712 739.788 5.60122 730.592 13.2386C713.734 26.9858 718.843 23.4217 709.136 38.6965C700.962 52.4437 692.788 69.2459 686.658 84.0115C634.039 202.645 581.93 321.788 529.311 440.931C527.268 445.513 527.268 445.513 520.116 464.861C512.964 446.022 512.964 446.022 510.92 441.44C465.964 334.517 418.453 228.612 377.073 120.162C333.649 8.14701 194.694 -8.65519 117.553 62.6269C75.6621 101.323 53.1839 149.693 47.5644 205.7C41.434 266.799 55.2274 323.825 94.0532 372.704C165.574 463.334 288.693 462.825 359.193 371.176C384.736 338.081 399.551 299.894 404.149 258.143C404.66 254.07 405.171 250.506 406.192 246.433C407.214 246.433 407.725 246.433 408.747 245.924Z" fill="black"/>
</mask>
<g mask="url(#mask0_251_19989)">
<g opacity="0.25">
<circle cx="11.8768" cy="7.72327" r="3.66785" fill="black"/>
<circle cx="31.4393" cy="7.72327" r="3.66785" fill="black"/>
<circle cx="51.0018" cy="7.72327" r="3.66785" fill="black"/>
<circle cx="70.5624" cy="7.72327" r="3.66785" fill="black"/>
<circle cx="90.1249" cy="7.72327" r="3.66785" fill="black"/>
<circle cx="109.687" cy="7.72327" r="3.66785" fill="black"/>
<circle cx="129.25" cy="7.72327" r="3.66785" fill="black"/>
<circle cx="148.81" cy="7.72327" r="3.66785" fill="black"/>
<circle cx="168.373" cy="7.72327" r="3.66785" fill="black"/>
<circle cx="187.933" cy="7.72327" r="3.66785" fill="black"/>
<circle cx="207.496" cy="7.72327" r="3.66785" fill="black"/>
<circle cx="227.058" cy="7.72327" r="3.66785" fill="black"/>
<circle cx="246.619" cy="7.72327" r="3.66785" fill="black"/>
<circle cx="266.183" cy="7.72327" r="3.66785" fill="black"/>
<circle cx="285.744" cy="7.72327" r="3.66785" fill="black"/>
<circle cx="305.307" cy="7.72327" r="3.66785" fill="black"/>
<circle cx="324.867" cy="7.72327" r="3.66785" fill="black"/>
<circle cx="344.43" cy="7.72327" r="3.66785" fill="black"/>
<circle cx="363.992" cy="7.72327" r="3.66785" fill="black"/>
<circle cx="383.553" cy="7.72327" r="3.66785" fill="black"/>
<circle cx="403.115" cy="7.72327" r="3.66785" fill="black"/>
<circle cx="422.676" cy="7.72327" r="3.66785" fill="black"/>
<circle cx="442.24" cy="7.72327" r="3.66785" fill="black"/>
<circle cx="461.801" cy="7.72327" r="3.66785" fill="black"/>
<circle cx="481.363" cy="7.72327" r="3.66785" fill="black"/>
<circle cx="500.924" cy="7.72327" r="3.66785" fill="black"/>
<circle cx="520.486" cy="7.72327" r="3.66785" fill="black"/>
<circle cx="540.049" cy="7.72327" r="3.66785" fill="black"/>
<circle cx="559.609" cy="7.72327" r="3.66785" fill="black"/>
<circle cx="579.172" cy="7.72327" r="3.66785" fill="black"/>
<circle cx="598.734" cy="7.72327" r="3.66785" fill="black"/>
<circle cx="618.297" cy="7.72327" r="3.66785" fill="black"/>
<circle cx="637.857" cy="7.72327" r="3.66785" fill="black"/>
<circle cx="657.42" cy="7.72327" r="3.66785" fill="black"/>
<circle cx="676.982" cy="7.72327" r="3.66785" fill="black"/>
<circle cx="696.543" cy="7.72327" r="3.66785" fill="black"/>
<circle cx="716.105" cy="7.72327" r="3.66785" fill="black"/>
<circle cx="735.668" cy="7.72327" r="3.66785" fill="black"/>
<circle cx="755.228" cy="7.72327" r="3.66785" fill="black"/>
<circle cx="11.8768" cy="27.2848" r="3.66785" fill="black"/>
<circle cx="31.4393" cy="27.2848" r="3.66785" fill="black"/>
<circle cx="51.0018" cy="27.2848" r="3.66785" fill="black"/>
<circle cx="70.5624" cy="27.2848" r="3.66785" fill="black"/>
<circle cx="90.1249" cy="27.2848" r="3.66785" fill="black"/>
<circle cx="109.687" cy="27.2848" r="3.66785" fill="black"/>
<circle cx="129.25" cy="27.2848" r="3.66785" fill="black"/>
<circle cx="148.81" cy="27.2848" r="3.66785" fill="black"/>
<circle cx="168.373" cy="27.2848" r="3.66785" fill="black"/>
<circle cx="187.933" cy="27.2848" r="3.66785" fill="black"/>
<circle cx="207.496" cy="27.2848" r="3.66785" fill="black"/>
<circle cx="227.058" cy="27.2848" r="3.66785" fill="black"/>
<circle cx="246.619" cy="27.2848" r="3.66785" fill="black"/>
<circle cx="266.183" cy="27.2848" r="3.66785" fill="black"/>
<circle cx="285.744" cy="27.2848" r="3.66785" fill="black"/>
<circle cx="305.307" cy="27.2848" r="3.66785" fill="black"/>
<circle cx="324.867" cy="27.2848" r="3.66785" fill="black"/>
<circle cx="344.43" cy="27.2848" r="3.66785" fill="black"/>
<circle cx="363.992" cy="27.2848" r="3.66785" fill="black"/>
<circle cx="383.553" cy="27.2848" r="3.66785" fill="black"/>
<circle cx="403.115" cy="27.2848" r="3.66785" fill="black"/>
<circle cx="422.676" cy="27.2848" r="3.66785" fill="black"/>
<circle cx="442.24" cy="27.2848" r="3.66785" fill="black"/>
<circle cx="461.801" cy="27.2848" r="3.66785" fill="black"/>
<circle cx="481.363" cy="27.2848" r="3.66785" fill="black"/>
<circle cx="500.924" cy="27.2848" r="3.66785" fill="black"/>
<circle cx="520.486" cy="27.2848" r="3.66785" fill="black"/>
<circle cx="540.049" cy="27.2848" r="3.66785" fill="black"/>
<circle cx="559.609" cy="27.2848" r="3.66785" fill="black"/>
<circle cx="579.172" cy="27.2848" r="3.66785" fill="black"/>
<circle cx="598.734" cy="27.2848" r="3.66785" fill="black"/>
<circle cx="618.297" cy="27.2848" r="3.66785" fill="black"/>
<circle cx="637.857" cy="27.2848" r="3.66785" fill="black"/>
<circle cx="657.42" cy="27.2848" r="3.66785" fill="black"/>
<circle cx="676.982" cy="27.2848" r="3.66785" fill="black"/>
<circle cx="696.543" cy="27.2848" r="3.66785" fill="black"/>
<circle cx="716.105" cy="27.2848" r="3.66785" fill="black"/>
<circle cx="735.668" cy="27.2848" r="3.66785" fill="black"/>
<circle cx="755.228" cy="27.2848" r="3.66785" fill="black"/>
<circle cx="11.8768" cy="46.8471" r="3.66785" fill="black"/>
<circle cx="31.4393" cy="46.8471" r="3.66785" fill="black"/>
<circle cx="51.0018" cy="46.8471" r="3.66785" fill="black"/>
<circle cx="70.5624" cy="46.8471" r="3.66785" fill="black"/>
<circle cx="90.1249" cy="46.8471" r="3.66785" fill="black"/>
<circle cx="109.687" cy="46.8471" r="3.66785" fill="black"/>
<circle cx="129.25" cy="46.8471" r="3.66785" fill="black"/>
<circle cx="148.81" cy="46.8471" r="3.66785" fill="black"/>
<circle cx="168.373" cy="46.8471" r="3.66785" fill="black"/>
<circle cx="187.933" cy="46.8471" r="3.66785" fill="black"/>
<circle cx="207.496" cy="46.8471" r="3.66785" fill="black"/>
<circle cx="227.058" cy="46.8471" r="3.66785" fill="black"/>
<circle cx="246.619" cy="46.8471" r="3.66785" fill="black"/>
<circle cx="266.183" cy="46.8471" r="3.66785" fill="black"/>
<circle cx="285.744" cy="46.8471" r="3.66785" fill="black"/>
<circle cx="305.307" cy="46.8471" r="3.66785" fill="black"/>
<circle cx="324.867" cy="46.8471" r="3.66785" fill="black"/>
<circle cx="344.43" cy="46.8471" r="3.66785" fill="black"/>
<circle cx="363.992" cy="46.8471" r="3.66785" fill="black"/>
<circle cx="383.553" cy="46.8471" r="3.66785" fill="black"/>
<circle cx="403.115" cy="46.8471" r="3.66785" fill="black"/>
<circle cx="422.676" cy="46.8471" r="3.66785" fill="black"/>
<circle cx="442.24" cy="46.8471" r="3.66785" fill="black"/>
<circle cx="461.801" cy="46.8471" r="3.66785" fill="black"/>
<circle cx="481.363" cy="46.8471" r="3.66785" fill="black"/>
<circle cx="500.924" cy="46.8471" r="3.66785" fill="black"/>
<circle cx="520.486" cy="46.8471" r="3.66785" fill="black"/>
<circle cx="540.049" cy="46.8471" r="3.66785" fill="black"/>
<circle cx="559.609" cy="46.8471" r="3.66785" fill="black"/>
<circle cx="579.172" cy="46.8471" r="3.66785" fill="black"/>
<circle cx="598.734" cy="46.8471" r="3.66785" fill="black"/>
<circle cx="618.297" cy="46.8471" r="3.66785" fill="black"/>
<circle cx="637.857" cy="46.8471" r="3.66785" fill="black"/>
<circle cx="657.42" cy="46.8471" r="3.66785" fill="black"/>
<circle cx="676.982" cy="46.8471" r="3.66785" fill="black"/>
<circle cx="696.543" cy="46.8471" r="3.66785" fill="black"/>
<circle cx="716.105" cy="46.8471" r="3.66785" fill="black"/>
<circle opacity="0.5" cx="735.668" cy="46.8471" r="3.66785" fill="black"/>
<circle opacity="0.5" cx="755.228" cy="46.8471" r="3.66785" fill="black"/>
<circle cx="11.8768" cy="66.4086" r="3.66785" fill="black"/>
<circle cx="31.4393" cy="66.4086" r="3.66785" fill="black"/>
<circle cx="51.0018" cy="66.4086" r="3.66785" fill="black"/>
<circle cx="70.5624" cy="66.4086" r="3.66785" fill="black"/>
<circle cx="90.1249" cy="66.4086" r="3.66785" fill="black"/>
<circle cx="109.687" cy="66.4086" r="3.66785" fill="black"/>
<circle cx="129.25" cy="66.4086" r="3.66785" fill="black"/>
<circle cx="148.81" cy="66.4086" r="3.66785" fill="black"/>
<circle cx="168.373" cy="66.4086" r="3.66785" fill="black"/>
<circle cx="187.933" cy="66.4086" r="3.66785" fill="black"/>
<circle cx="207.496" cy="66.4086" r="3.66785" fill="black"/>
<circle cx="227.058" cy="66.4086" r="3.66785" fill="black"/>
<circle cx="246.619" cy="66.4086" r="3.66785" fill="black"/>
<circle cx="266.183" cy="66.4086" r="3.66785" fill="black"/>
<circle cx="285.744" cy="66.4086" r="3.66785" fill="black"/>
<circle cx="305.307" cy="66.4086" r="3.66785" fill="black"/>
<circle cx="324.867" cy="66.4086" r="3.66785" fill="black"/>
<circle cx="344.43" cy="66.4086" r="3.66785" fill="black"/>
<circle cx="363.992" cy="66.4086" r="3.66785" fill="black"/>
<circle cx="383.553" cy="66.4086" r="3.66785" fill="black"/>
<circle cx="403.115" cy="66.4086" r="3.66785" fill="black"/>
<circle cx="422.676" cy="66.4086" r="3.66785" fill="black"/>
<circle cx="442.24" cy="66.4086" r="3.66785" fill="black"/>
<circle cx="461.801" cy="66.4086" r="3.66785" fill="black"/>
<circle cx="481.363" cy="66.4086" r="3.66785" fill="black"/>
<circle cx="500.924" cy="66.4086" r="3.66785" fill="black"/>
<circle cx="520.486" cy="66.4086" r="3.66785" fill="black"/>
<circle cx="540.049" cy="66.4086" r="3.66785" fill="black"/>
<circle cx="559.609" cy="66.4086" r="3.66785" fill="black"/>
<circle cx="579.172" cy="66.4086" r="3.66785" fill="black"/>
<circle cx="598.734" cy="66.4086" r="3.66785" fill="black"/>
<circle cx="618.297" cy="66.4086" r="3.66785" fill="black"/>
<circle cx="637.857" cy="66.4086" r="3.66785" fill="black"/>
<circle cx="657.42" cy="66.4086" r="3.66785" fill="black"/>
<circle cx="676.982" cy="66.4086" r="3.66785" fill="black"/>
<circle cx="696.543" cy="66.4086" r="3.66785" fill="black"/>
<circle cx="716.105" cy="66.4086" r="3.66785" fill="black"/>
<circle cx="735.668" cy="66.4086" r="3.66785" fill="black"/>
<circle cx="755.228" cy="66.4086" r="3.66785" fill="black"/>
<circle cx="11.8768" cy="85.9701" r="3.66785" fill="black"/>
<circle cx="31.4393" cy="85.9701" r="3.66785" fill="black"/>
<circle cx="51.0018" cy="85.9701" r="3.66785" fill="black"/>
<circle cx="70.5624" cy="85.9701" r="3.66785" fill="black"/>
<circle cx="90.1249" cy="85.9701" r="3.66785" fill="black"/>
<circle cx="109.687" cy="85.9701" r="3.66785" fill="black"/>
<circle cx="129.25" cy="85.9701" r="3.66785" fill="black"/>
<circle cx="148.81" cy="85.9701" r="3.66785" fill="black"/>
<circle cx="168.373" cy="85.9701" r="3.66785" fill="black"/>
<circle cx="187.933" cy="85.9701" r="3.66785" fill="black"/>
<circle cx="207.496" cy="85.9701" r="3.66785" fill="black"/>
<circle cx="227.058" cy="85.9701" r="3.66785" fill="black"/>
<circle cx="246.619" cy="85.9701" r="3.66785" fill="black"/>
<circle cx="266.183" cy="85.9701" r="3.66785" fill="black"/>
<circle cx="285.744" cy="85.9701" r="3.66785" fill="black"/>
<circle cx="305.307" cy="85.9701" r="3.66785" fill="black"/>
<circle cx="324.867" cy="85.9701" r="3.66785" fill="black"/>
<circle cx="344.43" cy="85.9701" r="3.66785" fill="black"/>
<circle cx="363.992" cy="85.9701" r="3.66785" fill="black"/>
<circle cx="383.553" cy="85.9701" r="3.66785" fill="black"/>
<circle cx="403.115" cy="85.9701" r="3.66785" fill="black"/>
<circle cx="422.676" cy="85.9701" r="3.66785" fill="black"/>
<circle cx="442.24" cy="85.9701" r="3.66785" fill="black"/>
<circle cx="461.801" cy="85.9701" r="3.66785" fill="black"/>
<circle cx="481.363" cy="85.9701" r="3.66785" fill="black"/>
<circle cx="500.924" cy="85.9701" r="3.66785" fill="black"/>
<circle cx="520.486" cy="85.9701" r="3.66785" fill="black"/>
<circle cx="540.049" cy="85.9701" r="3.66785" fill="black"/>
<circle cx="559.609" cy="85.9701" r="3.66785" fill="black"/>
<circle cx="579.172" cy="85.9701" r="3.66785" fill="black"/>
<circle cx="598.734" cy="85.9701" r="3.66785" fill="black"/>
<circle cx="618.297" cy="85.9701" r="3.66785" fill="black"/>
<circle cx="637.857" cy="85.9701" r="3.66785" fill="black"/>
<circle cx="657.42" cy="85.9701" r="3.66785" fill="black"/>
<circle cx="676.982" cy="85.9701" r="3.66785" fill="black"/>
<circle cx="696.543" cy="85.9701" r="3.66785" fill="black"/>
<circle cx="716.105" cy="85.9701" r="3.66785" fill="black"/>
<circle cx="735.668" cy="85.9701" r="3.66785" fill="black"/>
<circle cx="755.228" cy="85.9701" r="3.66785" fill="black"/>
<circle cx="11.8768" cy="105.533" r="3.66785" fill="black"/>
<circle cx="31.4393" cy="105.533" r="3.66785" fill="black"/>
<circle cx="51.0018" cy="105.533" r="3.66785" fill="black"/>
<circle cx="70.5624" cy="105.533" r="3.66785" fill="black"/>
<circle cx="90.1249" cy="105.533" r="3.66785" fill="black"/>
<circle cx="109.687" cy="105.533" r="3.66785" fill="black"/>
<circle cx="129.25" cy="105.533" r="3.66785" fill="black"/>
<circle cx="148.81" cy="105.533" r="3.66785" fill="black"/>
<circle cx="168.373" cy="105.533" r="3.66785" fill="black"/>
<circle cx="187.933" cy="105.533" r="3.66785" fill="black"/>
<circle cx="207.496" cy="105.533" r="3.66785" fill="black"/>
<circle cx="227.058" cy="105.533" r="3.66785" fill="black"/>
<circle cx="246.619" cy="105.533" r="3.66785" fill="black"/>
<circle cx="266.183" cy="105.533" r="3.66785" fill="black"/>
<circle cx="285.744" cy="105.533" r="3.66785" fill="black"/>
<circle cx="305.307" cy="105.533" r="3.66785" fill="black"/>
<circle cx="324.867" cy="105.533" r="3.66785" fill="black"/>
<circle cx="344.43" cy="105.533" r="3.66785" fill="black"/>
<circle cx="363.992" cy="105.533" r="3.66785" fill="black"/>
<circle cx="383.553" cy="105.533" r="3.66785" fill="black"/>
<circle cx="403.115" cy="105.533" r="3.66785" fill="black"/>
<circle cx="422.676" cy="105.533" r="3.66785" fill="black"/>
<circle cx="442.24" cy="105.533" r="3.66785" fill="black"/>
<circle cx="461.801" cy="105.533" r="3.66785" fill="black"/>
<circle cx="481.363" cy="105.533" r="3.66785" fill="black"/>
<circle cx="500.924" cy="105.533" r="3.66785" fill="black"/>
<circle cx="520.486" cy="105.533" r="3.66785" fill="black"/>
<circle cx="540.049" cy="105.533" r="3.66785" fill="black"/>
<circle cx="559.609" cy="105.533" r="3.66785" fill="black"/>
<circle cx="579.172" cy="105.533" r="3.66785" fill="black"/>
<circle cx="598.734" cy="105.533" r="3.66785" fill="black"/>
<circle cx="618.297" cy="105.533" r="3.66785" fill="black"/>
<circle cx="637.857" cy="105.533" r="3.66785" fill="black"/>
<circle cx="657.42" cy="105.533" r="3.66785" fill="black"/>
<circle cx="676.982" cy="105.533" r="3.66785" fill="black"/>
<circle cx="696.543" cy="105.533" r="3.66785" fill="black"/>
<circle cx="716.105" cy="105.533" r="3.66785" fill="black"/>
<circle cx="735.668" cy="105.533" r="3.66785" fill="black"/>
<circle cx="755.228" cy="105.533" r="3.66785" fill="black"/>
<circle cx="11.8768" cy="125.095" r="3.66785" fill="black"/>
<circle cx="31.4393" cy="125.095" r="3.66785" fill="black"/>
<circle cx="51.0018" cy="125.095" r="3.66785" fill="black"/>
<circle cx="70.5624" cy="125.095" r="3.66785" fill="black"/>
<circle cx="90.1249" cy="125.095" r="3.66785" fill="black"/>
<circle cx="109.687" cy="125.095" r="3.66785" fill="black"/>
<circle cx="129.25" cy="125.095" r="3.66785" fill="black"/>
<circle cx="148.81" cy="125.095" r="3.66785" fill="black"/>
<circle cx="168.373" cy="125.095" r="3.66785" fill="black"/>
<circle cx="187.933" cy="125.095" r="3.66785" fill="black"/>
<circle cx="207.496" cy="125.095" r="3.66785" fill="black"/>
<circle cx="227.058" cy="125.095" r="3.66785" fill="black"/>
<circle cx="246.619" cy="125.095" r="3.66785" fill="black"/>
<circle cx="266.183" cy="125.095" r="3.66785" fill="black"/>
<circle cx="285.744" cy="125.095" r="3.66785" fill="black"/>
<circle cx="305.307" cy="125.095" r="3.66785" fill="black"/>
<circle cx="324.867" cy="125.095" r="3.66785" fill="black"/>
<circle cx="344.43" cy="125.095" r="3.66785" fill="black"/>
<circle cx="363.992" cy="125.095" r="3.66785" fill="black"/>
<circle cx="383.553" cy="125.095" r="3.66785" fill="black"/>
<circle cx="403.115" cy="125.095" r="3.66785" fill="black"/>
<circle cx="422.676" cy="125.095" r="3.66785" fill="black"/>
<circle cx="442.24" cy="125.095" r="3.66785" fill="black"/>
<circle cx="461.801" cy="125.095" r="3.66785" fill="black"/>
<circle cx="481.363" cy="125.095" r="3.66785" fill="black"/>
<circle cx="500.924" cy="125.095" r="3.66785" fill="black"/>
<circle cx="520.486" cy="125.095" r="3.66785" fill="black"/>
<circle cx="540.049" cy="125.095" r="3.66785" fill="black"/>
<circle cx="559.609" cy="125.095" r="3.66785" fill="black"/>
<circle cx="579.172" cy="125.095" r="3.66785" fill="black"/>
<circle cx="598.734" cy="125.095" r="3.66785" fill="black"/>
<circle cx="618.297" cy="125.095" r="3.66785" fill="black"/>
<circle cx="637.857" cy="125.095" r="3.66785" fill="black"/>
<circle cx="657.42" cy="125.095" r="3.66785" fill="black"/>
<circle cx="676.982" cy="125.095" r="3.66785" fill="black"/>
<circle cx="696.543" cy="125.095" r="3.66785" fill="black"/>
<circle cx="716.105" cy="125.095" r="3.66785" fill="black"/>
<circle cx="735.668" cy="125.095" r="3.66785" fill="black"/>
<circle cx="755.228" cy="125.095" r="3.66785" fill="black"/>
<circle cx="11.8768" cy="144.657" r="3.66785" fill="black"/>
<circle cx="31.4393" cy="144.657" r="3.66785" fill="black"/>
<circle cx="51.0018" cy="144.657" r="3.66785" fill="black"/>
<circle cx="70.5624" cy="144.657" r="3.66785" fill="black"/>
<circle cx="90.1249" cy="144.657" r="3.66785" fill="black"/>
<circle cx="109.687" cy="144.657" r="3.66785" fill="black"/>
<circle cx="129.25" cy="144.657" r="3.66785" fill="black"/>
<circle cx="148.81" cy="144.657" r="3.66785" fill="black"/>
<circle cx="168.373" cy="144.657" r="3.66785" fill="black"/>
<circle cx="187.933" cy="144.657" r="3.66785" fill="black"/>
<circle cx="207.496" cy="144.657" r="3.66785" fill="black"/>
<circle cx="227.058" cy="144.657" r="3.66785" fill="black"/>
<circle cx="246.619" cy="144.657" r="3.66785" fill="black"/>
<circle cx="266.183" cy="144.657" r="3.66785" fill="black"/>
<circle cx="285.744" cy="144.657" r="3.66785" fill="black"/>
<circle cx="305.307" cy="144.657" r="3.66785" fill="black"/>
<circle cx="324.867" cy="144.657" r="3.66785" fill="black"/>
<circle cx="344.43" cy="144.657" r="3.66785" fill="black"/>
<circle cx="363.992" cy="144.657" r="3.66785" fill="black"/>
<circle cx="383.553" cy="144.657" r="3.66785" fill="black"/>
<circle cx="403.115" cy="144.657" r="3.66785" fill="black"/>
<circle cx="422.676" cy="144.657" r="3.66785" fill="black"/>
<circle cx="442.24" cy="144.657" r="3.66785" fill="black"/>
<circle cx="461.801" cy="144.657" r="3.66785" fill="black"/>
<circle cx="481.363" cy="144.657" r="3.66785" fill="black"/>
<circle cx="500.924" cy="144.657" r="3.66785" fill="black"/>
<circle cx="520.486" cy="144.657" r="3.66785" fill="black"/>
<circle cx="540.049" cy="144.657" r="3.66785" fill="black"/>
<circle cx="559.609" cy="144.657" r="3.66785" fill="black"/>
<circle cx="579.172" cy="144.657" r="3.66785" fill="black"/>
<circle cx="598.734" cy="144.657" r="3.66785" fill="black"/>
<circle cx="618.297" cy="144.657" r="3.66785" fill="black"/>
<circle cx="637.857" cy="144.657" r="3.66785" fill="black"/>
<circle cx="657.42" cy="144.657" r="3.66785" fill="black"/>
<circle cx="676.982" cy="144.657" r="3.66785" fill="black"/>
<circle cx="696.543" cy="144.657" r="3.66785" fill="black"/>
<circle cx="716.105" cy="144.657" r="3.66785" fill="black"/>
<circle cx="735.668" cy="144.657" r="3.66785" fill="black"/>
<circle cx="755.228" cy="144.657" r="3.66785" fill="black"/>
<circle cx="11.8768" cy="164.218" r="3.66785" fill="black"/>
<circle cx="31.4393" cy="164.218" r="3.66785" fill="black"/>
<circle cx="51.0018" cy="164.218" r="3.66785" fill="black"/>
<circle cx="70.5624" cy="164.218" r="3.66785" fill="black"/>
<circle cx="90.1249" cy="164.218" r="3.66785" fill="black"/>
<circle cx="109.687" cy="164.218" r="3.66785" fill="black"/>
<circle cx="129.25" cy="164.218" r="3.66785" fill="black"/>
<circle cx="148.81" cy="164.218" r="3.66785" fill="black"/>
<circle cx="168.373" cy="164.218" r="3.66785" fill="black"/>
<circle cx="187.933" cy="164.218" r="3.66785" fill="black"/>
<circle cx="207.496" cy="164.218" r="3.66785" fill="black"/>
<circle cx="227.058" cy="164.218" r="3.66785" fill="black"/>
<circle cx="246.619" cy="164.218" r="3.66785" fill="black"/>
<circle cx="266.183" cy="164.218" r="3.66785" fill="black"/>
<circle cx="285.744" cy="164.218" r="3.66785" fill="black"/>
<circle cx="305.307" cy="164.218" r="3.66785" fill="black"/>
<circle cx="324.867" cy="164.218" r="3.66785" fill="black"/>
<circle cx="344.43" cy="164.218" r="3.66785" fill="black"/>
<circle cx="363.992" cy="164.218" r="3.66785" fill="black"/>
<circle cx="383.553" cy="164.218" r="3.66785" fill="black"/>
<circle cx="403.115" cy="164.218" r="3.66785" fill="black"/>
<circle cx="422.676" cy="164.218" r="3.66785" fill="black"/>
<circle cx="442.24" cy="164.218" r="3.66785" fill="black"/>
<circle cx="461.801" cy="164.218" r="3.66785" fill="black"/>
<circle cx="481.363" cy="164.218" r="3.66785" fill="black"/>
<circle cx="500.924" cy="164.218" r="3.66785" fill="black"/>
<circle cx="520.486" cy="164.218" r="3.66785" fill="black"/>
<circle cx="540.049" cy="164.218" r="3.66785" fill="black"/>
<circle cx="559.609" cy="164.218" r="3.66785" fill="black"/>
<circle cx="579.172" cy="164.218" r="3.66785" fill="black"/>
<circle cx="598.734" cy="164.218" r="3.66785" fill="black"/>
<circle cx="618.297" cy="164.218" r="3.66785" fill="black"/>
<circle cx="637.857" cy="164.218" r="3.66785" fill="black"/>
<circle cx="657.42" cy="164.218" r="3.66785" fill="black"/>
<circle cx="676.982" cy="164.218" r="3.66785" fill="black"/>
<circle cx="696.543" cy="164.218" r="3.66785" fill="black"/>
<circle cx="716.105" cy="164.218" r="3.66785" fill="black"/>
<circle opacity="0.5" cx="735.668" cy="164.218" r="3.66785" fill="black"/>
<circle opacity="0.5" cx="755.228" cy="164.218" r="3.66785" fill="black"/>
<circle cx="11.8768" cy="183.781" r="3.66785" fill="black"/>
<circle cx="31.4393" cy="183.781" r="3.66785" fill="black"/>
<circle cx="51.0018" cy="183.781" r="3.66785" fill="black"/>
<circle cx="70.5624" cy="183.781" r="3.66785" fill="black"/>
<circle cx="90.1249" cy="183.781" r="3.66785" fill="black"/>
<circle cx="109.687" cy="183.781" r="3.66785" fill="black"/>
<circle cx="129.25" cy="183.781" r="3.66785" fill="black"/>
<circle cx="148.81" cy="183.781" r="3.66785" fill="black"/>
<circle cx="168.373" cy="183.781" r="3.66785" fill="black"/>
<circle cx="187.933" cy="183.781" r="3.66785" fill="black"/>
<circle cx="207.496" cy="183.781" r="3.66785" fill="black"/>
<circle cx="227.058" cy="183.781" r="3.66785" fill="black"/>
<circle cx="246.619" cy="183.781" r="3.66785" fill="black"/>
<circle cx="266.183" cy="183.781" r="3.66785" fill="black"/>
<circle cx="285.744" cy="183.781" r="3.66785" fill="black"/>
<circle cx="305.307" cy="183.781" r="3.66785" fill="black"/>
<circle cx="324.867" cy="183.781" r="3.66785" fill="black"/>
<circle cx="344.43" cy="183.781" r="3.66785" fill="black"/>
<circle cx="363.992" cy="183.781" r="3.66785" fill="black"/>
<circle cx="383.553" cy="183.781" r="3.66785" fill="black"/>
<circle cx="403.115" cy="183.781" r="3.66785" fill="black"/>
<circle cx="422.676" cy="183.781" r="3.66785" fill="black"/>
<circle cx="442.24" cy="183.781" r="3.66785" fill="black"/>
<circle cx="461.801" cy="183.781" r="3.66785" fill="black"/>
<circle cx="481.363" cy="183.781" r="3.66785" fill="black"/>
<circle cx="500.924" cy="183.781" r="3.66785" fill="black"/>
<circle cx="520.486" cy="183.781" r="3.66785" fill="black"/>
<circle cx="540.049" cy="183.781" r="3.66785" fill="black"/>
<circle cx="559.609" cy="183.781" r="3.66785" fill="black"/>
<circle cx="579.172" cy="183.781" r="3.66785" fill="black"/>
<circle cx="598.734" cy="183.781" r="3.66785" fill="black"/>
<circle cx="618.297" cy="183.781" r="3.66785" fill="black"/>
<circle cx="637.857" cy="183.781" r="3.66785" fill="black"/>
<circle cx="657.42" cy="183.781" r="3.66785" fill="black"/>
<circle cx="676.982" cy="183.781" r="3.66785" fill="black"/>
<circle cx="696.543" cy="183.781" r="3.66785" fill="black"/>
<circle cx="716.105" cy="183.781" r="3.66785" fill="black"/>
<circle opacity="0.5" cx="735.668" cy="183.781" r="3.66785" fill="black"/>
<circle cx="755.228" cy="183.781" r="3.66785" fill="black"/>
<circle cx="11.8768" cy="203.342" r="3.66785" fill="black"/>
<circle cx="31.4393" cy="203.342" r="3.66785" fill="black"/>
<circle cx="51.0018" cy="203.342" r="3.66785" fill="black"/>
<circle cx="70.5624" cy="203.342" r="3.66785" fill="black"/>
<circle cx="90.1249" cy="203.342" r="3.66785" fill="black"/>
<circle cx="109.687" cy="203.342" r="3.66785" fill="black"/>
<circle cx="129.25" cy="203.342" r="3.66785" fill="black"/>
<circle cx="148.81" cy="203.342" r="3.66785" fill="black"/>
<circle cx="168.373" cy="203.342" r="3.66785" fill="black"/>
<circle cx="187.933" cy="203.342" r="3.66785" fill="black"/>
<circle cx="207.496" cy="203.342" r="3.66785" fill="black"/>
<circle cx="227.058" cy="203.342" r="3.66785" fill="black"/>
<circle cx="246.619" cy="203.342" r="3.66785" fill="black"/>
<circle cx="266.183" cy="203.342" r="3.66785" fill="black"/>
<circle cx="285.744" cy="203.342" r="3.66785" fill="black"/>
<circle cx="305.307" cy="203.342" r="3.66785" fill="black"/>
<circle cx="324.867" cy="203.342" r="3.66785" fill="black"/>
<circle cx="344.43" cy="203.342" r="3.66785" fill="black"/>
<circle cx="363.992" cy="203.342" r="3.66785" fill="black"/>
<circle cx="383.553" cy="203.342" r="3.66785" fill="black"/>
<circle cx="403.115" cy="203.342" r="3.66785" fill="black"/>
<circle cx="422.676" cy="203.342" r="3.66785" fill="black"/>
<circle cx="442.24" cy="203.342" r="3.66785" fill="black"/>
<circle cx="461.801" cy="203.342" r="3.66785" fill="black"/>
<circle cx="481.363" cy="203.342" r="3.66785" fill="black"/>
<circle cx="500.924" cy="203.342" r="3.66785" fill="black"/>
<circle cx="520.486" cy="203.342" r="3.66785" fill="black"/>
<circle cx="540.049" cy="203.342" r="3.66785" fill="black"/>
<circle cx="559.609" cy="203.342" r="3.66785" fill="black"/>
<circle cx="579.172" cy="203.342" r="3.66785" fill="black"/>
<circle cx="598.734" cy="203.342" r="3.66785" fill="black"/>
<circle cx="618.297" cy="203.342" r="3.66785" fill="black"/>
<circle cx="637.857" cy="203.342" r="3.66785" fill="black"/>
<circle cx="657.42" cy="203.342" r="3.66785" fill="black"/>
<circle cx="676.982" cy="203.342" r="3.66785" fill="black"/>
<circle cx="696.543" cy="203.342" r="3.66785" fill="black"/>
<circle cx="716.105" cy="203.342" r="3.66785" fill="black"/>
<circle cx="735.668" cy="203.342" r="3.66785" fill="black"/>
<circle opacity="0.5" cx="755.228" cy="203.342" r="3.66785" fill="black"/>
<circle cx="11.8768" cy="222.904" r="3.66785" fill="black"/>
<circle cx="31.4393" cy="222.904" r="3.66785" fill="black"/>
<circle cx="51.0018" cy="222.904" r="3.66785" fill="black"/>
<circle cx="70.5624" cy="222.904" r="3.66785" fill="black"/>
<circle cx="90.1249" cy="222.904" r="3.66785" fill="black"/>
<circle cx="109.687" cy="222.904" r="3.66785" fill="black"/>
<circle cx="129.25" cy="222.904" r="3.66785" fill="black"/>
<circle cx="148.81" cy="222.904" r="3.66785" fill="black"/>
<circle cx="168.373" cy="222.904" r="3.66785" fill="black"/>
<circle cx="187.933" cy="222.904" r="3.66785" fill="black"/>
<circle cx="207.496" cy="222.904" r="3.66785" fill="black"/>
<circle cx="227.058" cy="222.904" r="3.66785" fill="black"/>
<circle cx="246.619" cy="222.904" r="3.66785" fill="black"/>
<circle cx="266.183" cy="222.904" r="3.66785" fill="black"/>
<circle cx="285.744" cy="222.904" r="3.66785" fill="black"/>
<circle cx="305.307" cy="222.904" r="3.66785" fill="black"/>
<circle cx="324.867" cy="222.904" r="3.66785" fill="black"/>
<circle cx="344.43" cy="222.904" r="3.66785" fill="black"/>
<circle cx="363.992" cy="222.904" r="3.66785" fill="black"/>
<circle cx="383.553" cy="222.904" r="3.66785" fill="black"/>
<circle cx="403.115" cy="222.904" r="3.66785" fill="black"/>
<circle cx="422.676" cy="222.904" r="3.66785" fill="black"/>
<circle cx="442.24" cy="222.904" r="3.66785" fill="black"/>
<circle cx="461.801" cy="222.904" r="3.66785" fill="black"/>
<circle cx="481.363" cy="222.904" r="3.66785" fill="black"/>
<circle cx="500.924" cy="222.904" r="3.66785" fill="black"/>
<circle cx="520.486" cy="222.904" r="3.66785" fill="black"/>
<circle cx="540.049" cy="222.904" r="3.66785" fill="black"/>
<circle cx="559.609" cy="222.904" r="3.66785" fill="black"/>
<circle cx="579.172" cy="222.904" r="3.66785" fill="black"/>
<circle cx="598.734" cy="222.904" r="3.66785" fill="black"/>
<circle cx="618.297" cy="222.904" r="3.66785" fill="black"/>
<circle cx="637.857" cy="222.904" r="3.66785" fill="black"/>
<circle cx="657.42" cy="222.904" r="3.66785" fill="black"/>
<circle cx="676.982" cy="222.904" r="3.66785" fill="black"/>
<circle cx="696.543" cy="222.904" r="3.66785" fill="black"/>
<circle cx="716.105" cy="222.904" r="3.66785" fill="black"/>
<circle cx="735.668" cy="222.904" r="3.66785" fill="black"/>
<circle cx="755.228" cy="222.904" r="3.66785" fill="black"/>
<circle cx="11.8768" cy="242.466" r="3.66785" fill="black"/>
<circle cx="31.4393" cy="242.466" r="3.66785" fill="black"/>
<circle cx="51.0018" cy="242.466" r="3.66785" fill="black"/>
<circle cx="70.5624" cy="242.466" r="3.66785" fill="black"/>
<circle cx="90.1249" cy="242.466" r="3.66785" fill="black"/>
<circle cx="109.687" cy="242.466" r="3.66785" fill="black"/>
<circle cx="129.25" cy="242.466" r="3.66785" fill="black"/>
<circle cx="148.81" cy="242.466" r="3.66785" fill="black"/>
<circle cx="168.373" cy="242.466" r="3.66785" fill="black"/>
<circle cx="187.933" cy="242.466" r="3.66785" fill="black"/>
<circle cx="207.496" cy="242.466" r="3.66785" fill="black"/>
<circle cx="227.058" cy="242.466" r="3.66785" fill="black"/>
<circle cx="246.619" cy="242.466" r="3.66785" fill="black"/>
<circle cx="266.183" cy="242.466" r="3.66785" fill="black"/>
<circle cx="285.744" cy="242.466" r="3.66785" fill="black"/>
<circle cx="305.307" cy="242.466" r="3.66785" fill="black"/>
<circle cx="324.867" cy="242.466" r="3.66785" fill="black"/>
<circle cx="344.43" cy="242.466" r="3.66785" fill="black"/>
<circle cx="363.992" cy="242.466" r="3.66785" fill="black"/>
<circle cx="383.553" cy="242.466" r="3.66785" fill="black"/>
<circle cx="403.115" cy="242.466" r="3.66785" fill="black"/>
<circle cx="422.676" cy="242.466" r="3.66785" fill="black"/>
<circle cx="442.24" cy="242.466" r="3.66785" fill="black"/>
<circle cx="461.801" cy="242.466" r="3.66785" fill="black"/>
<circle cx="481.363" cy="242.466" r="3.66785" fill="black"/>
<circle cx="500.924" cy="242.466" r="3.66785" fill="black"/>
<circle cx="520.486" cy="242.466" r="3.66785" fill="black"/>
<circle cx="540.049" cy="242.466" r="3.66785" fill="black"/>
<circle cx="559.609" cy="242.466" r="3.66785" fill="black"/>
<circle cx="579.172" cy="242.466" r="3.66785" fill="black"/>
<circle cx="598.734" cy="242.466" r="3.66785" fill="black"/>
<circle cx="618.297" cy="242.466" r="3.66785" fill="black"/>
<circle cx="637.857" cy="242.466" r="3.66785" fill="black"/>
<circle cx="657.42" cy="242.466" r="3.66785" fill="black"/>
<circle cx="676.982" cy="242.466" r="3.66785" fill="black"/>
<circle cx="696.543" cy="242.466" r="3.66785" fill="black"/>
<circle cx="716.105" cy="242.466" r="3.66785" fill="black"/>
<circle cx="735.668" cy="242.466" r="3.66785" fill="black"/>
<circle cx="755.228" cy="242.466" r="3.66785" fill="black"/>
<circle cx="11.8768" cy="262.028" r="3.66785" fill="black"/>
<circle cx="31.4393" cy="262.028" r="3.66785" fill="black"/>
<circle cx="51.0018" cy="262.028" r="3.66785" fill="black"/>
<circle cx="70.5624" cy="262.028" r="3.66785" fill="black"/>
<circle cx="90.1249" cy="262.028" r="3.66785" fill="black"/>
<circle cx="109.687" cy="262.028" r="3.66785" fill="black"/>
<circle cx="129.25" cy="262.028" r="3.66785" fill="black"/>
<circle cx="148.81" cy="262.028" r="3.66785" fill="black"/>
<circle cx="168.373" cy="262.028" r="3.66785" fill="black"/>
<circle cx="187.933" cy="262.028" r="3.66785" fill="black"/>
<circle cx="207.496" cy="262.028" r="3.66785" fill="black"/>
<circle cx="227.058" cy="262.028" r="3.66785" fill="black"/>
<circle cx="246.619" cy="262.028" r="3.66785" fill="black"/>
<circle cx="266.183" cy="262.028" r="3.66785" fill="black"/>
<circle cx="285.744" cy="262.028" r="3.66785" fill="black"/>
<circle cx="305.307" cy="262.028" r="3.66785" fill="black"/>
<circle cx="324.867" cy="262.028" r="3.66785" fill="black"/>
<circle cx="344.43" cy="262.028" r="3.66785" fill="black"/>
<circle cx="363.992" cy="262.028" r="3.66785" fill="black"/>
<circle cx="383.553" cy="262.028" r="3.66785" fill="black"/>
<circle cx="403.115" cy="262.028" r="3.66785" fill="black"/>
<circle cx="422.676" cy="262.028" r="3.66785" fill="black"/>
<circle cx="442.24" cy="262.028" r="3.66785" fill="black"/>
<circle cx="461.801" cy="262.028" r="3.66785" fill="black"/>
<circle cx="481.363" cy="262.028" r="3.66785" fill="black"/>
<circle cx="500.924" cy="262.028" r="3.66785" fill="black"/>
<circle cx="520.486" cy="262.028" r="3.66785" fill="black"/>
<circle cx="540.049" cy="262.028" r="3.66785" fill="black"/>
<circle cx="559.609" cy="262.028" r="3.66785" fill="black"/>
<circle cx="579.172" cy="262.028" r="3.66785" fill="black"/>
<circle cx="598.734" cy="262.028" r="3.66785" fill="black"/>
<circle cx="618.297" cy="262.028" r="3.66785" fill="black"/>
<circle cx="637.857" cy="262.028" r="3.66785" fill="black"/>
<circle cx="657.42" cy="262.028" r="3.66785" fill="black"/>
<circle cx="676.982" cy="262.028" r="3.66785" fill="black"/>
<circle cx="696.543" cy="262.028" r="3.66785" fill="black"/>
<circle cx="716.105" cy="262.028" r="3.66785" fill="black"/>
<circle cx="735.668" cy="262.028" r="3.66785" fill="black"/>
<circle opacity="0.5" cx="755.228" cy="262.028" r="3.66785" fill="black"/>
<circle cx="11.8768" cy="281.591" r="3.66785" fill="black"/>
<circle cx="31.4393" cy="281.591" r="3.66785" fill="black"/>
<circle cx="51.0018" cy="281.591" r="3.66785" fill="black"/>
<circle cx="70.5624" cy="281.591" r="3.66785" fill="black"/>
<circle cx="90.1249" cy="281.591" r="3.66785" fill="black"/>
<circle cx="109.687" cy="281.591" r="3.66785" fill="black"/>
<circle cx="129.25" cy="281.591" r="3.66785" fill="black"/>
<circle cx="148.81" cy="281.591" r="3.66785" fill="black"/>
<circle cx="168.373" cy="281.591" r="3.66785" fill="black"/>
<circle cx="187.933" cy="281.591" r="3.66785" fill="black"/>
<circle cx="207.496" cy="281.591" r="3.66785" fill="black"/>
<circle cx="227.058" cy="281.591" r="3.66785" fill="black"/>
<circle cx="246.619" cy="281.591" r="3.66785" fill="black"/>
<circle cx="266.183" cy="281.591" r="3.66785" fill="black"/>
<circle cx="285.744" cy="281.591" r="3.66785" fill="black"/>
<circle cx="305.307" cy="281.591" r="3.66785" fill="black"/>
<circle cx="324.867" cy="281.591" r="3.66785" fill="black"/>
<circle cx="344.43" cy="281.591" r="3.66785" fill="black"/>
<circle cx="363.992" cy="281.591" r="3.66785" fill="black"/>
<circle cx="383.553" cy="281.591" r="3.66785" fill="black"/>
<circle cx="403.115" cy="281.591" r="3.66785" fill="black"/>
<circle cx="422.676" cy="281.591" r="3.66785" fill="black"/>
<circle cx="442.24" cy="281.591" r="3.66785" fill="black"/>
<circle cx="461.801" cy="281.591" r="3.66785" fill="black"/>
<circle cx="481.363" cy="281.591" r="3.66785" fill="black"/>
<circle cx="500.924" cy="281.591" r="3.66785" fill="black"/>
<circle cx="520.486" cy="281.591" r="3.66785" fill="black"/>
<circle cx="540.049" cy="281.591" r="3.66785" fill="black"/>
<circle cx="559.609" cy="281.591" r="3.66785" fill="black"/>
<circle cx="579.172" cy="281.591" r="3.66785" fill="black"/>
<circle cx="598.734" cy="281.591" r="3.66785" fill="black"/>
<circle cx="618.297" cy="281.591" r="3.66785" fill="black"/>
<circle cx="637.857" cy="281.591" r="3.66785" fill="black"/>
<circle cx="657.42" cy="281.591" r="3.66785" fill="black"/>
<circle cx="676.982" cy="281.591" r="3.66785" fill="black"/>
<circle cx="696.543" cy="281.591" r="3.66785" fill="black"/>
<circle cx="716.105" cy="281.591" r="3.66785" fill="black"/>
<circle cx="735.668" cy="281.591" r="3.66785" fill="black"/>
<circle cx="755.228" cy="281.591" r="3.66785" fill="black"/>
<circle cx="11.8768" cy="301.151" r="3.66785" fill="black"/>
<circle cx="31.4393" cy="301.151" r="3.66785" fill="black"/>
<circle cx="51.0018" cy="301.151" r="3.66785" fill="black"/>
<circle cx="70.5624" cy="301.151" r="3.66785" fill="black"/>
<circle cx="90.1249" cy="301.151" r="3.66785" fill="black"/>
<circle cx="109.687" cy="301.151" r="3.66785" fill="black"/>
<circle cx="129.25" cy="301.151" r="3.66785" fill="black"/>
<circle cx="148.81" cy="301.151" r="3.66785" fill="black"/>
<circle cx="168.373" cy="301.151" r="3.66785" fill="black"/>
<circle cx="187.933" cy="301.151" r="3.66785" fill="black"/>
<circle cx="207.496" cy="301.151" r="3.66785" fill="black"/>
<circle cx="227.058" cy="301.151" r="3.66785" fill="black"/>
<circle cx="246.619" cy="301.151" r="3.66785" fill="black"/>
<circle cx="266.183" cy="301.151" r="3.66785" fill="black"/>
<circle cx="285.744" cy="301.151" r="3.66785" fill="black"/>
<circle cx="305.307" cy="301.151" r="3.66785" fill="black"/>
<circle cx="324.867" cy="301.151" r="3.66785" fill="black"/>
<circle cx="344.43" cy="301.151" r="3.66785" fill="black"/>
<circle cx="363.992" cy="301.151" r="3.66785" fill="black"/>
<circle cx="383.553" cy="301.151" r="3.66785" fill="black"/>
<circle cx="403.115" cy="301.151" r="3.66785" fill="black"/>
<circle cx="422.676" cy="301.151" r="3.66785" fill="black"/>
<circle cx="442.24" cy="301.151" r="3.66785" fill="black"/>
<circle cx="461.801" cy="301.151" r="3.66785" fill="black"/>
<circle cx="481.363" cy="301.151" r="3.66785" fill="black"/>
<circle cx="500.924" cy="301.151" r="3.66785" fill="black"/>
<circle cx="520.486" cy="301.151" r="3.66785" fill="black"/>
<circle cx="540.049" cy="301.151" r="3.66785" fill="black"/>
<circle cx="559.609" cy="301.151" r="3.66785" fill="black"/>
<circle cx="579.172" cy="301.151" r="3.66785" fill="black"/>
<circle cx="598.734" cy="301.151" r="3.66785" fill="black"/>
<circle cx="618.297" cy="301.151" r="3.66785" fill="black"/>
<circle cx="637.857" cy="301.151" r="3.66785" fill="black"/>
<circle cx="657.42" cy="301.151" r="3.66785" fill="black"/>
<circle cx="676.982" cy="301.151" r="3.66785" fill="black"/>
<circle cx="696.543" cy="301.151" r="3.66785" fill="black"/>
<circle cx="716.105" cy="301.151" r="3.66785" fill="black"/>
<circle cx="735.668" cy="301.151" r="3.66785" fill="black"/>
<circle cx="755.228" cy="301.151" r="3.66785" fill="black"/>
<circle cx="11.8768" cy="320.714" r="3.66785" fill="black"/>
<circle cx="31.4393" cy="320.714" r="3.66785" fill="black"/>
<circle cx="51.0018" cy="320.714" r="3.66785" fill="black"/>
<circle cx="70.5624" cy="320.714" r="3.66785" fill="black"/>
<circle cx="90.1249" cy="320.714" r="3.66785" fill="black"/>
<circle cx="109.687" cy="320.714" r="3.66785" fill="black"/>
<circle cx="129.25" cy="320.714" r="3.66785" fill="black"/>
<circle cx="148.81" cy="320.714" r="3.66785" fill="black"/>
<circle cx="168.373" cy="320.714" r="3.66785" fill="black"/>
<circle cx="187.933" cy="320.714" r="3.66785" fill="black"/>
<circle cx="207.496" cy="320.714" r="3.66785" fill="black"/>
<circle cx="227.058" cy="320.714" r="3.66785" fill="black"/>
<circle cx="246.619" cy="320.714" r="3.66785" fill="black"/>
<circle cx="266.183" cy="320.714" r="3.66785" fill="black"/>
<circle cx="285.744" cy="320.714" r="3.66785" fill="black"/>
<circle cx="305.307" cy="320.714" r="3.66785" fill="black"/>
<circle cx="324.867" cy="320.714" r="3.66785" fill="black"/>
<circle cx="344.43" cy="320.714" r="3.66785" fill="black"/>
<circle cx="363.992" cy="320.714" r="3.66785" fill="black"/>
<circle cx="383.553" cy="320.714" r="3.66785" fill="black"/>
<circle cx="403.115" cy="320.714" r="3.66785" fill="black"/>
<circle cx="422.676" cy="320.714" r="3.66785" fill="black"/>
<circle cx="442.24" cy="320.714" r="3.66785" fill="black"/>
<circle cx="461.801" cy="320.714" r="3.66785" fill="black"/>
<circle cx="481.363" cy="320.714" r="3.66785" fill="black"/>
<circle cx="500.924" cy="320.714" r="3.66785" fill="black"/>
<circle cx="520.486" cy="320.714" r="3.66785" fill="black"/>
<circle cx="540.049" cy="320.714" r="3.66785" fill="black"/>
<circle cx="559.609" cy="320.714" r="3.66785" fill="black"/>
<circle cx="579.172" cy="320.714" r="3.66785" fill="black"/>
<circle cx="598.734" cy="320.714" r="3.66785" fill="black"/>
<circle cx="618.297" cy="320.714" r="3.66785" fill="black"/>
<circle cx="637.857" cy="320.714" r="3.66785" fill="black"/>
<circle cx="657.42" cy="320.714" r="3.66785" fill="black"/>
<circle cx="676.982" cy="320.714" r="3.66785" fill="black"/>
<circle cx="696.543" cy="320.714" r="3.66785" fill="black"/>
<circle cx="716.105" cy="320.714" r="3.66785" fill="black"/>
<circle cx="735.668" cy="320.714" r="3.66785" fill="black"/>
<circle cx="755.228" cy="320.714" r="3.66785" fill="black"/>
<circle cx="11.8768" cy="340.276" r="3.66785" fill="black"/>
<circle cx="31.4393" cy="340.276" r="3.66785" fill="black"/>
<circle cx="51.0018" cy="340.276" r="3.66785" fill="black"/>
<circle cx="70.5624" cy="340.276" r="3.66785" fill="black"/>
<circle cx="90.1249" cy="340.276" r="3.66785" fill="black"/>
<circle cx="109.687" cy="340.276" r="3.66785" fill="black"/>
<circle cx="129.25" cy="340.276" r="3.66785" fill="black"/>
<circle cx="148.81" cy="340.276" r="3.66785" fill="black"/>
<circle cx="168.373" cy="340.276" r="3.66785" fill="black"/>
<circle cx="187.933" cy="340.276" r="3.66785" fill="black"/>
<circle cx="207.496" cy="340.276" r="3.66785" fill="black"/>
<circle cx="227.058" cy="340.276" r="3.66785" fill="black"/>
<circle cx="246.619" cy="340.276" r="3.66785" fill="black"/>
<circle cx="266.183" cy="340.276" r="3.66785" fill="black"/>
<circle cx="285.744" cy="340.276" r="3.66785" fill="black"/>
<circle cx="305.307" cy="340.276" r="3.66785" fill="black"/>
<circle cx="324.867" cy="340.276" r="3.66785" fill="black"/>
<circle cx="344.43" cy="340.276" r="3.66785" fill="black"/>
<circle cx="363.992" cy="340.276" r="3.66785" fill="black"/>
<circle cx="383.553" cy="340.276" r="3.66785" fill="black"/>
<circle cx="403.115" cy="340.276" r="3.66785" fill="black"/>
<circle cx="422.676" cy="340.276" r="3.66785" fill="black"/>
<circle cx="442.24" cy="340.276" r="3.66785" fill="black"/>
<circle cx="461.801" cy="340.276" r="3.66785" fill="black"/>
<circle cx="481.363" cy="340.276" r="3.66785" fill="black"/>
<circle cx="500.924" cy="340.276" r="3.66785" fill="black"/>
<circle cx="520.486" cy="340.276" r="3.66785" fill="black"/>
<circle cx="540.049" cy="340.276" r="3.66785" fill="black"/>
<circle cx="559.609" cy="340.276" r="3.66785" fill="black"/>
<circle cx="579.172" cy="340.276" r="3.66785" fill="black"/>
<circle cx="598.734" cy="340.276" r="3.66785" fill="black"/>
<circle cx="618.297" cy="340.276" r="3.66785" fill="black"/>
<circle cx="637.857" cy="340.276" r="3.66785" fill="black"/>
<circle cx="657.42" cy="340.276" r="3.66785" fill="black"/>
<circle cx="676.982" cy="340.276" r="3.66785" fill="black"/>
<circle cx="696.543" cy="340.276" r="3.66785" fill="black"/>
<circle cx="716.105" cy="340.276" r="3.66785" fill="black"/>
<circle cx="735.668" cy="340.276" r="3.66785" fill="black"/>
<circle cx="755.228" cy="340.276" r="3.66785" fill="black"/>
<circle cx="11.8768" cy="359.838" r="3.66785" fill="black"/>
<circle cx="31.4393" cy="359.838" r="3.66785" fill="black"/>
<circle cx="51.0018" cy="359.838" r="3.66785" fill="black"/>
<circle cx="70.5624" cy="359.838" r="3.66785" fill="black"/>
<circle cx="90.1249" cy="359.838" r="3.66785" fill="black"/>
<circle cx="109.687" cy="359.838" r="3.66785" fill="black"/>
<circle cx="129.25" cy="359.838" r="3.66785" fill="black"/>
<circle cx="148.81" cy="359.838" r="3.66785" fill="black"/>
<circle cx="168.373" cy="359.838" r="3.66785" fill="black"/>
<circle cx="187.933" cy="359.838" r="3.66785" fill="black"/>
<circle cx="207.496" cy="359.838" r="3.66785" fill="black"/>
<circle cx="227.058" cy="359.838" r="3.66785" fill="black"/>
<circle cx="246.619" cy="359.838" r="3.66785" fill="black"/>
<circle cx="266.183" cy="359.838" r="3.66785" fill="black"/>
<circle cx="285.744" cy="359.838" r="3.66785" fill="black"/>
<circle cx="305.307" cy="359.838" r="3.66785" fill="black"/>
<circle cx="324.867" cy="359.838" r="3.66785" fill="black"/>
<circle cx="344.43" cy="359.838" r="3.66785" fill="black"/>
<circle cx="363.992" cy="359.838" r="3.66785" fill="black"/>
<circle cx="383.553" cy="359.838" r="3.66785" fill="black"/>
<circle cx="403.115" cy="359.838" r="3.66785" fill="black"/>
<circle cx="422.676" cy="359.838" r="3.66785" fill="black"/>
<circle cx="442.24" cy="359.838" r="3.66785" fill="black"/>
<circle cx="461.801" cy="359.838" r="3.66785" fill="black"/>
<circle cx="481.363" cy="359.838" r="3.66785" fill="black"/>
<circle cx="500.924" cy="359.838" r="3.66785" fill="black"/>
<circle cx="520.486" cy="359.838" r="3.66785" fill="black"/>
<circle cx="540.049" cy="359.838" r="3.66785" fill="black"/>
<circle cx="559.609" cy="359.838" r="3.66785" fill="black"/>
<circle cx="579.172" cy="359.838" r="3.66785" fill="black"/>
<circle cx="598.734" cy="359.838" r="3.66785" fill="black"/>
<circle cx="618.297" cy="359.838" r="3.66785" fill="black"/>
<circle cx="637.857" cy="359.838" r="3.66785" fill="black"/>
<circle cx="657.42" cy="359.838" r="3.66785" fill="black"/>
<circle cx="676.982" cy="359.838" r="3.66785" fill="black"/>
<circle cx="696.543" cy="359.838" r="3.66785" fill="black"/>
<circle cx="716.105" cy="359.838" r="3.66785" fill="black"/>
<circle cx="735.668" cy="359.838" r="3.66785" fill="black"/>
<circle cx="755.228" cy="359.838" r="3.66785" fill="black"/>
<circle cx="11.8768" cy="379.399" r="3.66785" fill="black"/>
<circle cx="31.4393" cy="379.399" r="3.66785" fill="black"/>
<circle cx="51.0018" cy="379.399" r="3.66785" fill="black"/>
<circle cx="70.5624" cy="379.399" r="3.66785" fill="black"/>
<circle cx="90.1249" cy="379.399" r="3.66785" fill="black"/>
<circle cx="109.687" cy="379.399" r="3.66785" fill="black"/>
<circle cx="129.25" cy="379.399" r="3.66785" fill="black"/>
<circle cx="148.81" cy="379.399" r="3.66785" fill="black"/>
<circle cx="168.373" cy="379.399" r="3.66785" fill="black"/>
<circle cx="187.933" cy="379.399" r="3.66785" fill="black"/>
<circle cx="207.496" cy="379.399" r="3.66785" fill="black"/>
<circle cx="227.058" cy="379.399" r="3.66785" fill="black"/>
<circle cx="246.619" cy="379.399" r="3.66785" fill="black"/>
<circle cx="266.183" cy="379.399" r="3.66785" fill="black"/>
<circle cx="285.744" cy="379.399" r="3.66785" fill="black"/>
<circle cx="305.307" cy="379.399" r="3.66785" fill="black"/>
<circle cx="324.867" cy="379.399" r="3.66785" fill="black"/>
<circle cx="344.43" cy="379.399" r="3.66785" fill="black"/>
<circle cx="363.992" cy="379.399" r="3.66785" fill="black"/>
<circle cx="383.553" cy="379.399" r="3.66785" fill="black"/>
<circle cx="403.115" cy="379.399" r="3.66785" fill="black"/>
<circle cx="422.676" cy="379.399" r="3.66785" fill="black"/>
<circle cx="442.24" cy="379.399" r="3.66785" fill="black"/>
<circle cx="461.801" cy="379.399" r="3.66785" fill="black"/>
<circle cx="481.363" cy="379.399" r="3.66785" fill="black"/>
<circle cx="500.924" cy="379.399" r="3.66785" fill="black"/>
<circle cx="520.486" cy="379.399" r="3.66785" fill="black"/>
<circle cx="540.049" cy="379.399" r="3.66785" fill="black"/>
<circle cx="559.609" cy="379.399" r="3.66785" fill="black"/>
<circle cx="579.172" cy="379.399" r="3.66785" fill="black"/>
<circle cx="598.734" cy="379.399" r="3.66785" fill="black"/>
<circle cx="618.297" cy="379.399" r="3.66785" fill="black"/>
<circle cx="637.857" cy="379.399" r="3.66785" fill="black"/>
<circle cx="657.42" cy="379.399" r="3.66785" fill="black"/>
<circle cx="676.982" cy="379.399" r="3.66785" fill="black"/>
<circle cx="696.543" cy="379.399" r="3.66785" fill="black"/>
<circle cx="716.105" cy="379.399" r="3.66785" fill="black"/>
<circle cx="735.668" cy="379.399" r="3.66785" fill="black"/>
<circle cx="755.228" cy="379.399" r="3.66785" fill="black"/>
<circle cx="11.8768" cy="398.961" r="3.66785" fill="black"/>
<circle cx="31.4393" cy="398.961" r="3.66785" fill="black"/>
<circle cx="51.0018" cy="398.961" r="3.66785" fill="black"/>
<circle cx="70.5624" cy="398.961" r="3.66785" fill="black"/>
<circle cx="90.1249" cy="398.961" r="3.66785" fill="black"/>
<circle cx="109.687" cy="398.961" r="3.66785" fill="black"/>
<circle cx="129.25" cy="398.961" r="3.66785" fill="black"/>
<circle cx="148.81" cy="398.961" r="3.66785" fill="black"/>
<circle cx="168.373" cy="398.961" r="3.66785" fill="black"/>
<circle cx="187.933" cy="398.961" r="3.66785" fill="black"/>
<circle cx="207.496" cy="398.961" r="3.66785" fill="black"/>
<circle cx="227.058" cy="398.961" r="3.66785" fill="black"/>
<circle cx="246.619" cy="398.961" r="3.66785" fill="black"/>
<circle cx="266.183" cy="398.961" r="3.66785" fill="black"/>
<circle cx="285.744" cy="398.961" r="3.66785" fill="black"/>
<circle cx="305.307" cy="398.961" r="3.66785" fill="black"/>
<circle cx="324.867" cy="398.961" r="3.66785" fill="black"/>
<circle cx="344.43" cy="398.961" r="3.66785" fill="black"/>
<circle cx="363.992" cy="398.961" r="3.66785" fill="black"/>
<circle cx="383.553" cy="398.961" r="3.66785" fill="black"/>
<circle cx="403.115" cy="398.961" r="3.66785" fill="black"/>
<circle cx="422.676" cy="398.961" r="3.66785" fill="black"/>
<circle cx="442.24" cy="398.961" r="3.66785" fill="black"/>
<circle cx="461.801" cy="398.961" r="3.66785" fill="black"/>
<circle cx="481.363" cy="398.961" r="3.66785" fill="black"/>
<circle cx="500.924" cy="398.961" r="3.66785" fill="black"/>
<circle cx="520.486" cy="398.961" r="3.66785" fill="black"/>
<circle cx="540.049" cy="398.961" r="3.66785" fill="black"/>
<circle cx="559.609" cy="398.961" r="3.66785" fill="black"/>
<circle cx="579.172" cy="398.961" r="3.66785" fill="black"/>
<circle cx="598.734" cy="398.961" r="3.66785" fill="black"/>
<circle cx="618.297" cy="398.961" r="3.66785" fill="black"/>
<circle cx="637.857" cy="398.961" r="3.66785" fill="black"/>
<circle cx="657.42" cy="398.961" r="3.66785" fill="black"/>
<circle cx="676.982" cy="398.961" r="3.66785" fill="black"/>
<circle cx="696.543" cy="398.961" r="3.66785" fill="black"/>
<circle cx="716.105" cy="398.961" r="3.66785" fill="black"/>
<circle cx="735.668" cy="398.961" r="3.66785" fill="black"/>
<circle cx="755.228" cy="398.961" r="3.66785" fill="black"/>
<circle cx="11.8768" cy="418.523" r="3.66785" fill="black"/>
<circle cx="31.4393" cy="418.523" r="3.66785" fill="black"/>
<circle cx="51.0018" cy="418.523" r="3.66785" fill="black"/>
<circle cx="70.5624" cy="418.523" r="3.66785" fill="black"/>
<circle cx="90.1249" cy="418.523" r="3.66785" fill="black"/>
<circle cx="109.687" cy="418.523" r="3.66785" fill="black"/>
<circle cx="129.25" cy="418.523" r="3.66785" fill="black"/>
<circle cx="148.81" cy="418.523" r="3.66785" fill="black"/>
<circle cx="168.373" cy="418.523" r="3.66785" fill="black"/>
<circle cx="187.933" cy="418.523" r="3.66785" fill="black"/>
<circle cx="207.496" cy="418.523" r="3.66785" fill="black"/>
<circle cx="227.058" cy="418.523" r="3.66785" fill="black"/>
<circle cx="246.619" cy="418.523" r="3.66785" fill="black"/>
<circle cx="266.183" cy="418.523" r="3.66785" fill="black"/>
<circle cx="285.744" cy="418.523" r="3.66785" fill="black"/>
<circle cx="305.307" cy="418.523" r="3.66785" fill="black"/>
<circle cx="324.867" cy="418.523" r="3.66785" fill="black"/>
<circle cx="344.43" cy="418.523" r="3.66785" fill="black"/>
<circle cx="363.992" cy="418.523" r="3.66785" fill="black"/>
<circle cx="383.553" cy="418.523" r="3.66785" fill="black"/>
<circle cx="403.115" cy="418.523" r="3.66785" fill="black"/>
<circle cx="422.676" cy="418.523" r="3.66785" fill="black"/>
<circle cx="442.24" cy="418.523" r="3.66785" fill="black"/>
<circle cx="461.801" cy="418.523" r="3.66785" fill="black"/>
<circle cx="481.363" cy="418.523" r="3.66785" fill="black"/>
<circle cx="500.924" cy="418.523" r="3.66785" fill="black"/>
<circle cx="520.486" cy="418.523" r="3.66785" fill="black"/>
<circle cx="540.049" cy="418.523" r="3.66785" fill="black"/>
<circle cx="559.609" cy="418.523" r="3.66785" fill="black"/>
<circle cx="579.172" cy="418.523" r="3.66785" fill="black"/>
<circle cx="598.734" cy="418.523" r="3.66785" fill="black"/>
<circle cx="618.297" cy="418.523" r="3.66785" fill="black"/>
<circle cx="637.857" cy="418.523" r="3.66785" fill="black"/>
<circle cx="657.42" cy="418.523" r="3.66785" fill="black"/>
<circle cx="676.982" cy="418.523" r="3.66785" fill="black"/>
<circle cx="696.543" cy="418.523" r="3.66785" fill="black"/>
<circle cx="716.105" cy="418.523" r="3.66785" fill="black"/>
<circle cx="735.668" cy="418.523" r="3.66785" fill="black"/>
<circle cx="755.228" cy="418.523" r="3.66785" fill="black"/>
<circle cx="11.8768" cy="438.085" r="3.66785" fill="black"/>
<circle cx="31.4393" cy="438.085" r="3.66785" fill="black"/>
<circle cx="51.0018" cy="438.085" r="3.66785" fill="black"/>
<circle cx="70.5624" cy="438.085" r="3.66785" fill="black"/>
<circle cx="90.1249" cy="438.085" r="3.66785" fill="black"/>
<circle cx="109.687" cy="438.085" r="3.66785" fill="black"/>
<circle cx="129.25" cy="438.085" r="3.66785" fill="black"/>
<circle cx="148.81" cy="438.085" r="3.66785" fill="black"/>
<circle cx="168.373" cy="438.085" r="3.66785" fill="black"/>
<circle cx="187.933" cy="438.085" r="3.66785" fill="black"/>
<circle cx="207.496" cy="438.085" r="3.66785" fill="black"/>
<circle cx="227.058" cy="438.085" r="3.66785" fill="black"/>
<circle cx="246.619" cy="438.085" r="3.66785" fill="black"/>
<circle cx="266.183" cy="438.085" r="3.66785" fill="black"/>
<circle cx="285.744" cy="438.085" r="3.66785" fill="black"/>
<circle cx="305.307" cy="438.085" r="3.66785" fill="black"/>
<circle cx="324.867" cy="438.085" r="3.66785" fill="black"/>
<circle cx="344.43" cy="438.085" r="3.66785" fill="black"/>
<circle cx="363.992" cy="438.085" r="3.66785" fill="black"/>
<circle cx="383.553" cy="438.085" r="3.66785" fill="black"/>
<circle cx="403.115" cy="438.085" r="3.66785" fill="black"/>
<circle cx="422.676" cy="438.085" r="3.66785" fill="black"/>
<circle cx="442.24" cy="438.085" r="3.66785" fill="black"/>
<circle cx="461.801" cy="438.085" r="3.66785" fill="black"/>
<circle cx="481.363" cy="438.085" r="3.66785" fill="black"/>
<circle cx="500.924" cy="438.085" r="3.66785" fill="black"/>
<circle cx="520.486" cy="438.085" r="3.66785" fill="black"/>
<circle cx="540.049" cy="438.085" r="3.66785" fill="black"/>
<circle cx="559.609" cy="438.085" r="3.66785" fill="black"/>
<circle cx="579.172" cy="438.085" r="3.66785" fill="black"/>
<circle cx="598.734" cy="438.085" r="3.66785" fill="black"/>
<circle cx="618.297" cy="438.085" r="3.66785" fill="black"/>
<circle cx="637.857" cy="438.085" r="3.66785" fill="black"/>
<circle cx="657.42" cy="438.085" r="3.66785" fill="black"/>
<circle cx="676.982" cy="438.085" r="3.66785" fill="black"/>
<circle cx="696.543" cy="438.085" r="3.66785" fill="black"/>
<circle cx="716.105" cy="438.085" r="3.66785" fill="black"/>
<circle cx="735.668" cy="438.085" r="3.66785" fill="black"/>
<circle cx="755.228" cy="438.085" r="3.66785" fill="black"/>
<circle cx="11.8768" cy="457.647" r="3.66785" fill="black"/>
<circle cx="31.4393" cy="457.647" r="3.66785" fill="black"/>
<circle cx="51.0018" cy="457.647" r="3.66785" fill="black"/>
<circle cx="70.5624" cy="457.647" r="3.66785" fill="black"/>
<circle cx="90.1249" cy="457.647" r="3.66785" fill="black"/>
<circle cx="109.687" cy="457.647" r="3.66785" fill="black"/>
<circle cx="129.25" cy="457.647" r="3.66785" fill="black"/>
<circle cx="148.81" cy="457.647" r="3.66785" fill="black"/>
<circle cx="168.373" cy="457.647" r="3.66785" fill="black"/>
<circle cx="187.933" cy="457.647" r="3.66785" fill="black"/>
<circle cx="207.496" cy="457.647" r="3.66785" fill="black"/>
<circle cx="227.058" cy="457.647" r="3.66785" fill="black"/>
<circle cx="246.619" cy="457.647" r="3.66785" fill="black"/>
<circle cx="266.183" cy="457.647" r="3.66785" fill="black"/>
<circle cx="285.744" cy="457.647" r="3.66785" fill="black"/>
<circle cx="305.307" cy="457.647" r="3.66785" fill="black"/>
<circle cx="324.867" cy="457.647" r="3.66785" fill="black"/>
<circle cx="344.43" cy="457.647" r="3.66785" fill="black"/>
<circle cx="363.992" cy="457.647" r="3.66785" fill="black"/>
<circle cx="383.553" cy="457.647" r="3.66785" fill="black"/>
<circle cx="403.115" cy="457.647" r="3.66785" fill="black"/>
<circle cx="422.676" cy="457.647" r="3.66785" fill="black"/>
<circle cx="442.24" cy="457.647" r="3.66785" fill="black"/>
<circle cx="461.801" cy="457.647" r="3.66785" fill="black"/>
<circle cx="481.363" cy="457.647" r="3.66785" fill="black"/>
<circle cx="500.924" cy="457.647" r="3.66785" fill="black"/>
<circle cx="520.486" cy="457.647" r="3.66785" fill="black"/>
<circle cx="540.049" cy="457.647" r="3.66785" fill="black"/>
<circle cx="559.609" cy="457.647" r="3.66785" fill="black"/>
<circle cx="579.172" cy="457.647" r="3.66785" fill="black"/>
<circle cx="598.734" cy="457.647" r="3.66785" fill="black"/>
<circle cx="618.297" cy="457.647" r="3.66785" fill="black"/>
<circle cx="637.857" cy="457.647" r="3.66785" fill="black"/>
<circle cx="657.42" cy="457.647" r="3.66785" fill="black"/>
<circle cx="676.982" cy="457.647" r="3.66785" fill="black"/>
<circle cx="696.543" cy="457.647" r="3.66785" fill="black"/>
<circle cx="716.105" cy="457.647" r="3.66785" fill="black"/>
<circle cx="735.668" cy="457.647" r="3.66785" fill="black"/>
<circle cx="755.228" cy="457.647" r="3.66785" fill="black"/>
</g>
</g>
</svg>
