<svg width="71" height="72" viewBox="0 0 71 72" fill="none" xmlns="http://www.w3.org/2000/svg">
<path fill-rule="evenodd" clip-rule="evenodd" d="M64 36C64 51.464 51.464 64 36 64C20.536 64 8 51.464 8 36C8 20.536 20.536 8 36 8C51.464 8 64 20.536 64 36Z" fill="white"/>
<path d="M39 24H47V32" stroke="black" stroke-width="1.5" stroke-linecap="square" stroke-linejoin="round"/>
<path d="M31 48H23V40" stroke="black" stroke-width="1.5" stroke-linecap="square" stroke-linejoin="round"/>
<path d="M47.5297 24.5303C47.8226 24.2374 47.8226 23.7626 47.5297 23.4697C47.2368 23.1768 46.7619 23.1768 46.469 23.4697L47.5297 24.5303ZM37.1357 32.803L36.6054 33.3333L37.666 34.394L38.1963 33.8637L37.1357 32.803ZM46.469 23.4697L37.1357 32.803L38.1963 33.8637L47.5297 24.5303L46.469 23.4697Z" fill="black"/>
<path d="M22.4697 47.4698C22.1768 47.7626 22.1768 48.2375 22.4697 48.5304C22.7626 48.8233 23.2374 48.8233 23.5303 48.5304L22.4697 47.4698ZM32.8637 39.1971L33.394 38.6667L32.3333 37.6061L31.803 38.1364L32.8637 39.1971ZM23.5303 48.5304L32.8637 39.1971L31.803 38.1364L22.4697 47.4698L23.5303 48.5304Z" fill="black"/>
<path d="M36 70C17.2223 70 2 54.7777 2 36C2 17.2223 17.2223 2 36 2" stroke="white" stroke-width="3"/>
<path d="M69 36C69 49.7928 60.787 61.6674 48.9846 67" stroke="white" stroke-width="3"/>
</svg>
