<svg width="32" height="32" viewBox="0 0 32 32" fill="none" xmlns="http://www.w3.org/2000/svg">
<g clip-path="url(#clip0_252_27310)">
<path d="M25.3691 6.0825L31.4516 6.06756L25.3691 0V6.0825Z" fill="black"/>
<path d="M23.4943 7.9575V0H6.6817V12.9519L13.7311 15.6564H22.2021V17.5314H14.6889V19.5627H19.0771V21.4377H14.6889V22.5029C14.6889 22.8267 14.6663 23.1495 14.6228 23.4689H22.2021V25.3439H14.1012C13.9958 25.5886 13.8775 25.828 13.7448 26.0602C13.1272 27.1419 12.2338 28.0484 11.1611 28.6814L7.6347 30.7628L6.68164 31.3253V32H31.4516V7.9575H23.4943ZM24.2021 11.7502H26.0771V13.6252H24.2021V11.7502ZM24.2021 15.6564H26.0771V17.5314H24.2021V15.6564ZM24.2021 19.5627H26.0771V21.4377H24.2021V19.5627ZM24.2021 23.4689H26.0771V25.3439H24.2021V23.4689ZM13.9105 6.0825V7.9575H12.0355V6.0825H13.9105ZM19.0771 13.6252H12.0355V11.7502H19.0771V13.6252Z" fill="black"/>
<path d="M10.2075 27.0668C11.8223 26.1137 12.8133 24.3781 12.8133 22.503V17.3128L6.68102 14.9602L0.548828 17.3129V22.503C0.548828 24.3781 1.53977 26.1138 3.15464 27.0669L6.68102 29.1483L10.2075 27.0668ZM6.25302 24.7478L3.41177 22.132L4.68177 20.7526L6.1277 22.0838L8.61845 19.3156L10.0123 20.5696L6.25302 24.7478Z" fill="black"/>
</g>
<defs>
<clipPath id="clip0_252_27310">
<rect width="32" height="32" fill="white"/>
</clipPath>
</defs>
</svg>
