<svg width="32" height="32" viewBox="0 0 32 32" fill="none" xmlns="http://www.w3.org/2000/svg">
<path d="M22.8359 22.0703C22.8359 20.7134 21.732 19.6094 20.375 19.6094H11.625C10.268 19.6094 9.16406 20.7134 9.16406 22.0703V22.8906H22.8359V22.0703Z" fill="white"/>
<path fill-rule="evenodd" clip-rule="evenodd" d="M8.34375 24.5312H23.6562C25.3148 24.5312 26.6641 25.8806 26.6641 27.5391V30H25.8438H6.15625H5.33594V27.5391C5.33594 25.8806 6.68524 24.5312 8.34375 24.5312ZM8.89062 28.0859C8.43759 28.0859 8.07031 27.7187 8.07031 27.2656C8.07031 26.8126 8.43759 26.4453 8.89062 26.4453C9.34366 26.4453 9.71094 26.8126 9.71094 27.2656C9.71094 27.7187 9.34366 28.0859 8.89062 28.0859ZM23.1094 28.0859C22.6563 28.0859 22.2891 27.7187 22.2891 27.2656C22.2891 26.8126 22.6563 26.4453 23.1094 26.4453C23.5624 26.4453 23.9297 26.8126 23.9297 27.2656C23.9297 27.7187 23.5624 28.0859 23.1094 28.0859ZM11.8984 28.0859H20.1016V26.4453H11.8984V28.0859Z" fill="white"/>
<path d="M18.1875 11.9082C20.0086 11.0656 21.1953 9.24041 21.1953 7.19531C21.1953 4.33062 18.8647 2 16 2C13.1353 2 10.8047 4.33062 10.8047 7.19531C10.8047 9.24041 11.9914 11.0656 13.8125 11.9082V17.9688H18.1875V11.9082Z" fill="white"/>
</svg>
