<svg width="32" height="32" viewBox="0 0 32 32" fill="none" xmlns="http://www.w3.org/2000/svg">
<g clip-path="url(#clip0_252_28202)">
<path d="M24.4375 15.0625C20.2937 15.0625 16.9375 18.4187 16.9375 22.5625C16.9375 26.7062 20.2937 30.0625 24.4375 30.0625C28.5813 30.0625 32 26.7062 32 22.5625C32 18.4187 28.5813 15.0625 24.4375 15.0625ZM27.7563 24.55L26.425 25.8812L24.4375 23.8937L22.45 25.8812L21.1187 24.55L23.1062 22.5625L21.1187 20.575L22.45 19.2437L24.4375 21.2312L26.425 19.2437L27.7563 20.575L25.7688 22.5625L27.7563 24.55Z" fill="black"/>
<path d="M15.0625 9.4375C15.0625 5.29369 11.7063 1.9375 7.5625 1.9375C3.41869 1.9375 0 5.29369 0 9.4375C0 13.5812 3.41869 16.9375 7.5625 16.9375C11.7063 16.9375 15.0625 13.5812 15.0625 9.4375ZM4.09381 10.0937L5.40625 8.78119L6.62506 9.98119L9.71887 6.90619L11.0313 8.21869L6.625 12.6437L4.09381 10.0937Z" fill="black"/>
<path d="M15.5412 25.375C15.2575 24.4814 15.0625 23.5487 15.0625 22.5625C15.0625 21.5763 15.2575 20.6436 15.5412 19.75H3.8125L0 22.5625L3.8125 25.375H15.5412Z" fill="black"/>
<path d="M16.459 6.625C16.7427 7.51856 16.9377 8.45125 16.9377 9.4375C16.9377 10.4237 16.7427 11.3564 16.459 12.25H28.1877L32.0002 9.4375L28.1877 6.625H16.459Z" fill="black"/>
</g>
<defs>
<clipPath id="clip0_252_28202">
<rect width="32" height="32" fill="white"/>
</clipPath>
</defs>
</svg>
