<svg width="16" height="17" viewBox="0 0 16 17" fill="none" xmlns="http://www.w3.org/2000/svg">
<path fill-rule="evenodd" clip-rule="evenodd" d="M4.91777 2.00781H11.3178C13.0851 2.00781 14.5178 3.4405 14.5178 5.20781V11.6078C14.5178 13.3751 13.0851 14.8078 11.3178 14.8078H4.91777C3.15046 14.8078 1.71777 13.3751 1.71777 11.6078V5.20781C1.71777 3.4405 3.15046 2.00781 4.91777 2.00781ZM10.9978 4.88781C10.9978 4.53435 11.2843 4.24781 11.6378 4.24781H11.6442C11.9976 4.24781 12.2842 4.53435 12.2842 4.88781C12.2842 5.24127 11.9976 5.52781 11.6442 5.52781H11.6378C11.2843 5.52781 10.9978 5.24127 10.9978 4.88781ZM8.42722 6.48089C8.02774 6.42165 7.61976 6.48988 7.26129 6.67588C6.90283 6.86188 6.61214 7.15618 6.43058 7.51691C6.24901 7.87764 6.18581 8.28643 6.24997 8.68515C6.31413 9.08387 6.50238 9.4522 6.78794 9.73776C7.07351 10.0233 7.44184 10.2116 7.84056 10.2757C8.23928 10.3399 8.64807 10.2767 9.0088 10.0951C9.36953 9.91357 9.66383 9.62288 9.84983 9.26441C10.0358 8.90595 10.1041 8.49796 10.0448 8.09849C9.9844 7.691 9.79452 7.31376 9.50323 7.02247C9.21195 6.73119 8.8347 6.54131 8.42722 6.48089ZM6.67176 5.53973C7.2692 5.22973 7.94918 5.116 8.61498 5.21473C9.29411 5.31544 9.92286 5.6319 10.4083 6.11738C10.8938 6.60285 11.2103 7.23159 11.311 7.91073C11.4097 8.57653 11.296 9.25651 10.986 9.85394C10.676 10.4514 10.1855 10.9359 9.58428 11.2385C8.98306 11.5411 8.30173 11.6464 7.63721 11.5395C6.97268 11.4325 6.35879 11.1188 5.88285 10.6429C5.40691 10.1669 5.09316 9.55303 4.98623 8.8885C4.8793 8.22397 4.98463 7.54265 5.28724 6.94143C5.58985 6.34022 6.07433 5.84973 6.67176 5.53973Z" fill="#7F7F7F"/>
</svg>
