<svg width="16" height="17" viewBox="0 0 16 17" fill="none" xmlns="http://www.w3.org/2000/svg">
<path d="M10.6779 5.84778C11.6963 5.84778 12.673 6.25235 13.3932 6.97249C14.1133 7.69263 14.5179 8.66935 14.5179 9.68778V14.1678H11.9579V9.68778C11.9579 9.3483 11.823 9.02273 11.583 8.78268C11.3429 8.54264 11.0174 8.40778 10.6779 8.40778C10.3384 8.40778 10.0128 8.54264 9.77279 8.78268C9.53275 9.02273 9.39789 9.3483 9.39789 9.68778V14.1678H6.83789V9.68778C6.83789 8.66935 7.24246 7.69263 7.9626 6.97249C8.68274 6.25235 9.65946 5.84778 10.6779 5.84778Z" fill="#7F7F7F"/>
<path d="M4.27777 6.48779H1.71777V14.1678H4.27777V6.48779Z" fill="#7F7F7F"/>
<path d="M2.99777 4.56781C3.7047 4.56781 4.27777 3.99474 4.27777 3.28781C4.27777 2.58089 3.7047 2.00781 2.99777 2.00781C2.29085 2.00781 1.71777 2.58089 1.71777 3.28781C1.71777 3.99474 2.29085 4.56781 2.99777 4.56781Z" fill="#7F7F7F"/>
</svg>
