<svg width="78" height="30" viewBox="0 0 78 30" fill="none" xmlns="http://www.w3.org/2000/svg">
<path d="M8.92203 8.35229L13.554 13.5273V8.35229H16.671C17.7489 8.35229 18.5646 8.4095 19.089 8.52387C19.6133 8.63823 20.0503 8.80975 20.429 9.06706C20.8951 9.41015 21.2738 9.83901 21.536 10.4394C21.7982 11.0112 21.9439 11.6688 21.9439 12.355C21.9439 13.0698 21.7982 13.6988 21.536 14.2706C21.2738 14.8424 20.8951 15.2999 20.429 15.6429C20.0503 15.9003 19.6133 16.1004 19.089 16.2148C18.5646 16.3291 17.778 16.3863 16.671 16.3863H16.1758H16.1175L21.9439 22.905H19.9338L14.1657 16.4721H13.554H13.5248H13.0587H12.6509C11.136 16.4721 10.1164 16.6437 9.59205 16.9867C9.06768 17.3298 8.8055 17.9302 8.8055 18.8166C8.8055 19.7315 9.06768 20.3891 9.62118 20.7893C10.1456 21.161 11.1652 21.3611 12.6509 21.3611H13.0587H13.5248H13.554V17.0725L15.2727 18.9881V21.3325V21.5041V22.9336H13.554H12.1556C11.0778 22.9336 10.2621 22.8764 9.73771 22.7621C9.21334 22.6477 8.77637 22.4762 8.39766 22.1902C7.93155 21.8472 7.55284 21.4183 7.29065 20.8179C7.02847 20.2461 6.88281 19.5885 6.88281 18.9023C6.88281 18.1876 7.02847 17.5586 7.29065 16.9867C7.55284 16.4149 7.93155 15.9575 8.39766 15.6144C8.77637 15.3571 9.21334 15.1569 9.73771 15.0426C10.2329 14.9282 11.0486 14.871 12.1556 14.871H12.6509H12.7674L6.88281 8.32373L8.92203 8.35229ZM15.2727 14.8138H16.1758C17.6906 14.8138 18.7102 14.6423 19.2346 14.2992C19.759 13.9561 20.0212 13.3557 20.0212 12.4694C20.0212 11.5545 19.759 10.8969 19.2055 10.4966C18.6811 10.1249 17.6615 9.92479 16.1758 9.92479H15.2727V14.8138Z" fill="#09080A"/>
<path d="M27.0706 22.7909C26.7501 22.6193 26.5171 22.3906 26.3423 22.1047C26.1675 21.8188 26.0801 21.5043 26.0801 21.1326C26.0801 20.7609 26.1675 20.4464 26.3423 20.1605C26.5171 19.8746 26.7501 19.6459 27.0706 19.4743C27.391 19.3028 27.7115 19.2456 28.1193 19.2456C28.4397 19.2456 28.7311 19.3028 28.9932 19.4171C29.2554 19.5315 29.4593 19.6745 29.6633 19.9032L29.1098 20.4178C28.8476 20.1319 28.5563 19.989 28.1776 19.989C27.9445 19.989 27.7406 20.0461 27.5658 20.1319C27.391 20.2177 27.2453 20.3606 27.1288 20.5608C27.0414 20.7323 26.9832 20.9325 26.9832 21.1612C26.9832 21.3899 27.0414 21.5901 27.1288 21.7616C27.2162 21.9331 27.3619 22.0761 27.5658 22.1905C27.7406 22.2762 27.9445 22.3334 28.1776 22.3334C28.5563 22.3334 28.8476 22.1905 29.1098 21.9046L29.6633 22.4192C29.4885 22.6193 29.2554 22.7909 28.9932 22.9052C28.7311 23.0196 28.4397 23.0768 28.1193 23.0768C27.7406 23.0482 27.391 22.9624 27.0706 22.7909Z" fill="black"/>
<path d="M34.3546 22.9907L33.6263 21.9614H33.5972H32.8398V22.9907H31.9658V19.3311H33.5681C33.8885 19.3311 34.1798 19.3882 34.4129 19.5026C34.6459 19.617 34.8498 19.7599 34.9664 19.9601C35.0829 20.1602 35.1703 20.3889 35.1703 20.6748C35.1703 20.9321 35.112 21.1895 34.9664 21.3896C34.8207 21.5897 34.6459 21.7327 34.4129 21.847L35.2577 23.0193H34.3546V22.9907ZM34.1507 20.1888C34.005 20.0744 33.8302 20.0172 33.5681 20.0172H32.8689V21.3038H33.5681C33.8302 21.3038 34.0342 21.2466 34.1507 21.1323C34.2963 21.0179 34.3546 20.875 34.3546 20.6748C34.3546 20.4461 34.2672 20.3031 34.1507 20.1888Z" fill="black"/>
<path d="M40.5579 22.3045V22.9907H37.6738V19.3311H40.4996V20.0172H38.5478V20.8178H40.2666V21.4754H38.5478V22.3331H40.5579V22.3045Z" fill="black"/>
<path d="M45.4532 22.1904H43.7344L43.414 22.9624H42.54L44.2005 19.3027H45.0454L46.7059 22.9624H45.8028L45.4532 22.1904ZM45.191 21.5614L44.6084 20.1605L44.0258 21.5614H45.191Z" fill="black"/>
<path d="M49.4151 20.0172H48.2207V19.3311H51.4543V20.0172H50.2599V22.9907H49.386V20.0172H49.4151Z" fill="black"/>
<path d="M53.6973 19.3311H54.5712V22.9907H53.6973V19.3311Z" fill="black"/>
<path d="M60.7768 19.3311L59.1746 22.9907H58.3298L56.7275 19.3311H57.6597L58.7959 21.9328L59.932 19.3311H60.7768Z" fill="black"/>
<path d="M65.7288 22.3045V22.9907H62.8447V19.3311H65.6705V20.0172H63.7187V20.8178H65.4374V21.4754H63.7187V22.3331H65.7288V22.3045Z" fill="black"/>
<path d="M32.4305 8.83848C32.984 9.0672 33.3919 9.43888 33.6832 9.86775C33.9745 10.3252 34.1202 10.8398 34.1202 11.4402C34.1202 12.0406 33.9745 12.5553 33.6832 13.0127C33.3919 13.4702 32.9549 13.8133 32.4305 14.042C31.877 14.2707 31.2361 14.4137 30.5078 14.4137H28.8182V16.6724H26.8955V8.4668H30.5078C31.2361 8.4668 31.877 8.58116 32.4305 8.83848ZM31.7022 12.4981C31.9936 12.2408 32.1683 11.8977 32.1683 11.4402C32.1683 10.9828 32.0227 10.6111 31.7022 10.3824C31.4109 10.1251 30.9448 10.0107 30.3622 10.0107H28.7891V12.8698H30.3622C30.974 12.8698 31.4109 12.7554 31.7022 12.4981Z" fill="black"/>
<path d="M41.3156 16.6724L39.7134 14.3851H39.626H37.9364V16.6724H36.0137V8.4668H39.626C40.3543 8.4668 41.0243 8.58116 41.5487 8.83848C42.1022 9.0672 42.51 9.43888 42.8013 9.86775C43.0927 10.3252 43.2383 10.8398 43.2383 11.4402C43.2383 12.0406 43.0927 12.5838 42.8013 13.0127C42.51 13.4416 42.0731 13.7847 41.5196 14.0134L43.384 16.6437L41.3156 16.6724ZM40.8204 10.3824C40.5291 10.1251 40.063 10.0107 39.4803 10.0107H37.9072V12.8698H39.4803C40.063 12.8698 40.5 12.7554 40.8204 12.4981C41.1117 12.2408 41.2865 11.8977 41.2865 11.4402C41.2865 10.9828 41.1408 10.6397 40.8204 10.3824Z" fill="black"/>
<path d="M46.9679 16.2717C46.2688 15.9 45.7153 15.3854 45.3365 14.7564C44.9287 14.0988 44.7539 13.384 44.7539 12.5835C44.7539 11.7829 44.9578 11.0396 45.3365 10.4106C45.7444 9.753 46.2688 9.26699 46.9679 8.8953C47.6671 8.52362 48.4536 8.35205 49.3276 8.35205C50.2015 8.35205 50.9881 8.52362 51.6581 8.8953C52.3573 9.26699 52.9108 9.78159 53.2895 10.4106C53.6973 11.0682 53.9012 11.7829 53.9012 12.5835C53.9012 13.384 53.6973 14.1274 53.2895 14.7564C52.8816 15.3854 52.3573 15.9 51.6581 16.2717C50.9589 16.6434 50.1724 16.815 49.3276 16.815C48.4536 16.815 47.6671 16.6434 46.9679 16.2717ZM50.6676 14.8708C51.0755 14.642 51.3668 14.3275 51.5998 13.9273C51.8329 13.527 51.9494 13.0695 51.9494 12.5549C51.9494 12.0403 51.8329 11.5828 51.5998 11.1826C51.3668 10.7823 51.0463 10.4678 50.6676 10.2391C50.2598 10.0103 49.8228 9.89598 49.3276 9.89598C48.8323 9.89598 48.3954 10.0103 47.9875 10.2391C47.5797 10.4678 47.2884 10.7823 47.0553 11.1826C46.8223 11.5828 46.7057 12.0403 46.7057 12.5549C46.7057 13.0695 46.8223 13.527 47.0553 13.9273C47.2884 14.3275 47.6088 14.642 47.9875 14.8708C48.3954 15.0995 48.8323 15.2138 49.3276 15.2138C49.8228 15.2138 50.2598 15.0995 50.6676 14.8708Z" fill="black"/>
<path d="M57.7762 9.98211V12.155H61.6507V13.6703H57.7762V16.6724H55.8535V8.4668H62.1751V9.98211H57.7762Z" fill="black"/>
<path d="M63.9805 8.4668H65.9032V16.6724H63.9805V8.4668Z" fill="black"/>
<path d="M70.3021 8.52406C70.3604 8.43829 70.4187 8.29534 70.4187 8.18097C70.4187 8.00943 70.3604 7.83788 70.2148 7.75211C70.0982 7.63775 69.9234 7.58057 69.6904 7.58057H68.9912V9.3532H69.2825V8.78138H69.6904C69.7195 8.78138 69.7486 8.78138 69.7778 8.78138L70.1565 9.3532H70.4478L70.04 8.7242C70.1565 8.66702 70.2439 8.60984 70.3021 8.52406ZM69.6904 8.52406H69.2825V7.80929H69.6904C69.836 7.80929 69.9526 7.83788 70.04 7.89507C70.1274 7.95225 70.1565 8.03802 70.1565 8.15238C70.1565 8.26675 70.1274 8.35252 70.04 8.4097C69.9234 8.49547 69.836 8.52406 69.6904 8.52406Z" fill="black"/>
<path d="M70.9729 7.66621C70.8272 7.43749 70.6524 7.23735 70.4194 7.12299C70.1863 6.98003 69.9242 6.92285 69.6328 6.92285C69.3415 6.92285 69.0793 6.98003 68.8463 7.12299C68.6132 7.26594 68.4093 7.43749 68.2928 7.66621C68.1471 7.89494 68.0889 8.15226 68.0889 8.43817C68.0889 8.72407 68.1471 8.98139 68.2928 9.21012C68.4384 9.43884 68.6132 9.63901 68.8463 9.75337C69.0793 9.89633 69.3415 9.95348 69.6328 9.95348C69.9242 9.95348 70.1863 9.89633 70.4194 9.75337C70.6524 9.61042 70.8564 9.43884 70.9729 9.21012C71.1186 8.98139 71.1768 8.72407 71.1768 8.43817C71.1768 8.18085 71.0894 7.89494 70.9729 7.66621ZM70.769 9.12435C70.6524 9.32448 70.4777 9.49605 70.2737 9.61042C70.0698 9.72478 69.8368 9.78193 69.6037 9.78193C69.3415 9.78193 69.1376 9.72478 68.9337 9.61042C68.7298 9.49605 68.555 9.32448 68.4384 9.12435C68.3219 8.92421 68.2636 8.69551 68.2636 8.46678C68.2636 8.23806 68.3219 8.0093 68.4384 7.80917C68.555 7.60903 68.7298 7.43752 68.9337 7.32315C69.1376 7.20879 69.3707 7.15158 69.6328 7.15158C69.895 7.15158 70.0989 7.20879 70.3029 7.32315C70.5068 7.43752 70.6524 7.60903 70.769 7.78058C70.8855 7.98071 70.9438 8.20944 70.9438 8.43817C70.9438 8.69548 70.8855 8.92421 70.769 9.12435Z" fill="black"/>
</svg>
