<svg width="13" height="25" viewBox="0 0 13 25" fill="none" xmlns="http://www.w3.org/2000/svg">
<path d="M1.99994 24.2925C1.86833 24.2932 1.73787 24.268 1.61603 24.2182C1.4942 24.1685 1.38338 24.0952 1.28994 24.0025C1.19621 23.9095 1.12182 23.7989 1.07105 23.6771C1.02028 23.5552 0.994141 23.4245 0.994141 23.2925C0.994141 23.1605 1.02028 23.0298 1.07105 22.9079C1.12182 22.786 1.19621 22.6754 1.28994 22.5825L9.45994 14.4125C10.0217 13.85 10.3373 13.0875 10.3373 12.2925C10.3373 11.4975 10.0217 10.735 9.45994 10.1725L1.28994 2.00248C1.10164 1.81418 0.995847 1.55878 0.995847 1.29248C0.995847 1.02618 1.10164 0.770786 1.28994 0.582483C1.47824 0.394179 1.73364 0.288391 1.99994 0.288391C2.26624 0.288391 2.52164 0.394179 2.70994 0.582483L10.8799 8.75248C11.3456 9.21694 11.715 9.76869 11.9671 10.3761C12.2191 10.9836 12.3489 11.6348 12.3489 12.2925C12.3489 12.9502 12.2191 13.6014 11.9671 14.2088C11.715 14.8163 11.3456 15.368 10.8799 15.8325L2.70994 24.0025C2.6165 24.0952 2.50568 24.1685 2.38385 24.2182C2.26201 24.268 2.13155 24.2932 1.99994 24.2925Z" fill="black"/>
</svg>
