<svg width="32" height="32" viewBox="0 0 32 32" fill="none" xmlns="http://www.w3.org/2000/svg">
<path d="M20 4H28V12" stroke="black" stroke-width="1.5" stroke-linecap="square" stroke-linejoin="round"/>
<path d="M12 28H4V20" stroke="black" stroke-width="1.5" stroke-linecap="square" stroke-linejoin="round"/>
<path d="M28.5297 4.53033C28.8226 4.23744 28.8226 3.76256 28.5297 3.46967C28.2368 3.17678 27.7619 3.17678 27.469 3.46967L28.5297 4.53033ZM18.1357 12.803L17.6054 13.3333L18.666 14.394L19.1963 13.8637L18.1357 12.803ZM27.469 3.46967L18.1357 12.803L19.1963 13.8637L28.5297 4.53033L27.469 3.46967Z" fill="black"/>
<path d="M3.46967 27.4696C3.17678 27.7625 3.17678 28.2374 3.46967 28.5303C3.76256 28.8232 4.23744 28.8232 4.53033 28.5303L3.46967 27.4696ZM13.8637 19.197L14.394 18.6666L13.3333 17.606L12.803 18.1363L13.8637 19.197ZM4.53033 28.5303L13.8637 19.197L12.803 18.1363L3.46967 27.4696L4.53033 28.5303Z" fill="black"/>
</svg>
