<svg width="24" height="24" viewBox="0 0 24 24" fill="none" xmlns="http://www.w3.org/2000/svg">
<path d="M5 9V10H7V9H5ZM6 2V1H5V2H6ZM18 2H19V1H18V2ZM17 9V10H19V9H17ZM7 9V2H5V9H7ZM6 3H18V1H6V3ZM17 2V9H19V2H17Z" fill="#7F7F7F"/>
<path fill-rule="evenodd" clip-rule="evenodd" d="M2 8H1V9V11V16V18V19H2H4H6H7V17H6V14H18V17H17V19H18H20H22H23V18V16V11V9V8H22H20H4H2Z" fill="#7F7F7F"/>
<path d="M18 14H6V22H18V14Z" fill="#F5F7F7"/>
<path d="M6 14V13C5.44772 13 5 13.4477 5 14H6ZM18 14H19C19 13.4477 18.5523 13 18 13V14ZM18 22V23H19V22H18ZM6 22H5V23H6V22ZM6 15H18V13H6V15ZM17 14V22H19V14H17ZM18 21H6V23H18V21ZM7 22V14H5V22H7Z" fill="#7F7F7F"/>
</svg>
