<svg width="104" height="200" viewBox="0 0 104 200" fill="none" xmlns="http://www.w3.org/2000/svg">
<path d="M447.101 125.9C446.401 125.9 445.701 126.4 445.601 127.1H425.201L416.901 118.8H345.701L332.001 132.3H308.001L291.501 115.8H263.601L239.201 140.2H176.301L158.501 158H151.401L139.201 170.2H117.001L90.4008 196.8C89.8008 196.5 89.0008 196.5 88.5008 197.1C87.9008 197.7 87.9008 198.8 88.5008 199.4C89.1008 200 90.2008 200 90.8008 199.4C91.3008 198.9 91.4008 198.1 91.1008 197.5L117.501 171.1H139.601L151.801 158.9H158.901L176.601 141.2H239.501L263.901 116.8H291.101L307.601 133.3H332.401L346.001 119.7H416.501L424.801 128H445.601C445.801 128.7 446.401 129.2 447.101 129.2C448.001 129.2 448.701 128.5 448.701 127.6C448.701 126.6 448.001 125.9 447.101 125.9Z" fill="url(#paint0_linear_251_19305)"/>
<path d="M449.999 47.1001C449.299 47.1001 448.599 47.6001 448.399 48.3001H415.499L408.599 55.2001H362.299L353.299 46.2001H332.399L328.699 49.9001H296.499L279.299 32.7001H245.999L231.099 47.6001H200.899L181.499 28.2001H161.799L146.299 43.7001H135.199L112.199 20.7001H98.9992L81.4992 3.2001C81.8992 2.6001 81.7992 1.8001 81.1992 1.3001C80.5992 0.700098 79.4992 0.700098 78.8992 1.3001C78.2992 1.9001 78.2992 3.0001 78.8992 3.6001C79.3992 4.1001 80.1992 4.2001 80.7992 3.9001L98.5992 21.7001H111.799L134.799 44.7001H146.599L162.099 29.2001H181.099L200.499 48.6001H231.399L246.299 33.7001H278.899L295.999 50.9001H328.899L332.599 47.2001H352.999L361.999 56.2001H408.999L415.899 49.3001H448.399C448.599 50.0001 449.199 50.5001 449.999 50.5001C450.899 50.5001 451.599 49.8001 451.599 48.9001C451.599 47.8001 450.799 47.1001 449.999 47.1001Z" fill="url(#paint1_linear_251_19305)"/>
<path d="M445.301 93.8001C444.601 93.8001 443.901 94.3001 443.701 95.0001H380.401L361.501 76.1001H336.101L321.401 90.8001H284.501L268.201 74.5001H241.201L235.001 80.7001H211.401L201.701 71.0001H182.601L172.201 81.4001H152.101L138.101 67.4001H112.601L94.4008 49.2001H31.1008L17.1008 35.2001C17.4008 34.6001 17.4008 33.8001 16.8008 33.3001C16.2008 32.7001 15.1008 32.7001 14.5008 33.3001C13.9008 33.9001 13.9008 35.0001 14.5008 35.6001C15.0008 36.1001 15.8008 36.2001 16.4008 35.9001L30.7008 50.2001H94.0008L112.201 68.4001H137.601L151.601 82.4001H172.401L182.801 72.0001H201.201L210.901 81.7001H235.201L241.401 75.5001H267.701L284.001 91.8001H321.601L336.301 77.1001H361.001L379.901 96.0001H443.601C443.801 96.7001 444.401 97.2001 445.201 97.2001C446.101 97.2001 446.801 96.5001 446.801 95.6001C447.001 94.6001 446.201 93.8001 445.301 93.8001Z" fill="url(#paint2_linear_251_19305)"/>
<path d="M416.3 109.8L425.9 119.4H443.5C443.7 120.1 444.3 120.6 445.1 120.6C446 120.6 446.7 119.9 446.7 119C446.7 118.1 446 117.4 445.1 117.4C444.4 117.4 443.7 117.9 443.5 118.6H426.3L416.7 109H377.3L356.9 88.6002H340.7L327.8 101.5H280L265.7 87.2002H244.5L233 98.5002H197.3L186.6 88.0002H142.9L117.5 113.4H66.9L57.1 123.2C56.5 122.9 55.7 122.9 55.2 123.5C54.6 124.1 54.6 125.2 55.2 125.8C55.8 126.4 56.9 126.4 57.5 125.8C58 125.3 58.1 124.5 57.8 123.9L67.4 114.3H118L143.4 88.9002H186.4L197 99.5002H233.5L245 88.0002H265.5L279.8 102.3H328.3L341.2 89.4002H356.6L377 109.8H416.3Z" fill="url(#paint3_linear_251_19305)"/>
<path d="M62.0004 167H83.5004L100.2 150.3H141.7L162.2 129.8H235.2L257.4 107.6C258 107.9 258.8 107.9 259.3 107.3C259.9 106.7 259.9 105.6 259.3 105C258.7 104.4 257.6 104.4 257 105C256.5 105.5 256.4 106.3 256.7 106.9L234.7 128.9H161.7L141.2 149.4H99.7004L83.0004 166.1H61.5004L45.8004 181.8H18.6004C18.4004 181.1 17.8004 180.6 17.0004 180.6C16.1004 180.6 15.4004 181.3 15.4004 182.2C15.4004 183.1 16.1004 183.8 17.0004 183.8C17.7004 183.8 18.4004 183.3 18.6004 182.6H46.2004L62.0004 167Z" fill="url(#paint4_linear_251_19305)"/>
<path d="M188.199 124.3H228.399L247.999 104.7C248.599 105 249.399 105 249.899 104.4C250.499 103.8 250.499 102.7 249.899 102.1C249.299 101.5 248.199 101.5 247.599 102.1C247.099 102.6 246.999 103.4 247.299 104L227.999 123.4H188.499L176.499 111.3H152.399L134.599 129.1H89.8992C89.6992 128.4 89.0992 127.9 88.2992 127.9C87.3992 127.9 86.6992 128.6 86.6992 129.5C86.6992 130.4 87.3992 131.1 88.2992 131.1C88.9992 131.1 89.6992 130.6 89.8992 129.9H134.899L152.699 112.1H176.099L188.199 124.3Z" fill="url(#paint5_linear_251_19305)"/>
<path d="M71.7992 152.4L85.3992 138.8H140.299L158.899 120.2H170.799C170.999 120.9 171.599 121.4 172.399 121.4C173.299 121.4 173.999 120.7 173.999 119.8C173.999 118.9 173.299 118.2 172.399 118.2C171.699 118.2 170.999 118.7 170.799 119.4H158.499L139.999 138H85.0992L71.4992 151.6H52.1992L42.2992 161.5C41.6992 161.2 40.8992 161.2 40.3992 161.8C39.7992 162.4 39.7992 163.5 40.3992 164.1C40.9992 164.7 42.0992 164.7 42.6992 164.1C43.1992 163.6 43.2992 162.8 42.9992 162.2L52.6992 152.5H71.7992V152.4Z" fill="url(#paint6_linear_251_19305)"/>
<path d="M83.3992 119H122.399L145.299 96.1001H179.799L189.299 105.6H214.999C215.199 106.3 215.799 106.8 216.499 106.8C217.399 106.8 218.099 106.1 218.099 105.2C218.099 104.3 217.399 103.6 216.499 103.6C215.799 103.6 215.099 104.1 214.999 104.8H189.699L180.199 95.3H144.999L122.099 118.2H83.3992C83.1992 117.5 82.5992 117 81.7992 117C80.8992 117 80.1992 117.7 80.1992 118.6C80.1992 119.5 80.8992 120.2 81.7992 120.2C82.5992 120.2 83.1992 119.7 83.3992 119Z" fill="url(#paint7_linear_251_19305)"/>
<path d="M40.6004 145.4C41.3004 145.4 42.0004 144.9 42.2004 144.2H57.9004L77.8004 124.3H128.6L149.4 103.5H177.2L189.6 115.9H222.4C222.6 116.6 223.2 117.1 224 117.1C224.9 117.1 225.6 116.4 225.6 115.5C225.6 114.6 224.9 113.9 224 113.9C223.3 113.9 222.6 114.4 222.4 115.1H190L177.6 102.7H149L128.2 123.5H77.4004L57.5004 143.4H42.1004C41.9004 142.7 41.3004 142.2 40.5004 142.2C39.6004 142.2 38.9004 142.9 38.9004 143.8C38.9004 144.7 39.7004 145.4 40.6004 145.4Z" fill="url(#paint8_linear_251_19305)"/>
<path d="M96.3004 178.8L113.6 161.5H140.6L166.6 135.5H232C232.2 136.2 232.8 136.7 233.6 136.7C234.5 136.7 235.2 136 235.2 135.1C235.2 134.2 234.5 133.5 233.6 133.5C232.9 133.5 232.2 134 232 134.7H166.3L140.3 160.7H113.3L95.9004 178H68.3004L51.0004 195.3C50.4004 195 49.6004 195 49.1004 195.6C48.5004 196.2 48.5004 197.3 49.1004 197.9C49.7004 198.5 50.8004 198.5 51.4004 197.9C51.9004 197.4 52.0004 196.6 51.7004 196L68.7004 179H96.3004V178.8Z" fill="url(#paint9_linear_251_19305)"/>
<path d="M394.401 59.9C393.701 59.9 393.001 60.4 392.901 61.1H356.601L349.201 53.7H292.601L278.201 39.3H250.801L232.701 57.4H192.901L176.601 41.1H159.001L147.101 53H129.801L114.501 37.7H34.5008C34.3008 37 33.7008 36.5 32.9008 36.5C32.0008 36.5 31.3008 37.2 31.3008 38.1C31.3008 39 32.0008 39.7 32.9008 39.7C33.6008 39.7 34.3008 39.2 34.5008 38.5H114.201L129.501 53.8H147.501L159.401 42H176.201L192.501 58.3H233.001L251.001 40.2H277.701L292.101 54.6H348.701L356.101 62H392.701C392.901 62.7 393.501 63.2 394.201 63.2C395.101 63.2 395.801 62.5 395.801 61.6C396.001 60.7 395.201 59.9 394.401 59.9Z" fill="url(#paint10_linear_251_19305)"/>
<path d="M220.7 71.8001H213.3L205.4 63.9001H175.3L168.1 71.1001H151.8L143.3 62.6001H117L97.0004 42.6001H37.0004C36.8004 41.9001 36.2004 41.4001 35.5004 41.4001C34.6004 41.4001 33.9004 42.1001 33.9004 43.0001C33.9004 43.9001 34.6004 44.6001 35.5004 44.6001C36.2004 44.6001 36.9004 44.1001 37.0004 43.4001H96.7004L116.7 63.4001H143L151.5 71.9001H168.5L175.7 64.7001H205.1L213 72.6001H221.1L227.7 66.0001H268.2L284.7 82.5001H314.2L326.1 70.6001H352.3C352.5 71.3001 353.1 71.8001 353.9 71.8001C354.8 71.8001 355.5 71.1001 355.5 70.2001C355.5 69.3001 354.8 68.6001 353.9 68.6001C353.2 68.6001 352.5 69.1001 352.3 69.8001H325.7L313.8 81.7001H285L268.5 65.2001H227.3L220.7 71.8001Z" fill="url(#paint11_linear_251_19305)"/>
<path d="M62.6004 101L46.5004 117.1C45.9004 116.8 45.1004 116.8 44.6004 117.4C44.0004 118 44.0004 119.1 44.6004 119.7C45.2004 120.3 46.3004 120.3 46.9004 119.7C47.4004 119.2 47.5004 118.4 47.2004 117.8L63.1004 101.9H119.2L138.8 82.3C139.4 82.7 140.2 82.6 140.7 82C141.3 81.4 141.3 80.3 140.7 79.7C140.1 79.1 139 79.1 138.4 79.7C137.9 80.2 137.8 81 138.1 81.6L118.7 101H62.6004Z" fill="url(#paint12_linear_251_19305)"/>
<path d="M17.8 61.3H34.8L42.7 69.2H60.7L69.8 60.1H92.4L108.2 75.9H132.4C132.6 76.6 133.2 77.1 134 77.1C134.9 77.1 135.6 76.4 135.6 75.5C135.6 74.6 134.9 73.9 134 73.9C133.3 73.9 132.6 74.4 132.4 75.1H108.5L92.7 59.3H69.4L60.3 68.4H43L35.1 60.5H18.2L3.30001 45.6C3.60001 45 3.6 44.2 3 43.7C2.4 43.1 1.3 43.1 0.7 43.7C0.1 44.3 0.1 45.4 0.7 46C1.2 46.5 2.00001 46.6 2.60001 46.3L17.8 61.3Z" fill="url(#paint13_linear_251_19305)"/>
<path d="M94.5004 91.4L82.9004 79.8H68.8004L57.9004 90.7H42.1004L34.0004 98.8C33.4004 98.5 32.6004 98.5001 32.1004 99.1001C31.5004 99.7001 31.5004 100.8 32.1004 101.4C32.7004 102 33.8004 102 34.4004 101.4C34.9004 100.9 35.0004 100.1 34.7004 99.5L42.6004 91.6001H58.4004L69.3004 80.7H82.7004L94.3004 92.3H115.9L124.5 83.7C125.1 84.1 125.9 84 126.4 83.4C127 82.8 127 81.7001 126.4 81.1001C125.8 80.5001 124.7 80.5001 124.1 81.1001C123.6 81.6001 123.5 82.4 123.8 83L115.4 91.4H94.5004Z" fill="url(#paint14_linear_251_19305)"/>
<path d="M72.5008 96.8C72.7008 97.5 73.3008 98 74.0008 98C74.9008 98 75.6008 97.3 75.6008 96.4C75.6008 95.5 74.9008 94.8 74.0008 94.8C73.3008 94.8 72.6008 95.3 72.5008 96H48.8008L30.9008 113.9C30.3008 113.5 29.5008 113.6 29.0008 114.2C28.4008 114.8 28.4008 115.9 29.0008 116.5C29.6008 117.1 30.7008 117.1 31.3008 116.5C31.8008 116 31.9008 115.2 31.6008 114.6L49.3008 96.9H72.5008V96.8Z" fill="url(#paint15_linear_251_19305)"/>
<path d="M35.8008 83.8H52.9008L61.1008 75.6H94.4008L101.301 82.5H114.501C114.701 83.2 115.301 83.7 116.101 83.7C117.001 83.7 117.701 83.0001 117.701 82.1001C117.701 81.2001 117.001 80.5 116.101 80.5C115.401 80.5 114.701 81 114.501 81.7H101.601L94.7008 74.8H60.7008L52.5008 83H35.4008L11.4008 107C10.8008 106.7 10.0008 106.7 9.50078 107.3C8.90078 107.9 8.90078 109 9.50078 109.6C10.1008 110.2 11.2008 110.2 11.8008 109.6C12.3008 109.1 12.4008 108.3 12.1008 107.7L35.8008 83.8Z" fill="url(#paint16_linear_251_19305)"/>
<path d="M99.7008 75.4001C100.301 76.0001 101.401 76.0001 102.001 75.4001C102.601 74.8001 102.601 73.7001 102.001 73.1001C101.501 72.6001 100.701 72.5001 100.101 72.8001L93.4008 66.1001H75.0008C74.8008 65.4001 74.2008 64.9001 73.4008 64.9001C72.5008 64.9001 71.8008 65.6001 71.8008 66.5001C71.8008 67.4001 72.5008 68.1001 73.4008 68.1001C74.1008 68.1001 74.8008 67.6001 75.0008 66.9001H92.9008L99.4008 73.4001C99.1008 74.1001 99.1008 74.9001 99.7008 75.4001Z" fill="url(#paint17_linear_251_19305)"/>
<path d="M17.1996 5.7C17.8996 5.7 18.5996 5.2 18.7996 4.5H40.9996L45.4996 9H71.7996L91.3996 28.6H110.8C111 29.3 111.6 29.8 112.4 29.8C113.3 29.8 114 29.1 114 28.2C114 27.3 113.3 26.6 112.4 26.6C111.7 26.6 111 27.1 110.8 27.8H91.6996L72.0996 8.2H45.7996L41.2996 3.7H18.7996C18.5996 3 17.9996 2.5 17.1996 2.5C16.2996 2.5 15.5996 3.2 15.5996 4.1C15.5996 4.9 16.2996 5.7 17.1996 5.7Z" fill="url(#paint18_linear_251_19305)"/>
<path d="M2.40077 14.6001C3.10077 14.6001 3.80078 14.1001 4.00078 13.4001H40.1008L44.0008 17.3001H65.7008L82.6008 34.2001H105.401C105.601 34.9001 106.201 35.4001 107.001 35.4001C107.901 35.4001 108.601 34.7001 108.601 33.8001C108.601 32.9001 107.901 32.2001 107.001 32.2001C106.301 32.2001 105.601 32.7001 105.401 33.4001H83.0008L66.1008 16.5001H44.4008L40.5008 12.6001H4.00078C3.80078 11.9001 3.20077 11.4001 2.40077 11.4001C1.50077 11.4001 0.800781 12.1001 0.800781 13.0001C0.800781 13.9001 1.50077 14.6001 2.40077 14.6001Z" fill="url(#paint19_linear_251_19305)"/>
<path d="M27.9004 17.6001C27.3004 17.0001 26.2004 17.0001 25.6004 17.6001C25.0004 18.2001 25.0004 19.3001 25.6004 19.9001C26.1004 20.4001 26.9004 20.5001 27.5004 20.2001L37.8004 30.5001H63.4004C63.6004 31.2001 64.2004 31.7001 65.0004 31.7001C65.9004 31.7001 66.6004 31.0001 66.6004 30.1001C66.6004 29.2001 65.9004 28.5001 65.0004 28.5001C64.3004 28.5001 63.6004 29.0001 63.4004 29.7001H38.1004L28.1004 19.7001C28.5004 19.0001 28.4004 18.2001 27.9004 17.6001Z" fill="url(#paint20_linear_251_19305)"/>
<path d="M134.799 84.8L125.199 94.5H69.5992C69.2992 93.6 68.4992 92.9 67.4992 92.9C66.2992 92.9 65.2992 93.9001 65.2992 95.1001C65.2992 96.3 66.2992 97.3 67.4992 97.3C68.4992 97.3 69.3992 96.6 69.5992 95.7H125.699L136.499 84.9L136.399 84.8H186.599L207.099 64.3H234.499L244.499 74.3C243.999 75.1 244.099 76.2 244.899 77C245.799 77.9 247.199 77.9 247.999 77C248.899 76.1 248.899 74.7 247.999 73.9C247.299 73.2 246.199 73.1 245.299 73.5L234.999 63.2H208.299L224.899 46.6H325.499L351.999 20H410.499V18.8H351.499L324.999 45.3H279.699L268.599 34.2H209.799L173.199 70.8H160.199L146.999 57.6H61.9992L50.3992 46C50.8992 45.2 50.7992 44.1 49.9992 43.3C49.0992 42.4 47.6992 42.4 46.8992 43.3C45.9992 44.2 45.9992 45.6 46.8992 46.4C47.5992 47.1 48.6992 47.2 49.5992 46.8L61.4992 58.7H146.499L158.599 70.8H122.499C122.199 69.9 121.399 69.2 120.399 69.2C119.199 69.2 118.199 70.2 118.199 71.4C118.199 72.6 119.199 73.6 120.399 73.6C121.399 73.6 122.299 72.9 122.499 72H173.799L210.399 35.4H268.199L278.099 45.3H224.399L186.099 83.6001H44.9992C44.6992 82.7001 43.8992 82 42.8992 82C41.6992 82 40.6992 83 40.6992 84.2C40.6992 85.4 41.6992 86.4 42.8992 86.4C43.8992 86.4 44.7992 85.7001 44.9992 84.8H134.799Z" fill="url(#paint21_linear_251_19305)"/>
<path d="M485.199 61.9001C484.499 61.2001 483.399 61.1001 482.499 61.5001L471.899 50.9001H448.599L436.599 62.9001H414.199L394.199 82.9001H376.899C376.599 82.0001 375.799 81.3001 374.799 81.3001C373.599 81.3001 372.599 82.3001 372.599 83.5001C372.599 84.7001 373.599 85.7001 374.799 85.7001C375.799 85.7001 376.699 85.0002 376.899 84.1002H394.699L414.699 64.1001H435.399L402.999 96.4001H369.799L355.799 110.4H305.499L294.999 120.8H266.199L262.499 124.5C261.699 124 260.599 124.1 259.799 124.9C258.899 125.8 258.899 127.2 259.799 128C260.699 128.9 262.099 128.9 262.899 128C263.599 127.3 263.699 126.2 263.299 125.3L266.599 122H281.899L261.499 142.4H246.999L234.499 129.8H209.599C209.299 128.9 208.499 128.2 207.499 128.2C206.299 128.2 205.299 129.2 205.299 130.4C205.299 131.6 206.299 132.6 207.499 132.6C208.499 132.6 209.399 131.9 209.599 131H233.999L245.399 142.4H206.399L193.499 129.5H100.399L93.3992 122.5C93.8992 121.7 93.7992 120.6 92.9992 119.8C92.0992 118.9 90.6992 118.9 89.8992 119.8C88.9992 120.7 88.9992 122.1 89.8992 122.9C90.5992 123.6 91.6992 123.7 92.5992 123.3L99.9992 130.7H170.999L151.499 150.2H64.2992L49.6992 164.8C48.8992 164.3 47.7992 164.4 46.9992 165.2C46.0992 166.1 46.0992 167.5 46.9992 168.3C47.8992 169.2 49.2992 169.2 50.0992 168.3C50.7992 167.6 50.8992 166.5 50.4992 165.6L64.7992 151.3H151.999L172.599 130.7H193.099L205.999 143.6H262.099L283.599 122.1H295.399L305.899 111.6H354.499L334.299 131.8H289.999C289.699 130.9 288.899 130.2 287.899 130.2C286.699 130.2 285.699 131.2 285.699 132.4C285.699 133.6 286.699 134.6 287.899 134.6C288.899 134.6 289.799 133.9 289.999 133H334.799L370.199 97.6002H403.399L448.999 52.1001H471.399L481.699 62.4001C481.199 63.2001 481.299 64.3001 482.099 65.1001C482.999 66.0001 484.399 66.0001 485.199 65.1001C485.999 64.1001 485.999 62.7001 485.199 61.9001Z" fill="url(#paint22_linear_251_19305)"/>
<defs>
<linearGradient id="paint0_linear_251_19305" x1="87.9991" y1="157.85" x2="448.739" y2="157.85" gradientUnits="userSpaceOnUse">
<stop stop-color="#D6D6D6"/>
<stop offset="0.2902" stop-color="#929399"/>
<stop offset="0.4459" stop-color="#6C6F7B"/>
<stop offset="0.7052" stop-color="#33374D"/>
<stop offset="0.8975" stop-color="#0F1530"/>
<stop offset="1" stop-color="#010825"/>
</linearGradient>
<linearGradient id="paint1_linear_251_19305" x1="78.7108" y1="28.4137" x2="451.577" y2="28.4137" gradientUnits="userSpaceOnUse">
<stop stop-color="#D6D6D6"/>
<stop offset="0.2902" stop-color="#929399"/>
<stop offset="0.4459" stop-color="#6C6F7B"/>
<stop offset="0.7052" stop-color="#33374D"/>
<stop offset="0.8975" stop-color="#0F1530"/>
<stop offset="1" stop-color="#010825"/>
</linearGradient>
<linearGradient id="paint2_linear_251_19305" x1="14.2307" y1="64.9862" x2="446.963" y2="64.9862" gradientUnits="userSpaceOnUse">
<stop stop-color="#D6D6D6"/>
<stop offset="0.2902" stop-color="#929399"/>
<stop offset="0.4459" stop-color="#6C6F7B"/>
<stop offset="0.7052" stop-color="#33374D"/>
<stop offset="0.8975" stop-color="#0F1530"/>
<stop offset="1" stop-color="#010825"/>
</linearGradient>
<linearGradient id="paint3_linear_251_19305" x1="54.6862" y1="106.64" x2="446.606" y2="106.64" gradientUnits="userSpaceOnUse">
<stop stop-color="#D6D6D6"/>
<stop offset="0.2902" stop-color="#929399"/>
<stop offset="0.4459" stop-color="#6C6F7B"/>
<stop offset="0.7052" stop-color="#33374D"/>
<stop offset="0.8975" stop-color="#0F1530"/>
<stop offset="1" stop-color="#010825"/>
</linearGradient>
<linearGradient id="paint4_linear_251_19305" x1="15.5552" y1="144.233" x2="259.938" y2="144.233" gradientUnits="userSpaceOnUse">
<stop stop-color="#D6D6D6"/>
<stop offset="0.2902" stop-color="#929399"/>
<stop offset="0.4459" stop-color="#6C6F7B"/>
<stop offset="0.7052" stop-color="#33374D"/>
<stop offset="0.8975" stop-color="#0F1530"/>
<stop offset="1" stop-color="#010825"/>
</linearGradient>
<linearGradient id="paint5_linear_251_19305" x1="86.6728" y1="116.458" x2="250.39" y2="116.458" gradientUnits="userSpaceOnUse">
<stop stop-color="#D6D6D6"/>
<stop offset="0.2902" stop-color="#929399"/>
<stop offset="0.4459" stop-color="#6C6F7B"/>
<stop offset="0.7052" stop-color="#33374D"/>
<stop offset="0.8975" stop-color="#0F1530"/>
<stop offset="1" stop-color="#010825"/>
</linearGradient>
<linearGradient id="paint6_linear_251_19305" x1="39.7803" y1="141.358" x2="174.017" y2="141.358" gradientUnits="userSpaceOnUse">
<stop stop-color="#D6D6D6"/>
<stop offset="0.2902" stop-color="#929399"/>
<stop offset="0.4459" stop-color="#6C6F7B"/>
<stop offset="0.7052" stop-color="#33374D"/>
<stop offset="0.8975" stop-color="#0F1530"/>
<stop offset="1" stop-color="#010825"/>
</linearGradient>
<linearGradient id="paint7_linear_251_19305" x1="80.2303" y1="107.741" x2="218.174" y2="107.741" gradientUnits="userSpaceOnUse">
<stop stop-color="#D6D6D6"/>
<stop offset="0.2902" stop-color="#929399"/>
<stop offset="0.4459" stop-color="#6C6F7B"/>
<stop offset="0.7052" stop-color="#33374D"/>
<stop offset="0.8975" stop-color="#0F1530"/>
<stop offset="1" stop-color="#010825"/>
</linearGradient>
<linearGradient id="paint8_linear_251_19305" x1="38.9399" y1="124.028" x2="225.57" y2="124.028" gradientUnits="userSpaceOnUse">
<stop stop-color="#D6D6D6"/>
<stop offset="0.2902" stop-color="#929399"/>
<stop offset="0.4459" stop-color="#6C6F7B"/>
<stop offset="0.7052" stop-color="#33374D"/>
<stop offset="0.8975" stop-color="#0F1530"/>
<stop offset="1" stop-color="#010825"/>
</linearGradient>
<linearGradient id="paint9_linear_251_19305" x1="48.6739" y1="165.849" x2="235.118" y2="165.849" gradientUnits="userSpaceOnUse">
<stop stop-color="#D6D6D6"/>
<stop offset="0.2902" stop-color="#929399"/>
<stop offset="0.4459" stop-color="#6C6F7B"/>
<stop offset="0.7052" stop-color="#33374D"/>
<stop offset="0.8975" stop-color="#0F1530"/>
<stop offset="1" stop-color="#010825"/>
</linearGradient>
<linearGradient id="paint10_linear_251_19305" x1="31.3015" y1="49.8721" x2="395.974" y2="49.8721" gradientUnits="userSpaceOnUse">
<stop stop-color="#D6D6D6"/>
<stop offset="0.2902" stop-color="#929399"/>
<stop offset="0.4459" stop-color="#6C6F7B"/>
<stop offset="0.7052" stop-color="#33374D"/>
<stop offset="0.8975" stop-color="#0F1530"/>
<stop offset="1" stop-color="#010825"/>
</linearGradient>
<linearGradient id="paint11_linear_251_19305" x1="33.6941" y1="61.9108" x2="355.403" y2="61.9108" gradientUnits="userSpaceOnUse">
<stop stop-color="#D6D6D6"/>
<stop offset="0.2902" stop-color="#929399"/>
<stop offset="0.4459" stop-color="#6C6F7B"/>
<stop offset="0.7052" stop-color="#33374D"/>
<stop offset="0.8975" stop-color="#0F1530"/>
<stop offset="1" stop-color="#010825"/>
</linearGradient>
<linearGradient id="paint12_linear_251_19305" x1="44.0781" y1="99.6873" x2="141.086" y2="99.6873" gradientUnits="userSpaceOnUse">
<stop stop-color="#D6D6D6"/>
<stop offset="0.2902" stop-color="#929399"/>
<stop offset="0.4459" stop-color="#6C6F7B"/>
<stop offset="0.7052" stop-color="#33374D"/>
<stop offset="0.8975" stop-color="#0F1530"/>
<stop offset="1" stop-color="#010825"/>
</linearGradient>
<linearGradient id="paint13_linear_251_19305" x1="0.1653" y1="60.0474" x2="135.36" y2="60.0474" gradientUnits="userSpaceOnUse">
<stop stop-color="#D6D6D6"/>
<stop offset="0.2902" stop-color="#929399"/>
<stop offset="0.4459" stop-color="#6C6F7B"/>
<stop offset="0.7052" stop-color="#33374D"/>
<stop offset="0.8975" stop-color="#0F1530"/>
<stop offset="1" stop-color="#010825"/>
</linearGradient>
<linearGradient id="paint14_linear_251_19305" x1="31.5784" y1="90.8948" x2="126.765" y2="90.8948" gradientUnits="userSpaceOnUse">
<stop stop-color="#D6D6D6"/>
<stop offset="0.2902" stop-color="#929399"/>
<stop offset="0.4459" stop-color="#6C6F7B"/>
<stop offset="0.7052" stop-color="#33374D"/>
<stop offset="0.8975" stop-color="#0F1530"/>
<stop offset="1" stop-color="#010825"/>
</linearGradient>
<linearGradient id="paint15_linear_251_19305" x1="28.4456" y1="105.858" x2="75.6942" y2="105.858" gradientUnits="userSpaceOnUse">
<stop stop-color="#D6D6D6"/>
<stop offset="0.2902" stop-color="#929399"/>
<stop offset="0.4459" stop-color="#6C6F7B"/>
<stop offset="0.7052" stop-color="#33374D"/>
<stop offset="0.8975" stop-color="#0F1530"/>
<stop offset="1" stop-color="#010825"/>
</linearGradient>
<linearGradient id="paint16_linear_251_19305" x1="9.05328" y1="92.3419" x2="117.702" y2="92.3419" gradientUnits="userSpaceOnUse">
<stop stop-color="#D6D6D6"/>
<stop offset="0.2902" stop-color="#929399"/>
<stop offset="0.4459" stop-color="#6C6F7B"/>
<stop offset="0.7052" stop-color="#33374D"/>
<stop offset="0.8975" stop-color="#0F1530"/>
<stop offset="1" stop-color="#010825"/>
</linearGradient>
<linearGradient id="paint17_linear_251_19305" x1="71.8767" y1="70.4163" x2="102.42" y2="70.4163" gradientUnits="userSpaceOnUse">
<stop stop-color="#D6D6D6"/>
<stop offset="0.2902" stop-color="#929399"/>
<stop offset="0.4459" stop-color="#6C6F7B"/>
<stop offset="0.7052" stop-color="#33374D"/>
<stop offset="0.8975" stop-color="#0F1530"/>
<stop offset="1" stop-color="#010825"/>
</linearGradient>
<linearGradient id="paint18_linear_251_19305" x1="15.5544" y1="16.0983" x2="113.883" y2="16.0983" gradientUnits="userSpaceOnUse">
<stop stop-color="#D6D6D6"/>
<stop offset="0.2902" stop-color="#929399"/>
<stop offset="0.4459" stop-color="#6C6F7B"/>
<stop offset="0.7052" stop-color="#33374D"/>
<stop offset="0.8975" stop-color="#0F1530"/>
<stop offset="1" stop-color="#010825"/>
</linearGradient>
<linearGradient id="paint19_linear_251_19305" x1="0.758181" y1="23.4365" x2="108.631" y2="23.4365" gradientUnits="userSpaceOnUse">
<stop stop-color="#D6D6D6"/>
<stop offset="0.2902" stop-color="#929399"/>
<stop offset="0.4459" stop-color="#6C6F7B"/>
<stop offset="0.7052" stop-color="#33374D"/>
<stop offset="0.8975" stop-color="#0F1530"/>
<stop offset="1" stop-color="#010825"/>
</linearGradient>
<linearGradient id="paint20_linear_251_19305" x1="25.1039" y1="24.4275" x2="66.6263" y2="24.4275" gradientUnits="userSpaceOnUse">
<stop stop-color="#D6D6D6"/>
<stop offset="0.2902" stop-color="#929399"/>
<stop offset="0.4459" stop-color="#6C6F7B"/>
<stop offset="0.7052" stop-color="#33374D"/>
<stop offset="0.8975" stop-color="#0F1530"/>
<stop offset="1" stop-color="#010825"/>
</linearGradient>
<linearGradient id="paint21_linear_251_19305" x1="40.6797" y1="58.0583" x2="410.495" y2="58.0583" gradientUnits="userSpaceOnUse">
<stop stop-color="#C9C9C9"/>
<stop offset="0.5307" stop-color="#E8E8E8"/>
<stop offset="1" stop-color="white"/>
</linearGradient>
<linearGradient id="paint22_linear_251_19305" x1="46.4048" y1="109.894" x2="485.822" y2="109.894" gradientUnits="userSpaceOnUse">
<stop stop-color="#C9C9C9"/>
<stop offset="0.5307" stop-color="#E8E8E8"/>
<stop offset="1" stop-color="white"/>
</linearGradient>
</defs>
</svg>
