<svg width="32" height="32" viewBox="0 0 32 32" fill="none" xmlns="http://www.w3.org/2000/svg">
<g clip-path="url(#clip0_252_27867)">
<path d="M25.6929 6.20508V21.7862V23.6613H23.8178H11.2715V26.7904H23.2275L28.8459 30.7989V26.7904H31.9995V6.20508H25.6929Z" fill="black"/>
<path d="M11.9094 8.42798C10.219 8.42798 8.84375 9.80323 8.84375 11.4936C8.84375 13.184 10.219 14.5592 11.9094 14.5592C13.5998 14.5592 14.975 13.184 14.975 11.4936C14.975 9.80323 13.5998 8.42798 11.9094 8.42798Z" fill="black"/>
<path d="M0 1.20093V21.7863H3.15363V25.7947L8.77194 21.7863H23.8183V21.7862V1.20093H0ZM18.1346 12.4311H16.7595C16.6309 13.0976 16.3689 13.7171 16.001 14.2596L16.9741 15.2327L15.6482 16.5586L14.6751 15.5854C14.1326 15.9533 13.5131 16.2153 12.8468 16.3439V17.719H10.9717V16.3439C10.3052 16.2153 9.68575 15.9533 9.14331 15.5854L8.17019 16.5584L6.84431 15.2326L7.81744 14.2595C7.44956 13.717 7.18756 13.0975 7.05888 12.4311H5.68375V10.556H7.05881C7.18738 9.88955 7.44937 9.27005 7.81725 8.72762L6.84419 7.75449L8.17006 6.42862L9.14312 7.40174C9.68563 7.03386 10.3051 6.7718 10.9716 6.64318V5.26824H12.8466V6.64324C13.5131 6.7718 14.1326 7.03387 14.6751 7.4018L15.6481 6.42868L16.974 7.75455L16.0009 8.72768C16.3688 9.27018 16.6308 9.88968 16.7594 10.5561H18.1344V12.4311H18.1346Z" fill="black"/>
</g>
<defs>
<clipPath id="clip0_252_27867">
<rect width="32" height="32" fill="white"/>
</clipPath>
</defs>
</svg>
