<svg width="296" height="180" viewBox="0 0 296 180" fill="none" xmlns="http://www.w3.org/2000/svg">
<mask id="mask0_429_704" style="mask-type:alpha" maskUnits="userSpaceOnUse" x="-1" y="0" width="297" height="180">
<rect x="-0.000976562" y="0.912231" width="296.001" height="178.176" fill="#C4C4C4"/>
</mask>
<g mask="url(#mask0_429_704)">
<path fill-rule="evenodd" clip-rule="evenodd" d="M188.143 22.2864V20.5717H215.311V22.2864C212.618 22.2864 210.416 23.2662 208.213 25.2259C206.255 26.9406 204.297 30.125 202.094 34.7791L169.787 108.266H168.074L139.927 40.903C139.927 40.903 134.543 25.4708 115.452 24.0011H112.025C92.6899 24.0011 77.2705 42.1278 77.2705 64.6636C77.2705 87.1994 92.6899 105.571 112.025 105.571C130.626 105.571 145.801 88.4242 146.78 66.8682L147.27 67.1131L154.123 82.5453C152.165 88.1793 148.738 93.0784 144.333 97.4875C135.766 106.061 124.752 110.225 111.291 110.225C98.5639 110.225 88.0396 105.816 79.9627 96.9976C71.8859 88.1793 67.9699 77.4013 67.9699 64.4187C67.9699 51.1911 72.3754 40.4131 81.4313 32.0846C89.5081 24.491 99.2982 20.3268 110.312 19.5919H111.291H111.536H113.494H113.739C114.35 19.5919 114.962 19.6532 115.574 19.7144C116.186 19.7756 116.798 19.8369 117.41 19.8369C124.018 20.3268 133.074 22.7763 140.906 30.3699C141.151 30.6149 144.822 34.5342 147.514 40.658C147.514 40.5284 152.384 52.2747 157.658 64.9948C162.346 76.3029 167.354 88.3807 169.542 93.5683L174.682 81.3205L195.975 32.5745C196.465 31.5947 196.71 30.8598 196.954 29.88C197.199 29.1452 197.199 28.1653 197.199 27.4305C197.199 25.4708 196.465 24.0011 194.996 23.2662C193.528 22.5314 191.325 22.2864 188.143 22.2864ZM62.3396 152.357V139.13L57.9341 140.6V141.089H58.4236H58.9131C59.1578 141.089 59.4026 141.334 59.6473 141.579C59.8921 142.069 59.8921 142.559 59.8921 143.294V152.847C59.8921 155.052 59.8921 156.522 59.6473 157.012C59.4026 157.501 59.1578 157.746 58.6683 157.746C58.546 157.746 58.4236 157.685 58.3012 157.624C58.1788 157.563 58.0564 157.501 57.9341 157.501L57.1998 156.767L57.1998 156.767C56.955 156.522 56.7103 156.277 56.4656 156.277H55.7313C55.4866 156.277 55.2418 156.277 54.9971 156.522C54.7523 156.767 54.7523 157.012 54.7523 157.256C54.7523 157.746 54.7523 158.236 55.2418 158.481C55.7313 158.726 56.2208 158.971 56.9551 158.971C58.6683 158.971 59.8921 158.236 60.8711 157.256C61.8501 156.032 62.3396 154.562 62.3396 152.357ZM59.7001 133.601C59.5338 133.89 59.4026 134.117 59.4026 134.476C59.4026 134.966 59.6473 135.456 59.8921 135.456C60.0231 135.521 60.1365 135.587 60.2418 135.647L60.2423 135.648C60.5303 135.814 60.7575 135.945 61.1159 135.945C61.6054 135.945 62.0949 135.7 62.3396 135.456C62.405 135.325 62.4707 135.211 62.5314 135.105L62.5316 135.105C62.698 134.817 62.8291 134.589 62.8291 134.231C62.8291 133.986 62.5844 133.496 62.3396 133.251C62.2087 133.185 62.0952 133.12 61.9899 133.059L61.9894 133.059C61.7014 132.892 61.4742 132.761 61.1159 132.761C60.6264 132.761 60.1369 133.006 59.8921 133.251C59.8265 133.382 59.7609 133.496 59.7001 133.601ZM22.445 133.006H14.3682V133.251H14.8577C15.5919 133.251 16.0814 133.496 16.5709 133.741C17.0604 134.231 17.3052 134.721 17.3052 135.456V150.888C17.3052 151.867 17.0604 152.357 16.5709 152.602C16.3262 152.847 15.5919 153.092 14.8577 153.092H14.3682V153.582H23.424V153.092H22.9345C22.2002 153.092 21.7107 152.847 21.2212 152.602C20.7317 152.112 20.487 151.623 20.487 150.888V143.784C21.0988 143.906 21.5884 144.029 21.9555 144.121C22.3226 144.213 22.5674 144.274 22.6897 144.274H23.6688C25.6268 144.274 27.34 143.784 28.5638 142.804C29.7876 141.579 30.5218 140.355 30.5218 138.395C30.5218 136.435 30.0323 134.966 28.5638 134.231C27.0953 133.496 25.1373 133.006 22.445 133.006ZM20.487 142.559V134.231C20.7317 134.231 20.9765 134.231 21.2212 133.741H22.445C23.9135 133.741 25.1373 134.231 25.8715 134.966C26.6058 135.7 27.0953 136.925 27.0953 138.395C27.0953 139.865 26.6058 140.845 25.8715 141.579C25.1373 142.314 24.1583 142.804 22.9345 142.804H21.7107C21.2212 142.804 20.9765 142.804 20.487 142.559ZM36.8854 141.824V139.13L31.7456 140.845V141.334H32.2351H32.7246C32.9693 141.334 33.2141 141.579 33.4588 141.824C33.7036 142.314 33.7036 142.804 33.7036 143.539V151.133C33.7036 152.112 33.7036 152.847 33.2141 153.092C32.9693 153.337 32.4798 153.582 31.7456 153.582H31.5008V154.072H38.8434V153.582H38.5986C37.8644 153.582 37.3749 153.337 36.8854 153.092C36.6406 152.602 36.3959 152.112 36.3959 151.133V143.294C36.6406 142.804 37.1301 142.314 37.3749 142.069C37.5619 141.976 37.7131 141.882 37.8423 141.802C38.0514 141.673 38.2026 141.579 38.3539 141.579H38.8434C38.9474 141.579 39.0072 141.579 39.0604 141.598C39.1323 141.624 39.1922 141.683 39.3329 141.824C39.5777 142.069 39.8224 142.314 40.0672 142.314H40.5567C41.0462 142.314 41.2909 142.069 41.5357 141.824C41.7804 141.579 41.7804 141.334 41.7804 140.845C41.7804 140.355 41.7804 139.865 41.2909 139.62C41.0462 139.375 40.5567 139.13 40.0672 139.13C39.5777 139.13 39.0882 139.375 38.3539 139.865C37.8644 140.355 37.3749 141.089 36.8854 141.824ZM49.3677 153.827C47.4097 153.827 45.6965 153.092 44.4727 151.868C43.2489 150.643 42.5147 148.683 42.5147 146.723C42.5147 144.764 43.2489 143.049 44.4727 141.579C45.6965 140.11 47.4097 139.375 49.3677 139.375C51.3258 139.375 53.039 140.11 54.2628 141.334C55.4866 142.804 56.2208 144.519 56.2208 146.478C56.2208 148.683 55.4866 150.398 54.2628 151.623C53.039 153.092 51.3258 153.827 49.3677 153.827ZM45.4517 146.234C45.4517 147.948 45.9412 149.418 46.6755 150.643C47.6545 151.868 48.6335 152.602 49.8573 152.602C51.081 152.602 51.8153 152.112 52.5495 150.888C53.2838 149.908 53.5285 148.193 53.5285 145.989C53.5285 144.519 53.039 143.049 52.3048 141.824C51.5705 140.6 50.3468 139.865 49.123 139.865C47.8992 139.865 47.165 140.355 46.4307 141.334C45.6965 142.804 45.4517 144.274 45.4517 146.234ZM76.2924 144.764H67.2366C67.2366 146.723 67.4813 148.438 68.4603 149.663C69.1946 150.888 70.4184 151.623 71.8869 151.623C72.8659 151.623 73.6001 151.378 74.5791 150.643C75.3134 149.908 76.0477 149.173 76.2924 148.193L76.7819 148.438C76.2924 150.153 75.5582 151.378 74.5791 152.357C73.6001 153.337 72.3764 153.827 70.9079 153.827C69.1946 153.827 67.9708 153.092 66.7471 151.868C65.7681 150.643 65.2786 148.683 65.2786 146.478C65.2786 144.274 65.7681 142.559 66.9918 141.334C67.9708 139.865 69.4393 139.375 71.3974 139.375C72.8659 139.375 74.0896 139.865 75.0687 140.845C76.0477 141.824 76.5372 143.049 76.2924 144.764ZM67.4813 143.784H73.3554C73.3554 142.804 73.1106 142.069 72.6211 141.334C72.1316 140.6 71.3974 140.355 70.4184 140.355C69.6841 140.355 68.9498 140.6 68.4603 141.334C67.9708 142.069 67.4813 142.804 67.4813 143.784ZM90.4881 148.438L89.9985 148.193C89.7538 149.173 89.2643 149.908 88.7748 150.643C88.0405 151.378 87.0615 151.623 86.0825 151.623C84.614 151.623 83.3902 150.888 82.656 149.908C81.9217 148.928 81.4322 147.458 81.4322 145.744C81.4322 144.274 81.677 142.804 82.4112 141.824C82.9007 140.845 83.8797 140.355 85.1035 140.355C85.8378 140.355 86.3273 140.6 86.572 140.845C86.8168 141.089 87.0615 141.824 87.3063 142.559C87.3063 143.049 87.551 143.539 87.7958 143.784C88.0405 144.029 88.2853 144.029 88.7748 144.029C89.2643 144.029 89.509 143.784 89.7538 143.539C89.9985 143.294 89.9985 143.049 89.9985 142.559C89.9985 141.579 89.509 140.845 88.53 140.355C87.551 139.62 86.572 139.375 85.3483 139.375C83.635 139.375 81.9217 140.11 80.698 141.579C79.4742 143.049 78.7399 144.764 78.7399 146.723C78.7399 148.928 79.2294 150.643 80.4532 151.868C81.4322 153.092 82.9007 153.827 84.614 153.827C86.0825 153.827 87.3063 153.582 88.2853 152.602C89.2643 151.623 89.9986 150.398 90.4881 148.438ZM96.3602 139.375H99.2972V140.355H96.3602V149.173C96.3602 150.153 96.6049 150.888 96.8497 151.378C97.0944 151.867 97.5839 152.112 98.3182 152.112C98.563 152.112 99.0525 152.112 99.2972 151.867C99.3713 151.793 99.4679 151.719 99.5733 151.638C99.8159 151.452 100.106 151.229 100.276 150.888L100.521 151.133C99.7867 152.112 99.0525 152.847 98.563 153.092C98.0735 153.337 97.3392 153.582 96.6049 153.582C95.6259 153.582 94.8917 153.337 94.4022 152.602C93.9127 152.112 93.6679 150.888 93.6679 149.418V140.11H91.4651V139.865C92.4442 139.62 93.4232 138.885 94.1574 138.15C94.8917 137.415 95.3812 136.435 95.6259 135.211H96.1154V139.375H96.3602ZM122.302 148.438L115.449 133.006H109.33V133.496H109.82C110.554 133.496 111.043 133.741 111.533 133.986C112.022 134.476 112.267 134.966 112.267 135.7V151.133C112.267 152.112 112.022 152.602 111.533 152.847C111.288 153.092 110.554 153.337 109.82 153.337H109.085V153.827H116.183V153.337H115.694C114.959 153.337 114.47 153.092 113.98 152.847C113.491 152.357 113.246 151.867 113.246 151.133V136.19L120.834 153.582H121.078L128.91 136.435V151.133C128.91 152.112 128.666 152.602 128.176 152.847C127.931 153.092 127.197 153.337 126.463 153.337H125.973V153.827H135.029V153.337H134.54C133.805 153.337 133.316 153.092 132.826 152.847C132.337 152.357 132.092 151.867 132.092 151.133V135.7C132.092 134.721 132.337 134.231 132.826 133.986C133.316 133.741 134.05 133.496 134.784 133.496H135.274V133.006H129.155L122.302 148.438ZM149.714 151.133L149.959 151.378L148.246 153.092C147.756 153.337 147.267 153.582 146.777 153.582C146.288 153.582 145.798 153.337 145.553 152.847C145.309 152.357 145.064 151.867 145.064 151.133C144.33 151.867 143.595 152.357 142.616 152.847C141.882 153.337 140.903 153.582 140.169 153.582C139.19 153.582 138.456 153.337 137.966 152.602C137.477 151.867 137.232 151.133 137.232 150.153C137.232 149.173 137.721 148.193 138.456 147.213C139.435 146.478 141.393 145.254 144.819 144.274V142.559C144.819 141.824 144.574 141.089 144.085 140.6C143.595 140.11 143.106 139.865 142.127 139.865C141.393 139.865 140.903 140.11 140.414 140.355C139.924 140.6 139.924 141.089 139.924 141.579V142.069V142.559C139.924 142.846 139.84 143.049 139.771 143.217C139.721 143.336 139.679 143.438 139.679 143.539C139.435 143.784 139.19 143.784 138.7 143.784C138.211 143.784 137.966 143.784 137.966 143.539C137.721 143.294 137.721 143.049 137.721 142.559C137.721 141.579 138.211 140.6 139.19 140.11C140.169 139.375 141.393 139.13 142.616 139.13C144.085 139.13 145.064 139.375 146.043 140.11C146.777 140.6 147.267 141.579 147.267 142.804V151.133C147.267 151.378 147.267 151.623 147.512 151.867C147.652 152.008 147.712 152.068 147.784 152.094C147.837 152.112 147.897 152.112 148.001 152.112C148.246 152.112 148.491 152.112 148.735 151.867C149.225 151.623 149.469 151.378 149.714 151.133L149.714 151.133ZM145.064 150.643V145.499C142.861 146.234 141.637 146.968 140.903 147.458C140.169 148.193 139.924 148.928 139.924 149.908C139.924 150.643 140.169 151.133 140.658 151.623C141.148 152.112 141.637 152.357 142.372 152.357C142.861 152.357 143.351 152.357 143.84 152.112C143.84 151.447 144.242 151.183 144.863 150.775L144.959 150.712L145.064 150.643ZM155.588 142.314V139.13L150.938 140.6V141.089H151.428H151.917C152.162 141.089 152.407 141.334 152.651 141.579C152.896 142.069 152.896 142.559 152.896 143.294V150.888C152.896 151.867 152.896 152.602 152.407 152.847C152.162 153.092 151.672 153.337 150.938 153.337H150.693V153.827H157.546V153.337H157.302C156.812 153.337 156.323 153.092 156.078 152.847C155.833 152.357 155.588 151.867 155.588 150.888V143.049C156.323 142.314 156.812 141.824 157.546 141.579C157.645 141.546 157.739 141.513 157.831 141.481C157.881 141.463 157.93 141.446 157.979 141.428C158.496 141.243 158.923 141.089 159.504 141.089C160.239 141.089 160.728 141.334 160.973 141.824C161.218 142.069 161.462 142.804 161.462 143.784V150.888C161.462 151.867 161.218 152.602 160.973 152.847C160.728 153.092 160.239 153.337 159.749 153.337H159.504V153.827H166.357V153.337H166.113C165.378 153.337 164.889 153.092 164.399 152.847C164.155 152.357 163.91 151.867 163.91 150.888V143.539C163.91 142.069 163.665 141.089 162.931 140.355C162.197 139.62 161.218 139.13 160.239 139.13C159.504 139.13 159.015 139.375 158.281 139.865C157.546 140.355 156.567 141.089 155.588 142.314ZM179.577 151.133L179.822 151.378L178.108 153.092C177.619 153.337 177.129 153.582 176.64 153.582C176.15 153.582 175.661 153.337 175.416 152.847C175.171 152.357 174.927 151.867 174.927 151.133C174.192 151.867 173.458 152.357 172.479 152.847C171.745 153.337 170.766 153.582 170.032 153.582C169.053 153.582 168.318 153.337 167.829 152.602C167.339 151.867 167.095 151.133 167.095 150.153C167.095 149.173 167.584 148.193 168.318 147.213C169.297 146.478 171.255 145.254 174.682 144.274V142.559C174.682 141.824 174.437 141.089 173.948 140.6C173.458 140.11 172.969 139.865 171.99 139.865C171.255 139.865 170.766 140.11 170.276 140.355C169.787 140.6 169.787 141.089 169.787 141.579V142.069V142.559C169.787 142.846 169.703 143.049 169.633 143.217C169.584 143.336 169.542 143.438 169.542 143.539C169.297 143.784 169.053 143.784 168.563 143.784C168.074 143.784 167.829 143.784 167.829 143.539C167.584 143.294 167.584 143.049 167.584 142.559C167.584 141.579 168.074 140.6 169.053 140.11C170.032 139.375 171.255 139.13 172.479 139.13C173.948 139.13 174.927 139.375 175.906 140.11C176.64 140.6 177.129 141.579 177.129 142.804V151.133C177.129 151.378 177.129 151.623 177.374 151.867C177.619 152.112 177.619 152.112 177.864 152.112C178.108 152.112 178.353 152.112 178.598 151.867C179.149 151.684 179.286 151.5 179.424 151.316C179.47 151.255 179.516 151.194 179.577 151.133ZM174.927 150.643V145.499C172.724 146.234 171.5 146.968 170.766 147.458C170.032 148.193 169.787 148.928 169.787 149.908C169.787 150.643 170.032 151.133 170.521 151.623C171.011 152.112 171.5 152.357 172.234 152.357C172.724 152.357 173.213 152.357 173.703 152.112C173.703 151.592 174.071 151.317 174.46 151.027C174.62 150.908 174.784 150.786 174.927 150.643ZM192.795 140.355H189.368C188.878 139.865 188.389 139.62 188.144 139.865C187.41 139.62 186.92 139.62 186.431 139.62C184.962 139.62 183.739 139.865 182.76 140.844C181.781 141.824 181.291 142.804 181.291 144.274C181.291 145.009 181.536 145.744 182.025 146.478C182.27 147.213 183.004 147.703 183.739 147.948C183.472 148.215 183.206 148.449 182.963 148.662C182.536 149.038 182.181 149.351 182.025 149.663C181.96 149.794 181.894 149.908 181.833 150.013C181.667 150.302 181.536 150.529 181.536 150.888C181.536 151.133 181.781 151.622 182.025 151.867C182.27 152.112 182.515 152.357 183.004 152.357C181.859 153.312 181.161 154.119 180.792 154.543C180.688 154.663 180.611 154.753 180.557 154.807C180.312 155.052 180.312 155.542 180.312 155.787C180.312 156.767 180.802 157.501 181.781 157.991C182.76 158.726 184.228 158.971 185.941 158.971C187.655 158.971 189.368 158.481 190.836 157.501C192.305 156.522 193.039 155.297 193.039 153.827C193.039 152.602 192.795 151.622 191.815 151.133C191.081 150.643 189.613 150.398 187.41 150.398H185.697H185.452C184.606 150.398 184.111 150.281 183.805 150.208C183.669 150.176 183.57 150.153 183.494 150.153C183.249 150.153 183.249 149.908 183.249 149.663V149.173L183.983 148.438C184.473 148.683 184.718 148.683 184.962 148.683H186.186C187.655 148.683 188.634 148.193 189.613 147.458C190.592 146.478 191.081 145.499 191.081 144.029C191.081 143.539 191.081 143.294 190.836 142.804C190.836 142.445 190.705 142.218 190.539 141.93C190.478 141.824 190.413 141.711 190.347 141.579H192.795V140.355ZM182.836 153.414C183.004 153.176 183.207 152.889 183.494 152.602C188.878 152.847 191.571 153.337 191.571 153.337C191.816 153.582 191.815 153.827 191.815 154.072C191.815 155.052 191.326 155.542 190.347 156.032C189.368 156.522 188.144 156.767 186.431 156.767C185.207 156.767 184.228 156.522 183.494 156.277C182.76 156.032 182.27 155.542 182.27 154.807C182.27 154.562 182.27 154.072 182.515 153.827C182.616 153.726 182.718 153.582 182.836 153.414ZM188.144 146.723C187.655 147.213 187.165 147.458 186.431 147.458C185.452 147.458 184.718 146.968 184.718 145.989C184.228 145.254 183.983 144.029 183.983 142.804C183.983 141.824 184.228 141.334 184.718 140.844C184.962 140.355 185.452 140.11 186.186 140.11C186.92 140.11 187.655 140.6 188.144 141.334C188.634 142.314 188.878 143.294 188.878 144.764C188.803 144.991 188.75 145.219 188.7 145.439C188.587 145.93 188.482 146.385 188.144 146.723ZM205.519 144.764H196.463C196.463 146.723 196.708 148.438 197.687 149.663C198.421 150.888 199.645 151.623 201.113 151.623C202.092 151.623 202.826 151.378 203.805 150.643C204.54 149.908 205.274 149.173 205.519 148.193L206.008 148.438C205.519 150.153 204.785 151.378 203.805 152.357C202.826 153.337 201.603 153.827 200.134 153.827C198.421 153.827 197.197 153.092 195.973 151.868C194.994 150.643 194.505 148.683 194.505 146.478C194.505 144.274 194.994 142.559 196.218 141.334C197.197 139.865 198.666 139.375 200.624 139.375C202.092 139.375 203.316 139.865 204.295 140.845C205.029 141.824 205.519 143.049 205.519 144.764ZM196.708 143.784H202.582C202.582 142.804 202.337 142.069 201.847 141.334C201.358 140.6 200.624 140.355 199.645 140.355C198.91 140.355 198.176 140.6 197.687 141.334C196.952 142.069 196.708 142.804 196.708 143.784ZM212.374 141.824V139.13L207.723 140.11V140.6H208.213H208.702C208.947 140.6 209.192 140.845 209.437 141.089C209.681 141.579 209.681 142.069 209.681 142.804V150.398C209.681 151.378 209.681 152.112 209.192 152.357C208.947 152.602 208.458 152.847 207.723 152.847H207.479V153.337H214.332V152.847H214.087C213.598 152.847 213.108 152.602 212.863 152.357C212.618 151.867 212.374 151.378 212.374 150.398V142.559C212.863 141.824 213.353 141.334 214.087 141.089C214.24 141.038 214.383 140.987 214.519 140.938C215.036 140.753 215.464 140.6 216.045 140.6C216.535 140.6 217.024 140.845 217.514 141.334C217.758 141.824 218.003 142.559 218.003 143.294V150.398C218.003 151.378 217.758 152.112 217.514 152.357C217.269 152.602 216.779 152.847 216.29 152.847H216.045V153.337H222.653V152.847H222.409C221.919 152.847 221.43 152.602 221.185 152.357C220.94 151.867 220.695 151.378 220.695 150.398L220.695 142.559C221.43 141.824 221.919 141.334 222.653 141.089C223.388 140.845 224.122 140.6 224.611 140.6C225.346 140.6 225.835 140.845 226.08 141.334C226.325 141.824 226.569 142.314 226.569 143.294V150.398C226.569 151.378 226.325 152.112 226.08 152.357C225.835 152.602 225.346 152.847 224.856 152.847H224.367V153.337H231.22V152.847H230.975C230.241 152.847 229.751 152.602 229.262 152.357C229.017 151.867 228.772 151.378 228.772 150.398V143.049C228.772 141.579 228.283 140.6 227.793 139.865C227.304 139.13 226.325 138.885 225.346 138.885C225.101 138.966 224.856 139.021 224.612 139.075L224.611 139.075C224.122 139.184 223.632 139.293 223.143 139.62C222.409 139.865 221.674 140.6 220.451 141.824C220.206 141.089 219.961 140.355 219.227 139.865C218.737 139.375 218.003 139.13 217.024 139.13C216.443 139.13 216.015 139.283 215.498 139.469C215.362 139.518 215.219 139.569 215.066 139.62C214.876 139.81 214.613 139.999 214.291 140.232C213.781 140.6 213.123 141.074 212.374 141.824ZM243.454 144.764H234.643C234.643 146.723 234.888 148.438 235.867 149.663C236.601 150.888 237.825 151.623 239.294 151.623C240.273 151.623 241.007 151.378 241.986 150.643C242.72 149.908 243.454 149.173 243.699 148.193L244.189 148.438C243.699 150.153 242.965 151.378 241.986 152.357C241.007 153.337 239.783 153.827 238.315 153.827C236.601 153.827 235.378 153.092 234.154 151.868C233.175 150.643 232.685 148.683 232.685 146.478C232.685 144.274 233.175 142.559 234.399 141.334C235.378 139.865 236.846 139.375 238.804 139.375C240.273 139.375 241.496 139.865 242.475 140.845C242.965 141.824 243.454 143.049 243.454 144.764ZM234.643 143.784H240.517C240.517 142.804 240.273 142.069 239.783 141.334C239.294 140.6 238.559 140.355 237.58 140.355C236.846 140.355 236.112 140.6 235.622 141.334C234.888 142.069 234.643 142.804 234.643 143.784ZM250.31 142.314V139.13L245.66 140.6V141.089H246.15H246.639C246.884 141.089 247.129 141.334 247.373 141.579C247.618 142.069 247.618 142.559 247.618 143.294V150.888C247.618 151.867 247.618 152.602 247.129 152.847C246.884 153.092 246.394 153.337 245.66 153.337H245.415V153.827H252.268V153.337H252.024C251.534 153.337 251.045 153.092 250.8 152.847C250.555 152.357 250.31 151.867 250.31 150.888L250.31 143.049C251.045 142.314 251.534 141.824 252.268 141.579C252.421 141.528 252.564 141.477 252.701 141.428C253.218 141.243 253.645 141.089 254.226 141.089C254.961 141.089 255.45 141.334 255.695 141.824C255.94 142.069 256.184 142.804 256.184 143.784V150.888C256.184 151.867 255.94 152.602 255.695 152.847C255.45 153.092 254.961 153.337 254.471 153.337H254.226V153.827H261.079V153.337H260.835C260.1 153.337 259.611 153.092 259.121 152.847C258.877 152.357 258.632 151.867 258.632 150.888V143.539C258.632 142.069 258.387 141.089 257.653 140.355C256.919 139.62 255.94 139.13 254.961 139.13C254.226 139.13 253.737 139.375 253.003 139.865C252.268 140.355 251.289 141.089 250.31 142.314ZM265.975 139.375H268.912V140.355H265.975V149.173C265.975 150.153 266.22 150.888 266.465 151.378C266.71 151.867 267.199 152.112 267.933 152.112C268.178 152.112 268.668 152.112 268.912 151.867C268.987 151.793 269.083 151.719 269.189 151.638C269.431 151.452 269.721 151.229 269.891 150.888L270.136 151.133C269.402 152.112 268.668 152.847 268.178 153.092C267.689 153.337 266.954 153.582 266.22 153.582C265.241 153.582 264.507 153.337 264.017 152.602C263.528 152.112 263.283 150.888 263.283 149.418V140.11H261.08V139.865C262.059 139.62 263.038 138.885 263.773 138.15C264.507 137.415 264.996 136.435 265.241 135.211H265.731V139.375H265.975Z" fill="black"/>
</g>
</svg>
