<svg width="105" height="57" viewBox="0 0 105 57" fill="none" xmlns="http://www.w3.org/2000/svg">
<path fill-rule="evenodd" clip-rule="evenodd" d="M71.0004 1.1V0.4H82.1004V1.1C81.0004 1.1 80.1004 1.5 79.2004 2.3C78.4004 3 77.6004 4.3 76.7004 6.2L63.5004 36.2H62.8004L51.3004 8.7C51.3004 8.7 49.1004 2.4 41.3004 1.8H39.9004C32.0004 1.8 25.7004 9.2 25.7004 18.4C25.7004 27.6 32.0004 35.1 39.9004 35.1C47.5004 35.1 53.7004 28.1 54.1004 19.3L54.3004 19.4L57.1004 25.7C56.3004 28 54.9004 30 53.1004 31.8C49.6004 35.3 45.1004 37 39.6004 37C34.4004 37 30.1004 35.2 26.8004 31.6C23.5004 28 21.9004 23.6 21.9004 18.3C21.9004 12.9 23.7004 8.5 27.4004 5.1C30.7004 2 34.7004 0.3 39.2004 0H39.6004H39.7004H40.5004H40.6004C40.8504 0 41.1004 0.025 41.3504 0.05C41.6004 0.075 41.8504 0.1 42.1004 0.1C44.8004 0.3 48.5004 1.3 51.7004 4.4C51.8004 4.5 53.3004 6.1 54.4004 8.6C54.4004 8.54706 56.3901 13.3424 58.5448 18.5352C60.4603 23.1516 62.5062 28.0822 63.4004 30.2L65.5004 25.2L74.2004 5.3C74.4004 4.9 74.5004 4.6 74.6004 4.2C74.7004 3.9 74.7004 3.5 74.7004 3.2C74.7004 2.4 74.4004 1.8 73.8004 1.5C73.2004 1.2 72.3004 1.1 71.0004 1.1ZM19.6 54.2V48.8L17.8 49.4V49.6H18H18.2C18.3 49.6 18.4 49.7 18.5 49.8C18.6 50 18.6 50.2 18.6 50.5V54.4C18.6 55.3 18.6 55.9 18.5 56.1C18.4 56.3 18.3 56.4 18.1 56.4C18.05 56.4 18 56.375 17.95 56.35C17.9 56.325 17.85 56.3 17.8 56.3L17.5 56L17.5 56C17.4 55.9 17.3 55.8 17.2 55.8H16.9C16.8 55.8 16.7 55.8 16.6 55.9C16.5 56 16.5 56.1 16.5 56.2C16.5 56.4 16.5 56.6 16.7 56.7C16.9 56.8 17.1 56.9 17.4 56.9C18.1 56.9 18.6 56.6 19 56.2C19.4 55.7 19.6 55.1 19.6 54.2ZM18.5215 46.5431C18.4536 46.6608 18.4 46.7536 18.4 46.9C18.4 47.1 18.5 47.3 18.6 47.3C18.6535 47.3267 18.6999 47.3535 18.7429 47.3783L18.7431 47.3784C18.8608 47.4464 18.9536 47.5 19.1 47.5C19.3 47.5 19.5 47.4 19.6 47.3C19.6267 47.2466 19.6536 47.2001 19.6784 47.1571L19.6785 47.1569C19.7464 47.0392 19.8 46.9464 19.8 46.8C19.8 46.7 19.7 46.5 19.6 46.4C19.5465 46.3732 19.5001 46.3465 19.4571 46.3216L19.4569 46.3215C19.3392 46.2536 19.2464 46.2 19.1 46.2C18.9 46.2 18.7 46.3 18.6 46.4C18.5732 46.4536 18.5464 46.5 18.5215 46.5431ZM3.3 46.3H0V46.4H0.2C0.499998 46.4 0.700001 46.5 0.9 46.6C1.1 46.8 1.2 47 1.2 47.3V53.6C1.2 54 1.1 54.2 0.9 54.3C0.8 54.4 0.5 54.5 0.2 54.5H0V54.7H3.7V54.5H3.5C3.2 54.5 3 54.4 2.8 54.3C2.6 54.1 2.5 53.9 2.5 53.6V50.7C2.74999 50.75 2.95001 50.8 3.10001 50.8375C3.25 50.875 3.35 50.9 3.4 50.9H3.8C4.6 50.9 5.3 50.7 5.8 50.3C6.3 49.8 6.6 49.3 6.6 48.5C6.6 47.7 6.4 47.1 5.8 46.8C5.2 46.5 4.4 46.3 3.3 46.3ZM2.5 50.2V46.8C2.6 46.8 2.7 46.8 2.8 46.6H3.3C3.9 46.6 4.4 46.8 4.7 47.1C5 47.4 5.2 47.9 5.2 48.5C5.2 49.1 5 49.5 4.7 49.8C4.4 50.1 4 50.3 3.5 50.3H3C2.8 50.3 2.7 50.3 2.5 50.2ZM9.2 49.9V48.8L7.1 49.5V49.7H7.3H7.5C7.6 49.7 7.7 49.8 7.8 49.9C7.9 50.1 7.9 50.3 7.9 50.6V53.7C7.9 54.1 7.9 54.4 7.7 54.5C7.6 54.6 7.4 54.7 7.1 54.7H7V54.9H10V54.7H9.9C9.6 54.7 9.4 54.6 9.2 54.5C9.1 54.3 9 54.1 9 53.7V50.5C9.1 50.3 9.3 50.1 9.4 50C9.47639 49.9618 9.5382 49.9236 9.59098 49.891C9.67639 49.8382 9.7382 49.8 9.8 49.8H10C10.0425 49.8 10.0669 49.8 10.0887 49.8077C10.1181 49.818 10.1425 49.8425 10.2 49.9C10.3 50 10.4 50.1 10.5 50.1H10.7C10.9 50.1 11 50 11.1 49.9C11.2 49.8 11.2 49.7 11.2 49.5C11.2 49.3 11.2 49.1 11 49C10.9 48.9 10.7 48.8 10.5 48.8C10.3 48.8 10.1 48.9 9.8 49.1C9.6 49.3 9.4 49.6 9.2 49.9ZM14.3 54.8C13.5 54.8 12.8 54.5 12.3 54C11.8 53.5 11.5 52.7 11.5 51.9C11.5 51.1 11.8 50.4 12.3 49.8C12.8 49.2 13.5 48.9 14.3 48.9C15.1 48.9 15.8 49.2 16.3 49.7C16.8 50.3 17.1 51 17.1 51.8C17.1 52.7 16.8 53.4 16.3 53.9C15.8 54.5 15.1 54.8 14.3 54.8ZM12.7 51.7C12.7 52.4 12.9 53 13.2 53.5C13.6 54 14 54.3 14.5 54.3C15 54.3 15.3 54.1 15.6 53.6C15.9 53.2 16 52.5 16 51.6C16 51 15.8 50.4 15.5 49.9C15.2 49.4 14.7 49.1 14.2 49.1C13.7 49.1 13.4 49.3 13.1 49.7C12.8 50.3 12.7 50.9 12.7 51.7ZM25.3008 51.1H21.6008C21.6008 51.9 21.7008 52.6 22.1008 53.1C22.4008 53.6 22.9008 53.9 23.5008 53.9C23.9008 53.9 24.2008 53.8 24.6008 53.5C24.9008 53.2 25.2008 52.9 25.3008 52.5L25.5008 52.6C25.3008 53.3 25.0008 53.8 24.6008 54.2C24.2008 54.6 23.7008 54.8 23.1008 54.8C22.4008 54.8 21.9008 54.5 21.4008 54C21.0008 53.5 20.8008 52.7 20.8008 51.8C20.8008 50.9 21.0008 50.2 21.5008 49.7C21.9008 49.1 22.5008 48.9 23.3008 48.9C23.9008 48.9 24.4008 49.1 24.8008 49.5C25.2008 49.9 25.4008 50.4 25.3008 51.1ZM21.7008 50.7H24.1008C24.1008 50.3 24.0008 50 23.8008 49.7C23.6008 49.4 23.3008 49.3 22.9008 49.3C22.6008 49.3 22.3008 49.4 22.1008 49.7C21.9008 50 21.7008 50.3 21.7008 50.7ZM31.1008 52.6L30.9008 52.5C30.8008 52.9 30.6008 53.2 30.4008 53.5C30.1008 53.8 29.7008 53.9 29.3008 53.9C28.7008 53.9 28.2008 53.6 27.9008 53.2C27.6008 52.8 27.4008 52.2 27.4008 51.5C27.4008 50.9 27.5008 50.3 27.8008 49.9C28.0008 49.5 28.4008 49.3 28.9008 49.3C29.2008 49.3 29.4008 49.4 29.5008 49.5C29.6008 49.6 29.7008 49.9 29.8008 50.2C29.8008 50.4 29.9008 50.6 30.0008 50.7C30.1008 50.8 30.2008 50.8 30.4008 50.8C30.6008 50.8 30.7008 50.7 30.8008 50.6C30.9008 50.5 30.9008 50.4 30.9008 50.2C30.9008 49.8 30.7008 49.5 30.3008 49.3C29.9008 49 29.5008 48.9 29.0008 48.9C28.3008 48.9 27.6008 49.2 27.1008 49.8C26.6008 50.4 26.3008 51.1 26.3008 51.9C26.3008 52.8 26.5008 53.5 27.0008 54C27.4008 54.5 28.0008 54.8 28.7008 54.8C29.3008 54.8 29.8008 54.7 30.2008 54.3C30.6008 53.9 30.9008 53.4 31.1008 52.6ZM33.5 48.9H34.7V49.3H33.5V52.9C33.5 53.3 33.6 53.6 33.7 53.8C33.8 54 34 54.1 34.3 54.1C34.4 54.1 34.6 54.1 34.7 54C34.7303 53.9697 34.7697 53.9394 34.8128 53.9064C34.9119 53.8303 35.0303 53.7394 35.1 53.6L35.2 53.7C34.9 54.1 34.6 54.4 34.4 54.5C34.2 54.6 33.9 54.7 33.6 54.7C33.2 54.7 32.9 54.6 32.7 54.3C32.5 54.1 32.4 53.6 32.4 53V49.2H31.5V49.1C31.9 49 32.3 48.7 32.6 48.4C32.9 48.1 33.1 47.7 33.2 47.2H33.4V48.9H33.5ZM44.0992 52.6L41.2992 46.3H38.7992V46.5H38.9992C39.2992 46.5 39.4992 46.6 39.6992 46.7C39.8992 46.9 39.9992 47.1 39.9992 47.4V53.7C39.9992 54.1 39.8992 54.3 39.6992 54.4C39.5992 54.5 39.2992 54.6 38.9992 54.6H38.6992V54.8H41.5992V54.6H41.3992C41.0992 54.6 40.8992 54.5 40.6992 54.4C40.4992 54.2 40.3992 54 40.3992 53.7V47.6L43.4992 54.7H43.5992L46.7992 47.7V53.7C46.7992 54.1 46.6992 54.3 46.4992 54.4C46.3992 54.5 46.0992 54.6 45.7992 54.6H45.5992V54.8H49.2992V54.6H49.0992C48.7992 54.6 48.5992 54.5 48.3992 54.4C48.1992 54.2 48.0992 54 48.0992 53.7V47.4C48.0992 47 48.1992 46.8 48.3992 46.7C48.5992 46.6 48.8992 46.5 49.1992 46.5H49.3992V46.3H46.8992L44.0992 52.6ZM55.2992 53.7L55.3992 53.8L54.6992 54.5C54.4992 54.6 54.2992 54.7 54.0992 54.7C53.8992 54.7 53.6992 54.6 53.5992 54.4C53.4992 54.2 53.3992 54 53.3992 53.7C53.0992 54 52.7992 54.2 52.3992 54.4C52.0992 54.6 51.6992 54.7 51.3992 54.7C50.9992 54.7 50.6992 54.6 50.4992 54.3C50.2992 54 50.1992 53.7 50.1992 53.3C50.1992 52.9 50.3992 52.5 50.6992 52.1C51.0992 51.8 51.8992 51.3 53.2992 50.9V50.2C53.2992 49.9 53.1992 49.6 52.9992 49.4C52.7992 49.2 52.5992 49.1 52.1992 49.1C51.8992 49.1 51.6992 49.2 51.4992 49.3C51.2992 49.4 51.2992 49.6 51.2992 49.8V50V50.2C51.2992 50.3171 51.2649 50.4 51.2365 50.4686C51.2164 50.5171 51.1992 50.5586 51.1992 50.6C51.0992 50.7 50.9992 50.7 50.7992 50.7C50.5992 50.7 50.4992 50.7 50.4992 50.6C50.3992 50.5 50.3992 50.4 50.3992 50.2C50.3992 49.8 50.5992 49.4 50.9992 49.2C51.3992 48.9 51.8992 48.8 52.3992 48.8C52.9992 48.8 53.3992 48.9 53.7992 49.2C54.0992 49.4 54.2992 49.8 54.2992 50.3V53.7C54.2992 53.8 54.2992 53.9 54.3992 54C54.4567 54.0575 54.4812 54.0819 54.5106 54.0923C54.5323 54.1 54.5567 54.1 54.5992 54.1C54.6992 54.1 54.7992 54.1 54.8992 54C55.0992 53.9 55.1992 53.8 55.2992 53.7L55.2992 53.7ZM53.3992 53.5V51.4C52.4992 51.7 51.9992 52 51.6992 52.2C51.3992 52.5 51.2992 52.8 51.2992 53.2C51.2992 53.5 51.3992 53.7 51.5992 53.9C51.7992 54.1 51.9992 54.2 52.2992 54.2C52.4992 54.2 52.6992 54.2 52.8992 54.1C52.8992 53.8282 53.0633 53.7206 53.3172 53.5541L53.3563 53.5284L53.3992 53.5ZM57.6992 50.1V48.8L55.7992 49.4V49.6H55.9992H56.1992C56.2992 49.6 56.3992 49.7 56.4992 49.8C56.5992 50 56.5992 50.2 56.5992 50.5V53.6C56.5992 54 56.5992 54.3 56.3992 54.4C56.2992 54.5 56.0992 54.6 55.7992 54.6H55.6992V54.8H58.4992V54.6H58.3992C58.1992 54.6 57.9992 54.5 57.8992 54.4C57.7992 54.2 57.6992 54 57.6992 53.6V50.4C57.9992 50.1 58.1992 49.9 58.4992 49.8C58.5396 49.7865 58.5781 49.7731 58.6153 49.7599C58.6359 49.7526 58.656 49.7454 58.6758 49.7383C58.8871 49.6626 59.0618 49.6 59.2992 49.6C59.5992 49.6 59.7992 49.7 59.8992 49.9C59.9992 50 60.0992 50.3 60.0992 50.7V53.6C60.0992 54 59.9992 54.3 59.8992 54.4C59.7992 54.5 59.5992 54.6 59.3992 54.6H59.2992V54.8H62.0992V54.6H61.9992C61.6992 54.6 61.4992 54.5 61.2992 54.4C61.1992 54.2 61.0992 54 61.0992 53.6V50.6C61.0992 50 60.9992 49.6 60.6992 49.3C60.3992 49 59.9992 48.8 59.5992 48.8C59.2992 48.8 59.0992 48.9 58.7992 49.1C58.4992 49.3 58.0992 49.6 57.6992 50.1ZM67.5004 53.7L67.6004 53.8L66.9004 54.5C66.7004 54.6 66.5004 54.7 66.3004 54.7C66.1004 54.7 65.9004 54.6 65.8004 54.4C65.7004 54.2 65.6004 54 65.6004 53.7C65.3004 54 65.0004 54.2 64.6004 54.4C64.3004 54.6 63.9004 54.7 63.6004 54.7C63.2004 54.7 62.9004 54.6 62.7004 54.3C62.5004 54 62.4004 53.7 62.4004 53.3C62.4004 52.9 62.6004 52.5 62.9004 52.1C63.3004 51.8 64.1004 51.3 65.5004 50.9V50.2C65.5004 49.9 65.4004 49.6 65.2004 49.4C65.0004 49.2 64.8004 49.1 64.4004 49.1C64.1004 49.1 63.9004 49.2 63.7004 49.3C63.5004 49.4 63.5004 49.6 63.5004 49.8V50V50.2C63.5004 50.3171 63.4661 50.4 63.4376 50.4686C63.4175 50.5171 63.4004 50.5586 63.4004 50.6C63.3004 50.7 63.2004 50.7 63.0004 50.7C62.8004 50.7 62.7004 50.7 62.7004 50.6C62.6004 50.5 62.6004 50.4 62.6004 50.2C62.6004 49.8 62.8004 49.4 63.2004 49.2C63.6004 48.9 64.1004 48.8 64.6004 48.8C65.2004 48.8 65.6004 48.9 66.0004 49.2C66.3004 49.4 66.5004 49.8 66.5004 50.3V53.7C66.5004 53.8 66.5004 53.9 66.6004 54C66.7004 54.1 66.7004 54.1 66.8004 54.1C66.9004 54.1 67.0004 54.1 67.1004 54C67.3254 53.925 67.3816 53.85 67.4379 53.775C67.4566 53.75 67.4754 53.725 67.5004 53.7ZM65.6004 53.5V51.4C64.7004 51.7 64.2004 52 63.9004 52.2C63.6004 52.5 63.5004 52.8 63.5004 53.2C63.5004 53.5 63.6004 53.7 63.8004 53.9C64.0004 54.1 64.2004 54.2 64.5004 54.2C64.7004 54.2 64.9004 54.2 65.1004 54.1C65.1004 53.8875 65.2509 53.7754 65.4097 53.657C65.4752 53.6082 65.542 53.5583 65.6004 53.5ZM72.9008 49.3H71.5008C71.3008 49.1 71.1008 49 71.0008 49.1C70.7008 49 70.5008 49 70.3008 49C69.7008 49 69.2008 49.1 68.8008 49.5C68.4008 49.9 68.2008 50.3 68.2008 50.9C68.2008 51.2 68.3008 51.5 68.5008 51.8C68.6008 52.1 68.9008 52.3 69.2008 52.4C69.092 52.5087 68.9833 52.6043 68.884 52.6916C68.7095 52.845 68.5645 52.9725 68.5008 53.1C68.474 53.1536 68.4472 53.2 68.4223 53.243C68.3544 53.3607 68.3008 53.4536 68.3008 53.6C68.3008 53.7 68.4008 53.9 68.5008 54C68.6008 54.1 68.7008 54.2 68.9008 54.2C68.4329 54.5899 68.1474 54.919 67.997 55.0924C67.9545 55.1414 67.9228 55.1779 67.9008 55.2C67.8008 55.3 67.8008 55.5 67.8008 55.6C67.8008 56 68.0008 56.3 68.4008 56.5C68.8008 56.8 69.4008 56.9 70.1008 56.9C70.8008 56.9 71.5008 56.7 72.1008 56.3C72.7008 55.9 73.0008 55.4 73.0008 54.8C73.0008 54.3 72.9008 53.9 72.5008 53.7C72.2008 53.5 71.6008 53.4 70.7008 53.4H70.0008H69.9008C69.5553 53.4 69.353 53.3522 69.228 53.3227C69.1721 53.3095 69.1317 53.3 69.1008 53.3C69.0008 53.3 69.0008 53.2 69.0008 53.1V52.9L69.3008 52.6C69.5008 52.7 69.6008 52.7 69.7008 52.7H70.2008C70.8008 52.7 71.2008 52.5 71.6008 52.2C72.0008 51.8 72.2008 51.4 72.2008 50.8C72.2008 50.6 72.2008 50.5 72.1008 50.3C72.1008 50.1536 72.0472 50.0607 71.9792 49.943C71.9544 49.9 71.9276 49.8536 71.9008 49.8H72.9008V49.3ZM68.8321 54.6313C68.9008 54.5343 68.9836 54.4171 69.1008 54.3C71.3008 54.4 72.4008 54.6 72.4008 54.6C72.5008 54.7 72.5008 54.8 72.5008 54.9C72.5008 55.3 72.3008 55.5 71.9008 55.7C71.5008 55.9 71.0008 56 70.3008 56C69.8008 56 69.4008 55.9 69.1008 55.8C68.8008 55.7 68.6008 55.5 68.6008 55.2C68.6008 55.1 68.6008 54.9 68.7008 54.8C68.7422 54.7586 68.7836 54.6999 68.8321 54.6313ZM71.0008 51.9C70.8008 52.1 70.6008 52.2 70.3008 52.2C69.9008 52.2 69.6008 52 69.6008 51.6C69.4008 51.3 69.3008 50.8 69.3008 50.3C69.3008 49.9 69.4008 49.7 69.6008 49.5C69.7008 49.3 69.9008 49.2 70.2008 49.2C70.5008 49.2 70.8008 49.4 71.0008 49.7C71.2008 50.1 71.3008 50.5 71.3008 51.1C71.2698 51.1928 71.2484 51.2857 71.2278 51.3756C71.1816 51.5761 71.1389 51.7619 71.0008 51.9ZM78.0996 51.1H74.3996C74.3996 51.9 74.4996 52.6 74.8996 53.1C75.1996 53.6 75.6996 53.9 76.2996 53.9C76.6996 53.9 76.9996 53.8 77.3996 53.5C77.6996 53.2 77.9996 52.9 78.0996 52.5L78.2996 52.6C78.0996 53.3 77.7996 53.8 77.3996 54.2C76.9996 54.6 76.4996 54.8 75.8996 54.8C75.1996 54.8 74.6996 54.5 74.1996 54C73.7996 53.5 73.5996 52.7 73.5996 51.8C73.5996 50.9 73.7996 50.2 74.2996 49.7C74.6996 49.1 75.2996 48.9 76.0996 48.9C76.6996 48.9 77.1996 49.1 77.5996 49.5C77.8996 49.9 78.0996 50.4 78.0996 51.1ZM74.4996 50.7H76.8996C76.8996 50.3 76.7996 50 76.5996 49.7C76.3996 49.4 76.0996 49.3 75.6996 49.3C75.3996 49.3 75.0996 49.4 74.8996 49.7C74.5996 50 74.4996 50.3 74.4996 50.7ZM80.9004 49.9V48.8L79.0004 49.2V49.4H79.2004H79.4004C79.5004 49.4 79.6004 49.5 79.7004 49.6C79.8004 49.8 79.8004 50 79.8004 50.3V53.4C79.8004 53.8 79.8004 54.1 79.6004 54.2C79.5004 54.3 79.3004 54.4 79.0004 54.4H78.9004V54.6H81.7004V54.4H81.6004C81.4004 54.4 81.2004 54.3 81.1004 54.2C81.0004 54 80.9004 53.8 80.9004 53.4V50.2C81.1004 49.9 81.3004 49.7 81.6004 49.6C81.6629 49.5791 81.7213 49.5582 81.777 49.5383C81.9882 49.4626 82.163 49.4 82.4004 49.4C82.6004 49.4 82.8004 49.5 83.0004 49.7C83.1004 49.9 83.2004 50.2 83.2004 50.5V53.4C83.2004 53.8 83.1004 54.1 83.0004 54.2C82.9004 54.3 82.7004 54.4 82.5004 54.4H82.4004V54.6H85.1004V54.4H85.0004C84.8004 54.4 84.6004 54.3 84.5004 54.2C84.4004 54 84.3004 53.8 84.3004 53.4L84.3004 50.1999C84.6004 49.9 84.8004 49.7 85.1004 49.6C85.4004 49.5 85.7004 49.4 85.9004 49.4C86.2004 49.4 86.4004 49.5 86.5004 49.7C86.6004 49.9 86.7004 50.1 86.7004 50.5V53.4C86.7004 53.8 86.6004 54.1 86.5004 54.2C86.4004 54.3 86.2004 54.4 86.0004 54.4H85.8004V54.6H88.6004V54.4H88.5004C88.2004 54.4 88.0004 54.3 87.8004 54.2C87.7004 54 87.6004 53.8 87.6004 53.4V50.4C87.6004 49.8 87.4004 49.4 87.2004 49.1C87.0004 48.8 86.6004 48.7 86.2004 48.7C86.1004 48.7333 86.0005 48.7555 85.9005 48.7777L85.9004 48.7778C85.7004 48.8222 85.5004 48.8666 85.3004 49C85.0004 49.1 84.7004 49.4 84.2004 49.9C84.1004 49.6 84.0004 49.3 83.7004 49.1C83.5004 48.9 83.2004 48.8 82.8004 48.8C82.563 48.8 82.388 48.8627 82.1768 48.9384C82.1211 48.9583 82.0629 48.9791 82.0004 49C81.9229 49.0775 81.8154 49.155 81.6837 49.2499C81.4754 49.4 81.2067 49.5937 80.9004 49.9ZM93.5992 51.1H89.9992C89.9992 51.9 90.0992 52.6 90.4992 53.1C90.7992 53.6 91.2992 53.9 91.8992 53.9C92.2992 53.9 92.5992 53.8 92.9992 53.5C93.2992 53.2 93.5992 52.9 93.6992 52.5L93.8992 52.6C93.6992 53.3 93.3992 53.8 92.9992 54.2C92.5992 54.6 92.0992 54.8 91.4992 54.8C90.7992 54.8 90.2992 54.5 89.7992 54C89.3992 53.5 89.1992 52.7 89.1992 51.8C89.1992 50.9 89.3992 50.2 89.8992 49.7C90.2992 49.1 90.8992 48.9 91.6992 48.9C92.2992 48.9 92.7992 49.1 93.1992 49.5C93.3992 49.9 93.5992 50.4 93.5992 51.1ZM89.9992 50.7H92.3992C92.3992 50.3 92.2992 50 92.0992 49.7C91.8992 49.4 91.5992 49.3 91.1992 49.3C90.8992 49.3 90.5992 49.4 90.3992 49.7C90.0992 50 89.9992 50.3 89.9992 50.7ZM96.4004 50.1V48.8L94.5004 49.4V49.6H94.7004H94.9004C95.0004 49.6 95.1004 49.7 95.2004 49.8C95.3004 50 95.3004 50.2 95.3004 50.5V53.6C95.3004 54 95.3004 54.3 95.1004 54.4C95.0004 54.5 94.8004 54.6 94.5004 54.6H94.4004V54.8H97.2004V54.6H97.1004C96.9004 54.6 96.7004 54.5 96.6004 54.4C96.5004 54.2 96.4004 54 96.4004 53.6L96.4004 50.3999C96.7004 50.1 96.9004 49.9 97.2004 49.8C97.2629 49.7791 97.3213 49.7582 97.377 49.7383C97.5882 49.6626 97.763 49.6 98.0004 49.6C98.3004 49.6 98.5004 49.7 98.6004 49.9C98.7004 50 98.8004 50.3 98.8004 50.7V53.6C98.8004 54 98.7004 54.3 98.6004 54.4C98.5004 54.5 98.3004 54.6 98.1004 54.6H98.0004V54.8H100.8V54.6H100.7C100.4 54.6 100.2 54.5 100 54.4C99.9004 54.2 99.8004 54 99.8004 53.6V50.6C99.8004 50 99.7004 49.6 99.4004 49.3C99.1004 49 98.7004 48.8 98.3004 48.8C98.0004 48.8 97.8004 48.9 97.5004 49.1C97.2004 49.3 96.8004 49.6 96.4004 50.1ZM102.801 48.9H104.001V49.3H102.801V52.9C102.801 53.3 102.901 53.6 103.001 53.8C103.101 54 103.301 54.1 103.601 54.1C103.701 54.1 103.901 54.1 104.001 54C104.031 53.9697 104.071 53.9394 104.114 53.9064C104.213 53.8303 104.331 53.7394 104.401 53.6L104.501 53.7C104.201 54.1 103.901 54.4 103.701 54.5C103.501 54.6 103.201 54.7 102.901 54.7C102.501 54.7 102.201 54.6 102.001 54.3C101.801 54.1 101.701 53.6 101.701 53V49.2H100.801V49.1C101.201 49 101.601 48.7 101.901 48.4C102.201 48.1 102.401 47.7 102.501 47.2H102.701V48.9H102.801Z" fill="black"/>
</svg>
