<svg width="380" height="206" viewBox="0 0 380 206" fill="none" xmlns="http://www.w3.org/2000/svg">
<g clip-path="url(#clip0_251_13427)">
<path d="M258.182 1.0898V3.63301C262.909 3.63301 266.182 3.99632 268.364 5.08627C270.546 6.17622 271.637 8.35611 271.637 11.2626C271.637 12.3526 271.637 13.8058 271.273 14.8958C270.909 16.3491 270.546 17.439 269.818 18.8923L238.182 91.1921L230.546 109.358C223.637 93.0087 197.819 30.5184 197.819 30.8817C193.819 21.7988 188.364 15.9857 188 15.6224C176.364 4.35964 162.909 0.726483 153.091 -0.000148624C151.273 -0.000148624 149.455 -0.363464 147.637 -0.363464H147.273C146.182 -0.363464 145.455 -0.363464 144.364 -0.363464H144C143.637 -0.363464 142.909 -0.363464 142.546 -0.363464C126.182 0.726483 111.637 6.90285 99.6367 18.1656C86.1822 30.5184 79.6367 46.5043 79.6367 66.1233C79.6367 85.3791 85.4549 101.365 97.4549 114.444C109.455 127.524 125.091 134.063 144 134.063C164 134.063 180.364 127.887 193.091 115.171C199.637 108.631 204.728 101.365 207.637 93.0087L197.455 70.1198L196.728 69.7565C195.273 101.728 172.728 127.16 145.091 127.16C116.364 127.16 93.4549 99.9117 93.4549 66.4866C93.4549 33.0616 116.364 6.17622 145.091 6.17622C146.909 6.17622 148.364 6.17622 150.182 6.17622C178.546 8.35611 186.546 31.245 186.546 31.245L228.364 131.157H230.909L278.909 22.1621C282.182 15.2591 285.091 10.536 288 7.9928C291.273 5.08627 294.546 3.63301 298.546 3.63301V1.0898H258.182Z" fill="white"/>
<path d="M0 167.852H12C16 167.852 18.9091 168.578 21.0909 169.668C23.2727 170.758 24 172.938 24 175.845C24 178.751 22.9091 180.568 21.0909 182.384C19.2727 183.838 16.7273 184.564 13.8182 184.564C13.4545 184.564 12.7273 184.564 12.3636 184.564C12 184.564 10.9091 184.201 9.09091 183.838V194.374C9.09091 195.464 9.45455 196.19 10.1818 196.917C10.9091 197.28 11.6364 197.644 12.7273 197.644H13.4545V198.37H0V197.644H0.727273C1.81818 197.644 2.90909 197.28 3.27273 196.917C4 196.554 4.36364 195.827 4.36364 194.374V171.485C4.36364 170.395 4 169.668 3.27273 168.942C2.54545 168.578 1.81818 168.215 0.727273 168.215H0V167.852ZM9.09091 169.668V182.021C9.81818 182.384 10.1818 182.384 10.9091 182.384C11.6364 182.384 12 182.384 12.7273 182.384C14.5455 182.384 16 181.658 17.0909 180.568C18.1818 179.478 18.9091 178.025 18.9091 175.845C18.9091 173.665 18.1818 171.848 17.0909 170.758C16 169.668 14.1818 168.942 12 168.942C10.9091 168.942 10.1818 168.942 10.1818 168.942C9.81818 169.668 9.45455 169.668 9.09091 169.668Z" fill="white"/>
<path d="M33.4551 176.935V180.931C34.1824 179.841 34.9096 178.751 35.6369 178.025C36.7278 177.298 37.4551 176.935 38.1824 176.935C38.9096 176.935 39.6369 177.298 40.0005 177.661C40.7278 178.025 40.7278 178.751 40.7278 179.478C40.7278 180.205 40.7278 180.568 40.3642 180.931C40.0005 181.294 39.6369 181.658 38.9096 181.658C38.546 181.658 38.1824 181.658 38.1824 181.658C37.8187 181.658 37.4551 181.294 37.0914 180.931C36.7278 180.568 36.7278 180.568 36.3642 180.568C36.0005 180.568 36.0005 180.568 35.6369 180.568C35.2733 180.568 34.9096 180.931 34.1823 181.294C33.8187 181.658 33.0914 182.384 32.7278 183.111V194.737C32.7278 196.19 33.0914 196.917 33.4551 197.644C34.1824 198.007 34.9096 198.37 36.0005 198.37H36.3642V199.097H25.4551V198.37H25.8187C26.9096 198.37 27.6369 198.007 28.0005 197.644C28.7278 197.28 28.7278 196.19 28.7278 194.737V183.474C28.7278 182.384 28.7278 181.658 28.3642 180.931C28.0005 180.568 27.6369 180.205 27.2733 180.205C26.9096 180.205 26.9096 180.205 26.546 180.205C26.1824 180.205 26.1824 180.205 25.8187 180.205V179.478L33.4551 176.935Z" fill="white"/>
<path d="M52.0002 198.733C49.0911 198.733 46.5456 197.643 44.7275 195.827C42.9093 194.01 41.8184 191.104 41.8184 188.197C41.8184 185.291 42.9093 182.747 44.7275 180.568C46.5456 178.388 49.0911 177.298 52.0002 177.298C54.9093 177.298 57.4547 178.388 59.2729 180.204C61.0911 182.384 62.182 184.927 62.182 187.834C62.182 191.104 61.0911 193.647 59.2729 195.464C57.4547 197.643 54.9093 198.733 52.0002 198.733ZM46.182 187.471C46.182 190.014 46.9093 192.194 48.0002 194.01C49.4547 195.827 50.9093 196.917 52.7274 196.917C54.5456 196.917 55.6365 196.19 56.7275 194.374C57.8184 192.92 58.182 190.377 58.182 187.107C58.182 184.927 57.4547 182.747 56.3638 180.931C55.2729 179.114 53.4547 178.024 51.6365 178.024C49.8184 178.024 48.7275 178.751 47.6365 180.204C46.5456 182.384 46.182 184.564 46.182 187.471Z" fill="white"/>
<path d="M71.2727 176.934V196.554C71.2727 199.823 70.5455 202.003 69.0909 203.82C67.6364 205.273 65.8182 206.363 63.2727 206.363C62.1818 206.363 61.4545 206 60.7273 205.636C60 205.273 60 204.546 60 203.82C60 203.457 60 203.093 60.3636 202.73C60.7273 202.367 61.0909 202.367 61.4545 202.367C61.8182 202.367 62.1818 202.367 62.5455 202.367C62.9091 202.367 63.2727 202.73 63.6364 203.093C64 203.457 64.3636 203.82 64.7273 204.183C65.0909 204.183 65.4545 204.546 65.8182 204.546C66.5455 204.546 66.9091 204.183 67.2727 203.457C67.6364 202.73 67.6364 200.55 67.6364 197.28V183.111C67.6364 182.021 67.6364 181.294 67.2727 180.568C66.9091 180.204 66.5455 179.841 66.1818 179.841C65.8182 179.841 65.8182 179.841 65.4545 179.841C65.0909 179.841 65.0909 179.841 64.7273 179.841V179.114L71.2727 176.934ZM66.9091 170.031C66.9091 169.305 67.2727 168.942 67.6364 168.215C68 167.852 68.7273 167.488 69.4545 167.488C70.1818 167.488 70.5455 167.852 71.2727 168.215C71.6364 168.578 72 169.305 72 169.668C72 170.395 71.6364 170.758 71.2727 171.485C70.9091 171.848 70.1818 172.211 69.4545 172.211C68.7273 172.211 68.3636 171.848 67.6364 171.485C67.2727 171.485 66.9091 170.758 66.9091 170.031Z" fill="white"/>
<path d="M92.0004 185.291H78.5458C78.5458 188.197 78.9095 190.74 80.364 192.557C81.4549 194.374 83.2731 195.464 85.4549 195.464C86.9094 195.464 88.0004 195.1 89.4549 194.01C90.5458 192.92 91.6367 191.83 92.0004 190.377L92.7276 190.74C92.0004 193.284 90.9095 195.1 89.4549 196.553C88.0004 198.007 86.1822 198.733 84.0004 198.733C81.4549 198.733 79.6367 197.643 77.8185 195.827C76.364 194.01 75.6367 191.104 75.6367 187.834C75.6367 184.564 76.364 182.021 78.1822 180.204C79.6367 178.024 81.8185 177.298 84.7276 177.298C86.9094 177.298 88.7276 178.024 90.1822 179.478C91.6367 180.931 92.364 182.747 92.0004 185.291ZM78.9095 183.837H87.6367C87.6367 182.384 87.2731 181.294 86.5458 180.204C85.8185 179.114 84.7276 178.751 83.2731 178.751C82.1822 178.751 81.0913 179.114 80.364 180.204C79.6367 181.294 78.9095 182.384 78.9095 183.837Z" fill="white"/>
<path d="M112.364 190.377L113.091 190.74C112.364 193.647 111.273 195.464 109.819 196.917C108.364 198.37 106.546 198.733 104.364 198.733C101.819 198.733 99.6367 197.643 98.1822 195.827C96.364 194.01 95.6367 191.467 95.6367 188.197C95.6367 185.291 96.7276 182.747 98.5458 180.568C100.364 178.388 102.909 177.298 105.455 177.298C107.273 177.298 108.728 177.661 110.182 178.751C111.637 179.478 112.364 180.568 112.364 182.021C112.364 182.747 112.364 183.111 112 183.474C111.637 183.837 111.273 184.201 110.546 184.201C109.819 184.201 109.455 184.201 109.091 183.837C108.728 183.474 108.364 182.747 108.364 182.021C108 180.931 107.637 179.841 107.273 179.478C106.909 179.114 106.182 178.751 105.091 178.751C103.273 178.751 101.819 179.478 101.091 180.931C100 182.384 99.6367 184.564 99.6367 186.744C99.6367 189.287 100.364 191.467 101.455 192.92C102.546 194.374 104.364 195.464 106.546 195.464C108 195.464 109.455 195.1 110.546 194.01C111.273 192.92 112 191.83 112.364 190.377Z" fill="white"/>
<path d="M121.818 177.298H126.181V178.751H121.818V191.83C121.818 193.284 122.181 194.374 122.545 195.1C122.909 195.827 123.636 196.19 124.727 196.19C125.09 196.19 125.818 196.19 126.181 195.827C126.545 195.464 127.272 195.1 127.636 194.374L127.999 194.737C126.909 196.19 125.818 197.28 125.09 197.643C124.363 198.007 123.272 198.37 122.181 198.37C120.727 198.37 119.636 198.007 118.909 196.917C118.181 196.19 117.818 194.374 117.818 192.194V178.388H114.545V178.024C115.999 177.661 117.454 176.571 118.545 175.481C119.636 174.391 120.363 172.938 120.727 171.121H121.454V177.298H121.818Z" fill="white"/>
<path d="M150.181 167.852L160.363 190.741L170.545 167.852H179.636V168.578H178.908C177.817 168.578 176.727 168.942 175.999 169.305C175.272 169.668 174.908 170.395 174.908 171.848V194.737C174.908 195.827 175.272 196.554 175.999 197.28C176.727 197.644 177.454 198.007 178.545 198.007H179.272V198.734H165.817V198.007H166.545C167.636 198.007 168.727 197.644 169.09 197.28C169.817 196.917 170.181 196.19 170.181 194.737V172.938L158.545 198.37H158.181L146.908 172.575V194.737C146.908 195.827 147.272 196.554 147.999 197.28C148.727 197.644 149.454 198.007 150.545 198.007H151.272V198.734H140.727V198.007H141.817C142.908 198.007 143.999 197.644 144.363 197.28C145.09 196.917 145.454 196.19 145.454 194.737V171.848C145.454 170.758 145.09 170.032 144.363 169.305C143.636 168.942 142.908 168.578 141.817 168.578H141.09V167.852H150.181Z" fill="white"/>
<path d="M201.09 194.737L201.454 195.1C200.363 196.19 199.636 196.917 198.909 197.644C198.181 198.007 197.454 198.37 196.727 198.37C195.999 198.37 195.272 198.007 194.909 197.28C194.545 196.554 194.181 195.827 194.181 194.737C193.09 195.827 191.999 196.554 190.545 197.28C189.454 198.007 187.999 198.37 186.909 198.37C185.454 198.37 184.363 198.007 183.636 196.917C182.909 195.827 182.545 194.737 182.545 193.284C182.545 191.831 183.272 190.377 184.363 188.924C185.818 187.834 188.727 186.018 193.818 184.564V182.021C193.818 180.931 193.454 179.841 192.727 179.115C191.999 178.388 191.272 178.025 189.818 178.025C188.727 178.025 187.999 178.388 187.272 178.751C186.545 179.115 186.545 179.841 186.545 180.568C186.545 180.568 186.545 180.931 186.545 181.294C186.545 181.658 186.545 181.658 186.545 182.021C186.545 182.748 186.181 183.111 186.181 183.474C185.818 183.838 185.454 183.838 184.727 183.838C183.999 183.838 183.636 183.838 183.636 183.474C183.272 183.111 183.272 182.748 183.272 182.021C183.272 180.568 183.999 179.115 185.454 178.388C186.909 177.298 188.727 176.935 190.545 176.935C192.727 176.935 194.181 177.298 195.636 178.388C196.727 179.115 197.454 180.568 197.454 182.384V194.737C197.454 195.1 197.454 195.464 197.818 195.827C198.181 196.19 198.181 196.19 198.545 196.19C198.909 196.19 199.272 196.19 199.636 195.827C200.363 195.464 200.727 195.1 201.09 194.737ZM194.181 194.011V186.381C190.909 187.471 189.09 188.561 187.999 189.287C186.909 190.377 186.545 191.467 186.545 192.921C186.545 194.011 186.909 194.737 187.636 195.464C188.363 196.19 189.09 196.554 190.181 196.554C190.909 196.554 191.636 196.554 192.363 196.19C192.363 195.1 193.09 194.737 194.181 194.011Z" fill="white"/>
<path d="M209.818 176.935V181.658C211.272 179.841 212.727 178.751 213.818 178.025C214.909 177.298 215.636 176.935 216.727 176.935C218.181 176.935 219.636 177.661 220.727 178.751C221.818 179.841 222.181 181.294 222.181 183.474V194.374C222.181 195.827 222.545 196.554 222.909 197.28C223.636 197.644 224.363 198.007 225.454 198.007H225.818V198.734H215.636V198.007H215.999C216.727 198.007 217.454 197.644 217.818 197.28C218.181 196.917 218.545 195.827 218.545 194.374V183.838C218.545 182.384 218.181 181.294 217.818 180.931C217.454 180.205 216.727 179.841 215.636 179.841C214.545 179.841 213.818 180.205 212.727 180.568C211.636 180.931 210.909 181.658 209.818 182.748V194.374C209.818 195.827 210.181 196.554 210.545 197.28C210.909 197.644 211.636 198.007 212.363 198.007H212.727V198.734H202.545V198.007H202.909C203.999 198.007 204.727 197.644 205.09 197.28C205.818 196.917 205.818 195.827 205.818 194.374V183.111C205.818 182.021 205.818 181.294 205.454 180.568C205.09 180.205 204.727 179.841 204.363 179.841C203.999 179.841 203.999 179.841 203.636 179.841C203.272 179.841 203.272 179.841 202.909 179.841V179.115L209.818 176.935Z" fill="white"/>
<path d="M245.454 194.737L245.817 195.1C244.726 196.19 243.999 196.917 243.272 197.644C242.545 198.007 241.817 198.37 241.09 198.37C240.363 198.37 239.635 198.007 239.272 197.28C238.908 196.554 238.545 195.827 238.545 194.737C237.454 195.827 236.363 196.554 234.908 197.28C233.817 198.007 232.363 198.37 231.272 198.37C229.817 198.37 228.726 198.007 227.999 196.917C227.272 195.827 226.908 194.737 226.908 193.284C226.908 191.831 227.635 190.377 228.726 188.924C230.181 187.834 233.09 186.018 238.181 184.564V182.021C238.181 180.931 237.817 179.841 237.09 179.115C236.363 178.388 235.635 178.025 234.181 178.025C233.09 178.025 232.363 178.388 231.635 178.751C230.908 179.115 230.908 179.841 230.908 180.568C230.908 180.568 230.908 180.931 230.908 181.294C230.908 181.658 230.908 181.658 230.908 182.021C230.908 182.748 230.545 183.111 230.545 183.474C230.181 183.838 229.817 183.838 229.09 183.838C228.363 183.838 227.999 183.838 227.999 183.474C227.635 183.111 227.635 182.748 227.635 182.021C227.635 180.568 228.363 179.115 229.817 178.388C231.272 177.298 233.09 176.935 234.908 176.935C237.09 176.935 238.545 177.298 239.999 178.388C241.09 179.115 241.817 180.568 241.817 182.384V194.737C241.817 195.1 241.817 195.464 242.181 195.827C242.545 196.19 242.545 196.19 242.908 196.19C243.272 196.19 243.635 196.19 243.999 195.827C245.09 195.464 245.09 195.1 245.454 194.737ZM238.545 194.011V186.381C235.272 187.471 233.454 188.561 232.363 189.287C231.272 190.377 230.908 191.467 230.908 192.921C230.908 194.011 231.272 194.737 231.999 195.464C232.726 196.19 233.454 196.554 234.545 196.554C235.272 196.554 235.999 196.554 236.726 196.19C236.726 195.1 237.817 194.737 238.545 194.011Z" fill="white"/>
<path d="M259.999 178.751H265.09V180.568H261.454C261.818 181.294 262.181 181.658 262.181 182.384C262.545 183.111 262.545 183.474 262.545 184.201C262.545 186.381 261.818 187.834 260.363 189.287C258.909 190.377 257.454 191.104 255.272 191.104C254.545 191.104 254.181 191.104 253.454 191.104C253.09 191.104 252.727 191.104 251.999 190.741C251.636 191.104 251.272 191.467 250.909 191.83C250.909 191.83 250.909 192.194 250.909 192.557C250.909 192.92 250.909 193.284 251.272 193.284C251.636 193.284 252.363 193.647 254.181 193.647C254.181 193.647 254.181 193.647 254.545 193.647C254.545 193.647 255.272 193.647 257.09 193.647C260.363 193.647 262.545 194.01 263.636 194.737C265.09 195.464 265.454 196.917 265.454 198.733C265.454 200.913 264.363 202.73 262.181 204.183C259.999 205.636 257.454 206.363 254.909 206.363C252.363 206.363 250.181 206 248.727 204.91C247.272 204.183 246.545 203.093 246.545 201.64C246.545 201.277 246.545 200.55 246.909 200.187C247.272 199.823 248.363 198.37 250.545 196.554C249.818 196.554 249.454 196.19 249.09 195.827C248.727 195.464 248.363 194.737 248.363 194.374C248.363 193.647 248.727 193.284 249.09 192.557C249.454 191.83 250.545 191.104 251.636 190.014C250.545 189.651 249.454 188.924 249.09 187.834C248.363 186.744 247.999 185.654 247.999 184.564C247.999 182.384 248.727 180.931 250.181 179.478C251.636 178.025 253.454 177.661 255.636 177.661C256.363 177.661 257.09 177.661 258.181 178.025C258.545 177.661 259.272 178.025 259.999 178.751ZM251.272 196.917C250.545 197.644 250.181 198.37 249.818 198.733C249.454 199.097 249.454 199.823 249.454 200.187C249.454 201.277 250.181 202.003 251.272 202.367C252.363 202.73 253.818 203.093 255.636 203.093C258.181 203.093 259.999 202.73 261.454 202.003C262.909 201.277 263.636 200.55 263.636 199.097C263.636 198.733 263.636 198.37 263.272 198.007C263.272 198.007 259.272 197.28 251.272 196.917ZM255.636 189.287C256.727 189.287 257.454 188.924 258.181 188.197C258.909 187.471 258.909 186.381 259.272 185.291C259.272 183.111 258.909 181.658 258.181 180.204C257.454 179.114 256.363 178.388 255.272 178.388C254.181 178.388 253.454 178.751 253.09 179.478C252.363 180.204 251.999 180.931 251.999 182.384C251.999 184.201 252.363 186.017 253.09 187.107C253.09 188.561 254.181 189.287 255.636 189.287Z" fill="white"/>
<path d="M284 185.291H270.546C270.546 188.197 270.909 190.74 272.364 192.557C273.455 194.374 275.273 195.464 277.455 195.464C278.909 195.464 280 195.1 281.455 194.01C282.546 192.92 283.637 191.83 284 190.377L284.728 190.74C284 193.284 282.909 195.1 281.455 196.553C280 198.007 278.182 198.733 276 198.733C273.455 198.733 271.637 197.643 269.819 195.827C268.364 194.01 267.637 191.104 267.637 187.834C267.637 184.564 268.364 182.021 270.182 180.204C271.637 178.024 273.819 177.298 276.728 177.298C278.909 177.298 280.728 178.024 282.182 179.478C283.273 180.931 284 182.747 284 185.291ZM270.909 183.837H279.637C279.637 182.384 279.273 181.294 278.546 180.204C277.819 179.114 276.728 178.751 275.273 178.751C274.182 178.751 273.091 179.114 272.364 180.204C271.273 181.294 270.909 182.384 270.909 183.837Z" fill="white"/>
<path d="M294.181 176.934V180.931C295.999 179.114 297.454 178.388 298.181 177.661C299.272 177.298 299.999 176.934 301.09 176.934C302.545 176.934 303.635 177.298 304.363 178.024C305.454 178.751 305.817 179.841 306.181 180.931C307.999 179.114 309.09 178.024 310.181 177.661C311.272 176.934 312.363 176.934 313.454 176.571C314.908 176.571 316.363 176.934 317.09 178.024C317.817 179.114 318.545 180.568 318.545 182.747V193.647C318.545 195.1 318.908 195.827 319.272 196.553C319.999 196.917 320.726 197.28 321.817 197.28H322.181V198.007H311.999V197.28H312.726C313.454 197.28 314.181 196.917 314.545 196.553C314.908 196.19 315.272 195.1 315.272 193.647V183.111C315.272 181.658 314.908 180.931 314.545 180.204C314.181 179.478 313.454 179.114 312.363 179.114C311.635 179.114 310.545 179.478 309.454 179.841C308.363 180.204 307.635 180.931 306.545 182.021V193.647C306.545 195.1 306.908 195.827 307.272 196.553C307.635 196.917 308.363 197.28 309.09 197.28H309.454V198.007H299.635V197.28H299.999C300.726 197.28 301.454 196.917 301.817 196.553C302.181 196.19 302.545 195.1 302.545 193.647V183.111C302.545 182.021 302.181 180.931 301.817 180.204C301.09 179.478 300.363 179.114 299.635 179.114C298.545 179.114 297.817 179.478 296.726 179.841C295.635 180.204 294.908 180.931 294.181 182.021V193.647C294.181 195.1 294.545 195.827 294.908 196.553C295.272 196.917 295.999 197.28 296.726 197.28H297.09V198.007H286.908V197.28H287.272C288.363 197.28 289.09 196.917 289.454 196.553C290.181 196.19 290.181 195.1 290.181 193.647V182.384C290.181 181.294 290.181 180.568 289.817 179.841C289.454 179.478 289.09 179.114 288.726 179.114C288.363 179.114 288.363 179.114 287.999 179.114C287.635 179.114 287.635 179.114 287.272 179.114V178.388L294.181 176.934Z" fill="white"/>
<path d="M340.363 185.291H327.272C327.272 188.197 327.636 190.74 329.091 192.557C330.181 194.374 332 195.464 334.181 195.464C335.636 195.464 336.727 195.1 338.181 194.01C339.272 192.92 340.363 191.83 340.727 190.377L341.454 190.74C340.727 193.284 339.636 195.1 338.181 196.553C336.727 198.007 334.909 198.733 332.727 198.733C330.181 198.733 328.363 197.643 326.545 195.827C325.091 194.01 324.363 191.104 324.363 187.834C324.363 184.564 325.091 182.021 326.909 180.204C328.363 178.024 330.545 177.298 333.454 177.298C335.636 177.298 337.454 178.024 338.909 179.478C339.636 180.931 340.363 182.747 340.363 185.291ZM327.272 183.837H336C336 182.384 335.636 181.294 334.909 180.204C334.181 179.114 333.091 178.751 331.636 178.751C330.545 178.751 329.454 179.114 328.727 180.204C327.636 181.294 327.272 182.384 327.272 183.837Z" fill="white"/>
<path d="M350.546 176.935V181.658C352.001 179.841 353.455 178.751 354.546 178.025C355.637 177.298 356.364 176.935 357.455 176.935C358.91 176.935 360.364 177.661 361.455 178.751C362.546 179.841 362.91 181.294 362.91 183.474V194.374C362.91 195.827 363.273 196.554 363.637 197.28C364.364 197.644 365.092 198.007 366.182 198.007H366.546V198.734H356.364V198.007H356.728C357.455 198.007 358.182 197.644 358.546 197.28C358.91 196.917 359.273 195.827 359.273 194.374V183.838C359.273 182.384 358.91 181.294 358.546 180.931C358.182 180.205 357.455 179.841 356.364 179.841C355.273 179.841 354.546 180.205 353.455 180.568C352.364 180.931 351.637 181.658 350.546 182.748V194.374C350.546 195.827 350.91 196.554 351.273 197.28C351.637 197.644 352.364 198.007 353.092 198.007H353.455V198.734H343.273V198.007H343.637C344.728 198.007 345.455 197.644 345.819 197.28C346.546 196.917 346.546 195.827 346.546 194.374V183.111C346.546 182.021 346.546 181.294 346.183 180.568C345.819 180.205 345.455 179.841 345.092 179.841C344.728 179.841 344.728 179.841 344.364 179.841C344.001 179.841 344.001 179.841 343.637 179.841V179.115L350.546 176.935Z" fill="white"/>
<path d="M373.818 177.298H378.181V178.751H373.818V191.83C373.818 193.284 374.181 194.374 374.545 195.1C374.909 195.827 375.636 196.19 376.727 196.19C377.09 196.19 377.818 196.19 378.181 195.827C378.545 195.464 379.272 195.1 379.636 194.374L379.999 194.737C378.909 196.19 377.818 197.28 377.09 197.643C376.363 198.007 375.272 198.37 374.181 198.37C372.727 198.37 371.636 198.007 370.909 196.917C370.181 196.19 369.818 194.374 369.818 192.194V178.388H366.545V178.024C367.999 177.661 369.454 176.571 370.545 175.481C371.636 174.391 372.363 172.938 372.727 171.121H373.454V177.298H373.818Z" fill="white"/>
</g>
<defs>
<clipPath id="clip0_251_13427">
<rect width="380" height="206" fill="white"/>
</clipPath>
</defs>
</svg>
