<svg width="421" height="40" viewBox="0 0 421 40" fill="none" xmlns="http://www.w3.org/2000/svg">
<path d="M15.29 23.5483C14.6748 24.8335 14.0322 25.9204 13.3623 26.8091C12.6924 27.6978 11.9609 28.4155 11.168 28.9624C10.3887 29.5093 9.52734 29.8989 8.58398 30.1313C7.6543 30.3774 6.6084 30.5005 5.44629 30.5005C4.99512 30.5005 4.49609 30.4731 3.94922 30.4185C3.40234 30.3774 2.88965 30.3022 2.41113 30.1929V25.9067C2.93066 26.0298 3.42969 26.1187 3.9082 26.1733C4.38672 26.228 4.82422 26.2554 5.2207 26.2554C5.84961 26.2554 6.41699 26.187 6.92285 26.0503C7.42871 25.9136 7.90039 25.6743 8.33789 25.3325C8.77539 24.9907 9.19238 24.5259 9.58887 23.938C9.99902 23.3501 10.4092 22.5981 10.8193 21.6821L0.134766 2.54834H5.71289L13.4238 16.5962L19.8838 2.54834H25.3389L15.29 23.5483Z" fill="black"/>
<path d="M31.5322 14.2788V29.9878H26.6719V10.1157H44.0215V29.9878H39.1611V14.2788H31.5322Z" fill="black"/>
<path d="M58.6641 13.52C57.8164 13.5337 57.0098 13.7456 56.2441 14.1558C55.4785 14.5522 54.8018 15.0923 54.2139 15.7759V24.6353C54.4189 24.8677 54.665 25.1001 54.9521 25.3325C55.2393 25.5649 55.5605 25.7769 55.916 25.9683C56.2715 26.1597 56.6611 26.3169 57.085 26.4399C57.5225 26.563 57.9736 26.6245 58.4385 26.6245C59.1904 26.6245 59.8604 26.4673 60.4482 26.1528C61.0361 25.8247 61.5215 25.3667 61.9043 24.7788C62.3008 24.1909 62.6016 23.4937 62.8066 22.687C63.0117 21.8667 63.1143 20.9575 63.1143 19.9595C63.1143 18.8931 63.0049 17.9565 62.7861 17.1499C62.5811 16.3433 62.2803 15.6733 61.8838 15.1401C61.501 14.6069 61.0361 14.2036 60.4893 13.9302C59.9424 13.6567 59.334 13.52 58.6641 13.52ZM59.2998 30.5005C58.2334 30.5005 57.2627 30.3091 56.3877 29.9263C55.5264 29.5298 54.8086 29.0444 54.2344 28.4702H54.1523C54.166 28.7437 54.1797 29.1333 54.1934 29.6392C54.207 30.1313 54.2139 30.6714 54.2139 31.2593V39.5239H49.3535V10.1157H53.6191L53.8242 12.3511H53.9062C54.5078 11.5581 55.2803 10.9087 56.2236 10.4028C57.167 9.8833 58.2607 9.62354 59.5049 9.62354C60.585 9.62354 61.6445 9.82861 62.6836 10.2388C63.7363 10.6353 64.666 11.2505 65.4727 12.0845C66.2793 12.9185 66.9219 13.9712 67.4004 15.2427C67.8926 16.5142 68.1387 18.0249 68.1387 19.7749C68.1387 21.6206 67.8789 23.2202 67.3594 24.5737C66.8398 25.9136 66.1562 27.0278 65.3086 27.9165C64.4609 28.7915 63.5176 29.4409 62.4785 29.8647C61.4531 30.2886 60.3936 30.5005 59.2998 30.5005Z" fill="black"/>
<path d="M84.1348 27.8755H84.0527C83.7793 28.1626 83.4512 28.4565 83.0684 28.7573C82.6855 29.0581 82.248 29.3452 81.7559 29.6187C81.2637 29.8784 80.7168 30.0903 80.1152 30.2544C79.5137 30.4185 78.8643 30.5005 78.167 30.5005C77.2236 30.5005 76.3418 30.3501 75.5215 30.0493C74.7012 29.7622 73.9971 29.3452 73.4092 28.7983C72.8213 28.2378 72.3564 27.5679 72.0146 26.7886C71.6865 25.9956 71.5225 25.1138 71.5225 24.1431C71.5225 23.0767 71.7139 22.1196 72.0967 21.272C72.4932 20.4243 73.04 19.7065 73.7373 19.1187C74.4346 18.5308 75.2686 18.0864 76.2393 17.7856C77.21 17.4712 78.2832 17.314 79.459 17.314C80.3203 17.314 81.1133 17.3687 81.8379 17.478C82.5625 17.5874 83.1982 17.7173 83.7451 17.8677V17.0679C83.7451 16.603 83.6631 16.1587 83.499 15.7349C83.3486 15.2974 83.0957 14.9146 82.7402 14.5864C82.3984 14.2446 81.9473 13.978 81.3867 13.7866C80.8262 13.5815 80.1426 13.479 79.3359 13.479C78.3516 13.479 77.3672 13.5884 76.3828 13.8071C75.3984 14.0259 74.332 14.354 73.1836 14.7915V10.9976C74.1816 10.5601 75.2412 10.2251 76.3623 9.99268C77.4834 9.76025 78.6592 9.63721 79.8896 9.62354C81.3389 9.62354 82.6035 9.80127 83.6836 10.1567C84.7773 10.5122 85.6865 11.0044 86.4111 11.6333C87.1494 12.2485 87.6963 12.98 88.0518 13.8276C88.4209 14.6753 88.6055 15.5981 88.6055 16.5962V24.0815C88.6055 25.394 88.6191 26.522 88.6465 27.4653C88.6738 28.4087 88.7012 29.2495 88.7285 29.9878H84.3398L84.1348 27.8755ZM83.7451 21.5181C83.2803 21.4087 82.7471 21.313 82.1455 21.231C81.5439 21.1353 80.9355 21.0874 80.3203 21.0874C79.1309 21.0874 78.1875 21.3267 77.4902 21.8052C76.8066 22.27 76.4648 22.9878 76.4648 23.9585C76.4648 24.4097 76.54 24.8062 76.6904 25.1479C76.8545 25.4761 77.0664 25.7495 77.3262 25.9683C77.5996 26.187 77.9141 26.3511 78.2695 26.4604C78.625 26.5698 79.001 26.6245 79.3975 26.6245C79.8896 26.6245 80.3545 26.563 80.792 26.4399C81.2295 26.3032 81.6328 26.1392 82.002 25.9478C82.3711 25.7427 82.6992 25.5171 82.9863 25.271C83.2871 25.0249 83.54 24.7856 83.7451 24.5532V21.5181Z" fill="black"/>
<path d="M110.405 15.3247C110.405 16.3091 110.146 17.1704 109.626 17.9087C109.106 18.647 108.375 19.2007 107.432 19.5698V19.6519C108.607 19.9663 109.489 20.4858 110.077 21.2104C110.679 21.9214 110.979 22.8101 110.979 23.8765C110.979 25.1616 110.597 26.2964 109.831 27.2808C109.065 28.2515 107.931 28.9761 106.427 29.4546C105.866 29.6323 105.217 29.769 104.479 29.8647C103.754 29.9468 102.872 29.9878 101.833 29.9878H94.0605V10.1157H102.817C103.556 10.1157 104.219 10.1567 104.807 10.2388C105.408 10.3071 105.948 10.4165 106.427 10.5669C107.726 10.9634 108.71 11.5786 109.38 12.4126C110.063 13.2466 110.405 14.2173 110.405 15.3247ZM102.325 26.2349C102.845 26.2349 103.282 26.2144 103.638 26.1733C103.993 26.1187 104.287 26.0435 104.52 25.9478C105.012 25.7563 105.374 25.4897 105.606 25.1479C105.839 24.7925 105.955 24.3755 105.955 23.897C105.955 23.4731 105.846 23.0972 105.627 22.769C105.422 22.4409 105.121 22.188 104.725 22.0103C104.506 21.9146 104.26 21.8462 103.986 21.8052C103.713 21.7505 103.371 21.7231 102.961 21.7231H98.8389V26.2349H102.325ZM102.53 17.9702C103.337 17.9702 103.938 17.8608 104.335 17.6421C104.69 17.4507 104.95 17.1978 105.114 16.8833C105.292 16.5688 105.381 16.2202 105.381 15.8374C105.381 15.0718 105.053 14.5181 104.396 14.1763C104.014 13.9712 103.398 13.8687 102.551 13.8687H98.8389V17.9702H102.53Z" fill="black"/>
<path d="M132.308 10.1157V29.9878H127.447V14.1558H123.94C123.585 16.7397 123.188 18.9341 122.751 20.7388C122.313 22.5435 121.842 24.0474 121.336 25.2505C120.844 26.4536 120.324 27.397 119.777 28.0806C119.23 28.7642 118.677 29.27 118.116 29.5981C117.556 29.9126 116.988 30.1177 116.414 30.2134C115.854 30.3091 115.266 30.3569 114.65 30.3569C114.404 30.3569 114.145 30.3433 113.871 30.3159C113.598 30.3022 113.324 30.2681 113.051 30.2134V25.8862C113.461 25.9546 113.823 25.9888 114.138 25.9888C114.63 25.9888 115.047 25.9341 115.389 25.8247C115.73 25.7017 116.059 25.4692 116.373 25.1274C116.688 24.7856 116.995 24.2729 117.296 23.5894C117.61 22.8921 117.918 21.9556 118.219 20.7798C118.533 19.604 118.841 18.1479 119.142 16.4116C119.456 14.6616 119.777 12.563 120.105 10.1157H132.308Z" fill="black"/>
<path d="M137.783 10.1157H142.644V29.9878H137.783V10.1157ZM137.66 0.29248H142.767V5.56299H137.66V0.29248Z" fill="black"/>
<path d="M160.998 29.9878V21.7847H152.979V29.9878H148.119V10.1157H152.979V17.6626H160.998V10.1157H165.858V29.9878H160.998Z" fill="black"/>
<path d="M184.09 29.9878V21.7847H176.071V29.9878H171.211V10.1157H176.071V17.6626H184.09V10.1157H188.95V29.9878H184.09Z" fill="black"/>
<path d="M202.239 13.8687C201.104 13.8687 200.277 14.0874 199.758 14.5249C199.457 14.771 199.231 15.0718 199.081 15.4272C198.944 15.7827 198.876 16.1587 198.876 16.5552C198.876 17.1704 199.02 17.6763 199.307 18.0728C199.594 18.4692 200.004 18.7632 200.537 18.9546C200.77 19.0366 201.043 19.0981 201.357 19.1392C201.672 19.1665 202.041 19.1802 202.465 19.1802H205.726V13.8687H202.239ZM193.852 16.7603C193.852 16.186 193.913 15.6255 194.036 15.0786C194.173 14.5181 194.378 13.9917 194.651 13.4995C194.925 13.0073 195.267 12.5562 195.677 12.146C196.101 11.7222 196.6 11.3599 197.174 11.0591C197.748 10.7583 198.411 10.5259 199.163 10.3618C199.929 10.1978 200.817 10.1157 201.829 10.1157H210.545V29.9878H205.726V22.9331H201.891L198.117 29.9878H192.867L197.235 22.0103V21.9282C196.114 21.436 195.267 20.7524 194.692 19.8774C194.132 18.9888 193.852 17.9497 193.852 16.7603Z" fill="black"/>
<path d="M229.392 14.2788V29.9878H224.531V10.1157H241.881V29.9878H237.021V14.2788H229.392Z" fill="black"/>
<path d="M256.523 13.52C255.676 13.5337 254.869 13.7456 254.104 14.1558C253.338 14.5522 252.661 15.0923 252.073 15.7759V24.6353C252.278 24.8677 252.524 25.1001 252.812 25.3325C253.099 25.5649 253.42 25.7769 253.775 25.9683C254.131 26.1597 254.521 26.3169 254.944 26.4399C255.382 26.563 255.833 26.6245 256.298 26.6245C257.05 26.6245 257.72 26.4673 258.308 26.1528C258.896 25.8247 259.381 25.3667 259.764 24.7788C260.16 24.1909 260.461 23.4937 260.666 22.687C260.871 21.8667 260.974 20.9575 260.974 19.9595C260.974 18.8931 260.864 17.9565 260.646 17.1499C260.44 16.3433 260.14 15.6733 259.743 15.1401C259.36 14.6069 258.896 14.2036 258.349 13.9302C257.802 13.6567 257.193 13.52 256.523 13.52ZM257.159 30.5005C256.093 30.5005 255.122 30.3091 254.247 29.9263C253.386 29.5298 252.668 29.0444 252.094 28.4702H252.012C252.025 28.7437 252.039 29.1333 252.053 29.6392C252.066 30.1313 252.073 30.6714 252.073 31.2593V39.5239H247.213V10.1157H251.479L251.684 12.3511H251.766C252.367 11.5581 253.14 10.9087 254.083 10.4028C255.026 9.8833 256.12 9.62354 257.364 9.62354C258.444 9.62354 259.504 9.82861 260.543 10.2388C261.596 10.6353 262.525 11.2505 263.332 12.0845C264.139 12.9185 264.781 13.9712 265.26 15.2427C265.752 16.5142 265.998 18.0249 265.998 19.7749C265.998 21.6206 265.738 23.2202 265.219 24.5737C264.699 25.9136 264.016 27.0278 263.168 27.9165C262.32 28.7915 261.377 29.4409 260.338 29.8647C259.312 30.2886 258.253 30.5005 257.159 30.5005Z" fill="black"/>
<path d="M284.229 20.062C284.229 19.0093 284.106 18.0796 283.86 17.2729C283.614 16.4663 283.272 15.7896 282.835 15.2427C282.397 14.6958 281.871 14.2856 281.256 14.0122C280.641 13.7388 279.971 13.6021 279.246 13.6021C278.535 13.6021 277.872 13.7388 277.257 14.0122C276.655 14.2856 276.136 14.6958 275.698 15.2427C275.261 15.7896 274.919 16.4663 274.673 17.2729C274.427 18.0796 274.304 19.0093 274.304 20.062C274.304 21.1147 274.427 22.0444 274.673 22.8511C274.919 23.6577 275.261 24.3345 275.698 24.8813C276.149 25.4146 276.676 25.8247 277.277 26.1118C277.893 26.3853 278.562 26.522 279.287 26.522C280.012 26.522 280.675 26.3853 281.276 26.1118C281.878 25.8247 282.397 25.4146 282.835 24.8813C283.272 24.3345 283.614 23.6577 283.86 22.8511C284.106 22.0444 284.229 21.1147 284.229 20.062ZM289.254 20.062C289.254 21.6206 289.021 23.0425 288.557 24.3276C288.092 25.6128 287.422 26.7134 286.547 27.6294C285.686 28.5454 284.64 29.2563 283.409 29.7622C282.179 30.2544 280.805 30.5005 279.287 30.5005C277.729 30.5005 276.327 30.2544 275.083 29.7622C273.853 29.2563 272.807 28.5454 271.945 27.6294C271.084 26.7134 270.421 25.6128 269.956 24.3276C269.505 23.0425 269.279 21.6206 269.279 20.062C269.279 18.5034 269.512 17.0815 269.977 15.7964C270.441 14.5112 271.104 13.4106 271.966 12.4946C272.841 11.5786 273.894 10.8745 275.124 10.3823C276.354 9.87646 277.729 9.62354 279.246 9.62354C280.805 9.62354 282.199 9.87646 283.43 10.3823C284.674 10.8745 285.727 11.5786 286.588 12.4946C287.449 13.4106 288.105 14.5112 288.557 15.7964C289.021 17.0815 289.254 18.5034 289.254 20.062Z" fill="black"/>
<path d="M303.158 9.62354C304.211 9.62354 305.216 9.71924 306.173 9.91064C307.144 10.1021 308.025 10.3687 308.818 10.7104V14.5249C308.053 14.2378 307.219 13.9985 306.316 13.8071C305.414 13.6157 304.43 13.52 303.363 13.52C302.652 13.52 301.976 13.6089 301.333 13.7866C300.69 13.9507 300.116 14.2104 299.61 14.5659C299.104 14.9214 298.674 15.3862 298.318 15.9604C297.977 16.521 297.744 17.2046 297.621 18.0112H307.567V21.8052H297.478C297.628 23.4185 298.216 24.6216 299.241 25.4146C300.267 26.2075 301.647 26.604 303.384 26.604C304.245 26.604 305.134 26.5288 306.05 26.3784C306.966 26.2144 307.998 25.9136 309.146 25.4761V29.3521C308.258 29.7212 307.294 30.0015 306.255 30.1929C305.229 30.3979 304.204 30.5005 303.179 30.5005C301.647 30.5005 300.232 30.2954 298.934 29.8853C297.635 29.4751 296.507 28.8599 295.55 28.0396C294.606 27.2056 293.868 26.1597 293.335 24.9019C292.802 23.6304 292.535 22.1401 292.535 20.4312C292.535 18.6812 292.788 17.1362 293.294 15.7964C293.813 14.4565 294.538 13.3286 295.468 12.4126C296.397 11.4966 297.512 10.8062 298.811 10.3413C300.123 9.86279 301.572 9.62354 303.158 9.62354Z" fill="black"/>
<path d="M313.453 10.1157H318.313V18.7495H318.416L325.266 10.1157H331.09L322.969 19.9185L331.521 29.9878H325.655L318.396 21.313H318.313V29.9878H313.453V10.1157Z" fill="black"/>
<path d="M338.493 14.2173H332.156V10.1157H349.69V14.2173H343.354V29.9878H338.493V14.2173Z" fill="black"/>
<path d="M364.477 27.8755H364.395C364.121 28.1626 363.793 28.4565 363.41 28.7573C363.027 29.0581 362.59 29.3452 362.098 29.6187C361.605 29.8784 361.059 30.0903 360.457 30.2544C359.855 30.4185 359.206 30.5005 358.509 30.5005C357.565 30.5005 356.684 30.3501 355.863 30.0493C355.043 29.7622 354.339 29.3452 353.751 28.7983C353.163 28.2378 352.698 27.5679 352.356 26.7886C352.028 25.9956 351.864 25.1138 351.864 24.1431C351.864 23.0767 352.056 22.1196 352.438 21.272C352.835 20.4243 353.382 19.7065 354.079 19.1187C354.776 18.5308 355.61 18.0864 356.581 17.7856C357.552 17.4712 358.625 17.314 359.801 17.314C360.662 17.314 361.455 17.3687 362.18 17.478C362.904 17.5874 363.54 17.7173 364.087 17.8677V17.0679C364.087 16.603 364.005 16.1587 363.841 15.7349C363.69 15.2974 363.438 14.9146 363.082 14.5864C362.74 14.2446 362.289 13.978 361.729 13.7866C361.168 13.5815 360.484 13.479 359.678 13.479C358.693 13.479 357.709 13.5884 356.725 13.8071C355.74 14.0259 354.674 14.354 353.525 14.7915V10.9976C354.523 10.5601 355.583 10.2251 356.704 9.99268C357.825 9.76025 359.001 9.63721 360.231 9.62354C361.681 9.62354 362.945 9.80127 364.025 10.1567C365.119 10.5122 366.028 11.0044 366.753 11.6333C367.491 12.2485 368.038 12.98 368.394 13.8276C368.763 14.6753 368.947 15.5981 368.947 16.5962V24.0815C368.947 25.394 368.961 26.522 368.988 27.4653C369.016 28.4087 369.043 29.2495 369.07 29.9878H364.682L364.477 27.8755ZM364.087 21.5181C363.622 21.4087 363.089 21.313 362.487 21.231C361.886 21.1353 361.277 21.0874 360.662 21.0874C359.473 21.0874 358.529 21.3267 357.832 21.8052C357.148 22.27 356.807 22.9878 356.807 23.9585C356.807 24.4097 356.882 24.8062 357.032 25.1479C357.196 25.4761 357.408 25.7495 357.668 25.9683C357.941 26.187 358.256 26.3511 358.611 26.4604C358.967 26.5698 359.343 26.6245 359.739 26.6245C360.231 26.6245 360.696 26.563 361.134 26.4399C361.571 26.3032 361.975 26.1392 362.344 25.9478C362.713 25.7427 363.041 25.5171 363.328 25.271C363.629 25.0249 363.882 24.7856 364.087 24.5532V21.5181Z" fill="black"/>
<path d="M385.559 23.4048C386.338 20.6431 387.315 17.5327 388.491 14.0737L389.865 10.1157H396.571V29.9878H391.896V22.8511C391.896 21.1011 391.978 18.688 392.142 15.6118H391.978C391.581 16.856 391.068 18.3804 390.439 20.1851C389.824 21.9761 389.093 24.0747 388.245 26.481L387.015 29.9878H383.959L382.708 26.4604C381.86 24.0815 381.129 22.0034 380.514 20.2261C379.912 18.4351 379.406 16.897 378.996 15.6118H378.832C378.996 18.5103 379.078 20.9233 379.078 22.8511V29.9878H374.402V10.1157H381.108L382.482 14.0737C383.754 17.8198 384.731 20.9302 385.415 23.4048H385.559Z" fill="black"/>
<path d="M420.299 10.1157V29.9878H415.438V24.2251C415.438 21.6138 415.5 19.2554 415.623 17.1499H415.541C414.707 18.5854 413.436 20.4722 411.727 22.8101L406.395 29.9878H401.924V10.1157H406.784V15.8784C406.784 18.7222 406.723 21.0806 406.6 22.9536H406.682C407.475 21.5864 408.746 19.6997 410.496 17.2935L415.828 10.1157H420.299Z" fill="black"/>
</svg>
